<svg width="137" height="28" viewBox="0 0 137 28" fill="none" xmlns="http://www.w3.org/2000/svg">
<path d="M37.4146 9.26562H38.8957L43.047 18.9241H41.0822L40.1855 16.7138H36.0039L35.1374 18.9241H33.2129L37.4045 9.26562H37.4146ZM39.591 15.2403L38.1098 11.3144L36.5984 15.2403H39.591Z" fill="#989998"/>
<path d="M44.8906 9.26562H46.8655L49.4953 16.5624L52.2058 9.26562H54.0598L50.1604 18.9241H48.6792L44.8906 9.26562Z" fill="#989998"/>
<path d="M60.1857 9.26562H61.6669L65.8182 18.9241H63.8534L62.9566 16.7138H58.7751L57.9086 18.9241H55.9941L60.1857 9.26562ZM62.3622 15.2403L60.881 11.3144L59.3696 15.2403H62.3622Z" fill="#989998"/>
<path d="M69.6172 9.26562H71.3301V17.3698H75.431V18.9241H69.6172V9.26562Z" fill="#989998"/>
<path d="M82.5119 9.26562H83.9931L88.1444 18.9241H86.1796L85.2828 16.7138H81.1013L80.2347 18.9241H78.3203L82.5119 9.26562ZM84.6883 15.2403L83.2072 11.3144L81.6958 15.2403H84.6883Z" fill="#989998"/>
<path d="M91.9453 9.26562H94.2225L98.8877 16.4413H98.9179V9.26562H100.631V18.9241H98.4544L93.6885 11.5162H93.6582V18.9241H91.9453V9.26562Z" fill="#989998"/>
<path d="M112.117 11.528C111.764 11.1445 111.421 10.8922 111.079 10.761C110.756 10.6298 110.424 10.5692 110.081 10.5692C109.577 10.5692 109.124 10.66 108.721 10.8417C108.318 11.0133 107.975 11.2555 107.683 11.5784C107.391 11.8913 107.169 12.2546 106.998 12.6684C106.847 13.0822 106.766 13.5364 106.766 14.0208C106.766 14.5355 106.847 15.02 106.998 15.4539C107.159 15.8879 107.391 16.2714 107.683 16.5843C107.975 16.9072 108.318 17.1495 108.721 17.3311C109.134 17.5128 109.587 17.6036 110.081 17.6036C110.474 17.6036 110.847 17.5128 111.21 17.3311C111.582 17.1394 111.925 16.8366 112.248 16.4329L113.658 17.4421C113.225 18.0376 112.691 18.4817 112.066 18.7542C111.441 19.0267 110.776 19.1679 110.061 19.1679C109.315 19.1679 108.63 19.0468 108.006 18.8147C107.391 18.5725 106.857 18.2294 106.403 17.7954C105.96 17.3513 105.607 16.8164 105.356 16.2008C105.104 15.5851 104.973 14.8989 104.973 14.1419C104.973 13.3648 105.104 12.6684 105.356 12.0427C105.607 11.4069 105.96 10.8619 106.403 10.4178C106.857 9.97375 107.391 9.63061 108.006 9.39848C108.63 9.15627 109.315 9.03516 110.061 9.03516C110.716 9.03516 111.321 9.15627 111.875 9.38839C112.439 9.62052 112.963 10.004 113.436 10.5591L112.106 11.5381L112.117 11.528Z" fill="#989998"/>
<path d="M117.547 9.26562H119.26V13.1108H123.764V9.26562H125.487V18.9241H123.764V14.6651H119.26V18.9241H117.547V9.26562Z" fill="#989998"/>
<path d="M130.363 9.26562H136.741V10.8199H132.076V13.1916H136.5V14.7458H132.076V17.3698H136.993V18.9241H130.363V9.26562Z" fill="#989998"/>
<path fill-rule="evenodd" clip-rule="evenodd" d="M28.1426 14.1007C28.1426 21.7508 21.956 27.9475 14.3184 27.9475C6.68078 27.9475 0.494141 21.7508 0.494141 14.1007C0.494141 6.45065 6.68078 0.253906 14.3184 0.253906C21.956 0.253906 28.1426 6.45065 28.1426 14.1007ZM10.3988 19.6112H7.71861C7.15436 19.6112 6.87223 19.6112 6.71101 19.5002C6.52965 19.379 6.41881 19.1873 6.39866 18.9653C6.38858 18.7634 6.52965 18.5212 6.8017 18.0267L13.4317 6.32955C13.7138 5.83502 13.8549 5.58271 14.0362 5.49187C14.2277 5.39095 14.4594 5.39095 14.6509 5.49187C14.8322 5.58271 14.9733 5.83502 15.2554 6.32955L16.6157 8.71136L16.6258 8.72145C16.928 9.25635 17.0893 9.52884 17.1497 9.81143C17.2202 10.1243 17.2202 10.4473 17.1497 10.7601C17.0792 11.0427 16.928 11.3152 16.6157 11.8602L13.1395 18.0267L13.1294 18.0468C12.8271 18.5817 12.6659 18.8542 12.4543 19.0662C12.2226 19.2882 11.9404 19.4497 11.6281 19.5506C11.346 19.6314 11.0336 19.6314 10.3988 19.6314V19.6112ZM17.1699 19.6112H21.0189C21.5831 19.6112 21.8753 19.6112 22.0366 19.5002C22.2179 19.379 22.3388 19.1772 22.3489 18.9653C22.359 18.7735 22.2179 18.5313 21.956 18.0771C21.9459 18.0569 21.9358 18.0468 21.9257 18.0267L20.0012 14.7264L19.9811 14.6861C19.709 14.2319 19.578 13.9998 19.3967 13.909C19.2052 13.808 18.9735 13.808 18.782 13.909C18.6007 13.9998 18.4596 14.242 18.1775 14.7264L16.263 18.0267L16.253 18.0368C15.9708 18.5212 15.8298 18.7634 15.8398 18.9653C15.8499 19.1873 15.9608 19.379 16.1522 19.5002C16.3235 19.6112 16.6056 19.6112 17.1699 19.6112Z" fill="#989998"/>
</svg>
