<svg width="119" height="33" viewBox="0 0 119 33" fill="none" xmlns="http://www.w3.org/2000/svg">
<path d="M1.73785 15.3721C1.58939 15.3645 1.44203 15.4012 1.31436 15.4773C1.18669 15.5535 1.08443 15.6657 1.02048 15.7999C0.956524 15.9341 0.93374 16.0842 0.955008 16.2314C0.976276 16.3785 1.04064 16.516 1.13998 16.6266C1.23932 16.7372 1.36918 16.8159 1.51319 16.8527C1.65719 16.8896 1.80889 16.883 1.94915 16.8338C2.08941 16.7845 2.21194 16.6948 2.30129 16.576C2.39064 16.4572 2.44282 16.3146 2.45122 16.1662C2.46165 15.9664 2.39242 15.7705 2.25869 15.6217C2.12497 15.4728 1.93766 15.383 1.73785 15.3721Z" fill="#989998"/>
<path d="M10.4739 15.9663C10.4415 16.5845 10.6556 17.1903 11.0693 17.6509C11.483 18.1114 12.0625 18.389 12.6806 18.4229C12.7279 18.4252 12.7713 18.4267 12.8157 18.4267C13.2699 18.4234 13.7132 18.2873 14.0911 18.0352C14.4689 17.7831 14.7648 17.426 14.9423 17.0079C15.1197 16.5898 15.171 16.1289 15.0899 15.682C15.0087 15.2351 14.7986 14.8217 14.4855 14.4927C14.1723 14.1637 13.7698 13.9335 13.3274 13.8303C12.8851 13.7272 12.4222 13.7557 11.9959 13.9123C11.5695 14.0689 11.1983 14.3468 10.9278 14.7118C10.6574 15.0767 10.4996 15.5128 10.4739 15.9663Z" fill="#989998"/>
<path d="M1.73785 15.3721C1.58939 15.3645 1.44203 15.4012 1.31436 15.4773C1.18669 15.5535 1.08443 15.6657 1.02048 15.7999C0.956524 15.9341 0.93374 16.0842 0.955008 16.2314C0.976276 16.3785 1.04064 16.516 1.13998 16.6266C1.23932 16.7372 1.36918 16.8159 1.51319 16.8527C1.65719 16.8896 1.80889 16.883 1.94915 16.8338C2.08941 16.7845 2.21194 16.6948 2.30129 16.576C2.39064 16.4572 2.44282 16.3146 2.45122 16.1662C2.46165 15.9664 2.39242 15.7705 2.25869 15.6217C2.12497 15.4728 1.93766 15.383 1.73785 15.3721Z" fill="#989998"/>
<path d="M10.3256 2.45765C10.4143 2.41359 10.4933 2.35243 10.5582 2.27769C10.623 2.20296 10.6725 2.11613 10.7037 2.0222C10.7349 1.92827 10.7471 1.8291 10.7398 1.7304C10.7325 1.6317 10.7057 1.53543 10.661 1.44713C10.5692 1.26898 10.4107 1.13429 10.22 1.07236C10.0294 1.01044 9.822 1.02627 9.64297 1.11642C9.5543 1.16043 9.47524 1.22157 9.41032 1.29629C9.3454 1.37102 9.29592 1.45786 9.26473 1.55181C9.23355 1.64576 9.22128 1.74495 9.22863 1.84366C9.23598 1.94237 9.2628 2.03865 9.30755 2.12695C9.39934 2.30519 9.55782 2.43994 9.74851 2.50188C9.93919 2.56382 10.1466 2.54793 10.3256 2.45765Z" fill="#989998"/>
<path d="M12.7044 6.58053C12.8415 6.51261 12.9638 6.41823 13.0642 6.30282C13.1646 6.18741 13.2412 6.05326 13.2895 5.9081C13.3378 5.76295 13.3569 5.60966 13.3457 5.45709C13.3344 5.30452 13.2931 5.15568 13.2241 5.01916C13.0829 4.74299 12.8382 4.53384 12.5434 4.43729C12.2486 4.34075 11.9277 4.36463 11.6504 4.50374C11.5133 4.57166 11.391 4.66607 11.2905 4.78152C11.19 4.89697 11.1134 5.03116 11.0651 5.17637C11.0168 5.32158 10.9977 5.47492 11.009 5.62754C11.0203 5.78016 11.0616 5.92904 11.1308 6.06558C11.2718 6.34194 11.5165 6.55125 11.8113 6.64774C12.1062 6.74423 12.4273 6.72005 12.7044 6.58053Z" fill="#989998"/>
<path d="M4.70274 9.41084C4.91675 9.55026 5.17717 9.59948 5.42731 9.54781C5.67744 9.49613 5.89704 9.34773 6.03828 9.13493C6.10759 9.0298 6.15541 8.912 6.17897 8.7883C6.20252 8.66461 6.20136 8.5375 6.17554 8.41426C6.14971 8.29102 6.09974 8.17412 6.02851 8.0703C5.95728 7.96647 5.86619 7.87776 5.76051 7.80931C5.54657 7.66992 5.28622 7.6207 5.03617 7.67238C4.78611 7.72405 4.56658 7.87243 4.42542 8.0852C4.35602 8.19028 4.30813 8.30805 4.28451 8.43174C4.26088 8.55542 4.262 8.68255 4.28778 8.80581C4.31356 8.92906 4.36351 9.04599 4.43473 9.14983C4.50596 9.25368 4.59704 9.3424 4.70274 9.41084Z" fill="#989998"/>
<path d="M6.12596 14.9585C5.89655 14.9469 5.66887 15.0036 5.4716 15.1212C5.27433 15.2389 5.11631 15.4123 5.01747 15.6197C4.91863 15.827 4.88341 16.059 4.91623 16.2863C4.94905 16.5136 5.04844 16.7262 5.20188 16.8971C5.35532 17.068 5.55593 17.1897 5.77843 17.2468C6.00092 17.3039 6.23534 17.2938 6.4521 17.2178C6.66887 17.1418 6.85828 17.0034 6.99647 16.8199C7.13466 16.6364 7.21544 16.4161 7.22861 16.1868C7.24496 15.8778 7.13804 15.5749 6.93132 15.3446C6.7246 15.1143 6.43495 14.9755 6.12596 14.9585Z" fill="#989998"/>
<path d="M4.83126 22.7628C4.71859 22.819 4.61814 22.8969 4.53572 22.992C4.45329 23.0872 4.39051 23.1977 4.35099 23.3173C4.31146 23.4368 4.29597 23.563 4.30543 23.6885C4.31488 23.814 4.34908 23.9365 4.40606 24.0487C4.52205 24.2761 4.72322 24.4483 4.9657 24.528C5.20817 24.6076 5.47231 24.5882 5.70052 24.4739C5.8132 24.4177 5.91365 24.3397 5.99609 24.2445C6.07852 24.1493 6.14129 24.0388 6.18081 23.9192C6.22033 23.7996 6.23582 23.6734 6.22636 23.5478C6.2169 23.4223 6.18268 23.2998 6.1257 23.1875C6.00971 22.9601 5.80852 22.7879 5.56602 22.7083C5.32351 22.6288 5.05938 22.6483 4.83126 22.7628Z" fill="#989998"/>
<path d="M9.37939 12.555C9.68491 12.7544 10.0569 12.8249 10.4142 12.751C10.7715 12.6772 11.0851 12.4651 11.2866 12.161C11.3857 12.0109 11.4541 11.8426 11.4879 11.666C11.5216 11.4893 11.52 11.3077 11.4831 11.1316C11.4463 10.9555 11.3749 10.7885 11.2731 10.6402C11.1714 10.4919 11.0412 10.3652 10.8902 10.2675C10.5848 10.0683 10.213 9.99782 9.85591 10.0714C9.49878 10.1451 9.18522 10.3568 8.98349 10.6606C8.8843 10.8107 8.81584 10.979 8.78205 11.1557C8.74826 11.3325 8.74981 11.5141 8.78662 11.6903C8.82343 11.8664 8.89477 12.0335 8.99651 12.1819C9.09825 12.3303 9.22838 12.4571 9.37939 12.555Z" fill="#989998"/>
<path d="M23.8121 6.49183C24.0719 6.66098 24.388 6.72065 24.6916 6.65783C24.9952 6.59501 25.2617 6.41478 25.433 6.15641C25.5173 6.0288 25.5754 5.88574 25.6041 5.73551C25.6328 5.58529 25.6315 5.43089 25.6002 5.2812C25.5688 5.1315 25.5082 4.98949 25.4217 4.86337C25.3352 4.73725 25.2245 4.62951 25.0962 4.54638C24.8364 4.37691 24.5202 4.31702 24.2165 4.37977C23.9127 4.44252 23.6461 4.62281 23.4748 4.88133C23.3905 5.00902 23.3324 5.15213 23.3037 5.30241C23.2751 5.45268 23.2764 5.60715 23.3078 5.75688C23.3392 5.90662 23.3999 6.04865 23.4864 6.1748C23.573 6.30094 23.6837 6.4087 23.8121 6.49183Z" fill="#989998"/>
<path d="M26.2156 2.38583C26.3837 2.49515 26.5882 2.5337 26.7845 2.4931C26.9809 2.45249 27.1534 2.33603 27.2644 2.169C27.3188 2.08638 27.3563 1.9938 27.3748 1.89661C27.3933 1.79942 27.3924 1.69954 27.3721 1.6027C27.3518 1.50587 27.3126 1.414 27.2566 1.33241C27.2007 1.25081 27.1291 1.1811 27.0461 1.12729C26.878 1.01778 26.6734 0.979073 26.4769 1.01959C26.2804 1.06011 26.1079 1.17658 25.9968 1.34367C25.9423 1.42632 25.9048 1.51895 25.8863 1.61621C25.8678 1.71347 25.8687 1.81343 25.889 1.91032C25.9094 2.00722 25.9487 2.09913 26.0047 2.18075C26.0608 2.26236 26.1324 2.33206 26.2156 2.38583Z" fill="#989998"/>
<path d="M23.9941 13.7499C23.6889 13.7324 23.3833 13.7752 23.0946 13.8758C22.806 13.9765 22.54 14.1329 22.3119 14.3363C22.0837 14.5398 21.8978 14.7861 21.7649 15.0614C21.6319 15.3366 21.5545 15.6354 21.537 15.9406C21.5195 16.2457 21.5623 16.5514 21.6629 16.84C21.7635 17.1286 21.92 17.3946 22.1235 17.6228C22.3269 17.851 22.5732 18.0368 22.8485 18.1698C23.1237 18.3027 23.4225 18.3801 23.7276 18.3976C23.7749 18.4 23.8179 18.4014 23.8623 18.4014C24.4585 18.4028 25.0327 18.1762 25.4673 17.7681C25.9019 17.36 26.1642 16.8012 26.2003 16.2061C26.2186 15.9004 26.1757 15.5941 26.0741 15.3053C25.9725 15.0164 25.8144 14.7507 25.6088 14.5237C25.404 14.2947 25.1559 14.1084 24.8787 13.9756C24.6016 13.8428 24.301 13.7661 23.9941 13.7499Z" fill="#989998"/>
<path d="M13.472 12.3916C13.6677 12.7786 13.9674 13.1034 14.3374 13.3296C14.7074 13.5558 15.133 13.6745 15.5667 13.6724C15.9321 13.6715 16.2923 13.5862 16.6193 13.4229C17.0894 13.1881 17.4663 12.801 17.6883 12.3246C17.9103 11.8483 17.9645 11.3107 17.842 10.7997C17.7195 10.2886 17.4276 9.834 17.0137 9.51006C16.5998 9.18611 16.0885 9.01186 15.5629 9.01569C15.1974 9.01652 14.837 9.10171 14.5099 9.26464C14.2359 9.40122 13.9915 9.59061 13.7909 9.8219C13.5903 10.0532 13.4374 10.3219 13.341 10.6124C13.2445 10.903 13.2065 11.2098 13.2289 11.5151C13.2514 11.8204 13.334 12.1183 13.472 12.3916Z" fill="#989998"/>
<path d="M31.8455 9.41962C31.9582 9.36335 32.0586 9.28536 32.141 9.19015C32.2234 9.09494 32.2861 8.98439 32.3256 8.86484C32.3651 8.74529 32.3806 8.6191 32.3712 8.49354C32.3618 8.36798 32.3276 8.2455 32.2707 8.13319C32.1547 7.90573 31.9535 7.73339 31.7109 7.65373C31.4683 7.57408 31.204 7.59359 30.9758 7.70803C30.8631 7.7642 30.7627 7.8421 30.6802 7.93726C30.5978 8.03242 30.535 8.14296 30.4955 8.26249C30.456 8.38202 30.4405 8.50819 30.45 8.63373C30.4594 8.75927 30.4936 8.8817 30.5506 8.99396C30.6667 9.22133 30.8679 9.39364 31.1104 9.47337C31.353 9.55309 31.6172 9.53376 31.8455 9.41962Z" fill="#989998"/>
<path d="M25.9 10.1507C25.7388 10.2307 25.595 10.3418 25.4769 10.4777C25.3589 10.6135 25.2689 10.7714 25.2121 10.9422C25.1554 11.113 25.133 11.2934 25.1463 11.4728C25.1596 11.6523 25.2083 11.8274 25.2896 11.988C25.4557 12.3126 25.7433 12.5584 26.0898 12.672C26.4363 12.7855 26.8137 12.7575 27.1396 12.5941C27.3008 12.514 27.4445 12.4027 27.5625 12.2668C27.6805 12.1309 27.7705 11.973 27.8272 11.8022C27.8839 11.6314 27.9063 11.4511 27.8931 11.2716C27.8798 11.0921 27.8312 10.917 27.75 10.7564C27.5839 10.4317 27.2963 10.1859 26.9498 10.0725C26.6032 9.95904 26.2259 9.98716 25.9 10.1507Z" fill="#989998"/>
<path d="M18.2516 2.03512C18.4405 2.04452 18.6279 1.9978 18.7903 1.90081C18.9526 1.80383 19.0826 1.66094 19.1639 1.49016C19.2451 1.31939 19.274 1.12837 19.2469 0.941211C19.2197 0.75405 19.1378 0.57912 19.0113 0.43848C18.8849 0.297839 18.7196 0.19779 18.5364 0.150941C18.3532 0.104093 18.1602 0.112544 17.9817 0.175234C17.8033 0.237925 17.6474 0.352056 17.5338 0.503213C17.4201 0.654371 17.3538 0.835797 17.3431 1.02461C17.3298 1.27902 17.418 1.52829 17.5884 1.71774C17.7587 1.90719 17.9972 2.02133 18.2516 2.03512Z" fill="#989998"/>
<path d="M18.2386 8.07028C18.509 8.08425 18.7775 8.01779 19.0101 7.87928C19.2428 7.74077 19.4291 7.53643 19.5457 7.29207C19.6623 7.0477 19.7039 6.77425 19.6652 6.50627C19.6265 6.23829 19.5093 5.98778 19.3283 5.78638C19.1474 5.58498 18.9108 5.44171 18.6484 5.37468C18.3861 5.30765 18.1098 5.31985 17.8544 5.40974C17.599 5.49964 17.3759 5.66321 17.2134 5.87978C17.0509 6.09634 16.9562 6.35621 16.9413 6.62656C16.9225 6.98989 17.0485 7.34584 17.2916 7.61645C17.5348 7.88707 17.8753 8.05026 18.2386 8.07028Z" fill="#989998"/>
<path d="M10.7759 22.032C10.9371 21.9519 11.0809 21.8408 11.199 21.7049C11.3171 21.569 11.4071 21.4111 11.4639 21.2403C11.5207 21.0694 11.5431 20.8891 11.5299 20.7095C11.5166 20.53 11.468 20.3549 11.3867 20.1942C11.2208 19.8695 10.9331 19.6236 10.5866 19.5101C10.24 19.3965 9.86267 19.4246 9.53672 19.5881C9.37549 19.6681 9.23171 19.7792 9.11364 19.9151C8.99558 20.0509 8.90557 20.2088 8.84883 20.3796C8.79208 20.5504 8.76972 20.7308 8.78303 20.9103C8.79633 21.0897 8.84504 21.2648 8.92635 21.4254C9.09235 21.75 9.37985 21.9958 9.72625 22.1094C10.0727 22.223 10.4499 22.1952 10.7759 22.032Z" fill="#989998"/>
<path d="M19.1347 10.0556C18.9663 10.3112 18.8502 10.5976 18.7929 10.8983C18.7357 11.199 18.7384 11.508 18.8011 11.8076C18.8638 12.1072 18.985 12.3914 19.158 12.6439C19.3309 12.8965 19.5522 13.1123 19.8088 13.279C20.3289 13.6178 20.9617 13.7375 21.5695 13.6121C22.1774 13.4866 22.7111 13.1261 23.0544 12.6091C23.2228 12.3534 23.3389 12.067 23.3961 11.7664C23.4533 11.4657 23.4505 11.1566 23.3878 10.857C23.3251 10.5574 23.2037 10.2732 23.0307 10.0207C22.8577 9.7682 22.6365 9.55238 22.3798 9.38571C21.8599 9.04678 21.2271 8.92703 20.6193 9.0525C20.0115 9.17797 19.4779 9.53852 19.1347 10.0556Z" fill="#989998"/>
<path d="M23.2022 19.789C23.0065 19.402 22.7068 19.0771 22.3368 18.8508C21.9668 18.6245 21.5411 18.5058 21.1074 18.5078C20.7418 18.5084 20.3814 18.5938 20.0544 18.7573C19.5842 18.9921 19.2075 19.3792 18.9854 19.8555C18.7634 20.3318 18.7092 20.8693 18.8316 21.3803C18.954 21.8914 19.2459 22.346 19.6597 22.6699C20.0735 22.9939 20.5848 23.1683 21.1103 23.1645C21.4762 23.164 21.8369 23.0786 22.1642 22.9151C22.4382 22.7786 22.6825 22.5893 22.8831 22.3581C23.0837 22.1269 23.2366 21.8583 23.3331 21.5679C23.4295 21.2774 23.4676 20.9707 23.4452 20.6654C23.4227 20.3601 23.3401 20.0623 23.2022 19.789Z" fill="#989998"/>
<path d="M27.2965 19.6263C26.9908 19.4274 26.619 19.3572 26.2618 19.431C25.9047 19.5047 25.5911 19.7165 25.3893 20.0203C25.2902 20.1705 25.2218 20.3388 25.1882 20.5156C25.1545 20.6924 25.1561 20.874 25.193 21.0502C25.2299 21.2263 25.3013 21.3934 25.4031 21.5417C25.5049 21.6901 25.6351 21.8169 25.7861 21.9147C26.0917 22.1137 26.4636 22.184 26.8208 22.1102C27.178 22.0364 27.4915 21.8246 27.6933 21.5207C27.7925 21.3705 27.8609 21.2022 27.8947 21.0254C27.9284 20.8486 27.9268 20.6669 27.8899 20.4907C27.853 20.3146 27.7816 20.1475 27.6797 19.9991C27.5778 19.8507 27.4476 19.724 27.2965 19.6263Z" fill="#989998"/>
<path d="M31.7833 16.1242C31.798 15.8927 31.7436 15.6621 31.6271 15.4616C31.5105 15.261 31.337 15.0996 31.1286 14.9978C30.9202 14.896 30.6862 14.8583 30.4564 14.8896C30.2266 14.9209 30.0112 15.0198 29.8376 15.1736C29.6641 15.3275 29.5401 15.5295 29.4814 15.7539C29.4228 15.9783 29.4321 16.2151 29.5082 16.4342C29.5842 16.6533 29.7237 16.8449 29.9088 16.9847C30.0939 17.1244 30.3163 17.2061 30.5479 17.2193C30.7009 17.2286 30.8544 17.2077 30.9993 17.1577C31.1443 17.1077 31.2779 17.0296 31.3927 16.9279C31.5074 16.8262 31.601 16.7028 31.668 16.5649C31.735 16.427 31.7742 16.2773 31.7833 16.1242Z" fill="#989998"/>
<path d="M35.0254 15.3096C34.8769 15.302 34.7295 15.3385 34.6018 15.4146C34.4741 15.4907 34.3718 15.6029 34.3077 15.7371C34.2437 15.8713 34.2209 16.0214 34.2421 16.1685C34.2633 16.3157 34.3276 16.4533 34.4269 16.5639C34.5262 16.6745 34.6561 16.7533 34.8001 16.7902C34.9441 16.8271 35.0959 16.8205 35.2361 16.7713C35.3764 16.7221 35.499 16.6324 35.5884 16.5136C35.6777 16.3948 35.7299 16.2522 35.7383 16.1037C35.7488 15.904 35.6796 15.7082 35.546 15.5594C35.4124 15.4105 35.2251 15.3207 35.0254 15.3096Z" fill="#989998"/>
<path d="M31.9754 22.7663C31.7614 22.627 31.5011 22.5777 31.251 22.6294C31.001 22.6811 30.7815 22.8295 30.6403 23.0423C30.5709 23.1474 30.523 23.2652 30.4994 23.3889C30.4757 23.5126 30.4768 23.6398 30.5026 23.7631C30.5284 23.8864 30.5784 24.0034 30.6496 24.1072C30.7208 24.2111 30.8119 24.2999 30.9176 24.3684C31.1316 24.5078 31.3921 24.557 31.6422 24.5053C31.8923 24.4537 32.1119 24.3053 32.2532 24.0924C32.3226 23.9873 32.3704 23.8695 32.394 23.7457C32.4176 23.622 32.4165 23.4948 32.3906 23.3715C32.3648 23.2482 32.3148 23.1313 32.2435 23.0274C32.1723 22.9235 32.0811 22.8348 31.9754 22.7663Z" fill="#989998"/>
<path d="M10.4601 29.7991C10.2921 29.6896 10.0876 29.6509 9.89122 29.6915C9.69481 29.732 9.52234 29.8485 9.41136 30.0155C9.35676 30.0981 9.31907 30.1907 9.30046 30.2879C9.28185 30.3851 9.2827 30.4851 9.30296 30.582C9.32321 30.6789 9.36246 30.7708 9.41845 30.8525C9.47444 30.9341 9.54605 31.0039 9.62915 31.0577C9.79723 31.1671 10.0018 31.2058 10.1982 31.1651C10.3946 31.1245 10.567 31.008 10.6779 30.8408C10.7325 30.7583 10.7702 30.6658 10.7888 30.5686C10.8074 30.4714 10.8066 30.3714 10.7863 30.2746C10.7661 30.1777 10.7268 30.0858 10.6708 30.0042C10.6148 29.9226 10.5432 29.8529 10.4601 29.7991Z" fill="#989998"/>
<path d="M26.3516 29.722C26.263 29.766 26.1839 29.8272 26.1191 29.9019C26.0542 29.9767 26.0048 30.0635 25.9736 30.1575C25.9425 30.2514 25.9303 30.3506 25.9376 30.4493C25.945 30.548 25.9718 30.6442 26.0166 30.7325C26.1084 30.9106 26.2668 31.0453 26.4574 31.1072C26.6479 31.1691 26.8553 31.1533 27.0342 31.0632C27.1228 31.0192 27.2019 30.9581 27.2667 30.8834C27.3316 30.8087 27.3811 30.7219 27.4122 30.628C27.4434 30.5341 27.4557 30.435 27.4484 30.3363C27.4411 30.2376 27.4143 30.1414 27.3696 30.0531C27.2779 29.8748 27.1195 29.7399 26.9288 29.6779C26.7381 29.6159 26.5307 29.6317 26.3516 29.722Z" fill="#989998"/>
<path d="M17.547 22.1238C17.7157 21.8683 17.8321 21.582 17.8895 21.2813C17.9469 20.9806 17.9442 20.6716 17.8815 20.3719C17.8188 20.0723 17.6973 19.7881 17.5241 19.5357C17.3509 19.2833 17.1294 19.0677 16.8724 18.9013C16.3525 18.5624 15.7197 18.4427 15.1119 18.5681C14.5041 18.6936 13.9705 19.0541 13.6273 19.5713C13.4587 19.8268 13.3424 20.1132 13.2851 20.4139C13.2278 20.7146 13.2306 21.0237 13.2934 21.3234C13.3562 21.623 13.4776 21.9072 13.6508 22.1596C13.824 22.4121 14.0455 22.6277 14.3024 22.7942C14.8224 23.1329 15.4552 23.2525 16.0629 23.127C16.6707 23.0014 17.2043 22.6409 17.5475 22.1238H17.547Z" fill="#989998"/>
<path d="M12.8654 25.6866C12.6056 25.5175 12.2896 25.4577 11.9861 25.5204C11.6826 25.583 11.416 25.7629 11.2445 26.021C11.1602 26.1487 11.102 26.2918 11.0733 26.4421C11.0446 26.5923 11.0459 26.7468 11.0773 26.8965C11.1086 27.0462 11.1693 27.1883 11.2558 27.3144C11.3423 27.4406 11.4529 27.5484 11.5813 27.6316C11.8411 27.8007 12.1572 27.8604 12.4608 27.7978C12.7644 27.7352 13.031 27.5552 13.2027 27.2971C13.2869 27.1694 13.3451 27.0263 13.3737 26.876C13.4024 26.7257 13.401 26.5713 13.3696 26.4215C13.3383 26.2718 13.2776 26.1297 13.191 26.0036C13.1045 25.8775 12.9938 25.7697 12.8654 25.6866Z" fill="#989998"/>
<path d="M18.3289 30.1458C18.1399 30.1362 17.9523 30.1828 17.7897 30.2797C17.6271 30.3767 17.4969 30.5196 17.4155 30.6904C17.334 30.8613 17.305 31.0524 17.3321 31.2397C17.3592 31.4271 17.4412 31.6022 17.5677 31.743C17.6942 31.8838 17.8596 31.9839 18.0429 32.0308C18.2263 32.0777 18.4195 32.0692 18.598 32.0065C18.7766 31.9437 18.9326 31.8295 19.0463 31.6782C19.16 31.5269 19.2263 31.3453 19.2369 31.1563C19.2502 30.902 19.1621 30.6528 18.9918 30.4633C18.8216 30.2739 18.5832 30.1597 18.3289 30.1458Z" fill="#989998"/>
<path d="M18.3333 24.1229C18.0629 24.109 17.7944 24.1754 17.5618 24.3139C17.3292 24.4524 17.1428 24.6567 17.0262 24.9011C16.9096 25.1454 16.868 25.4188 16.9066 25.6868C16.9453 25.9548 17.0625 26.2053 17.2434 26.4067C17.4243 26.6081 17.6609 26.7514 17.9232 26.8185C18.1855 26.8855 18.4618 26.8734 18.7172 26.7836C18.9726 26.6937 19.1956 26.5303 19.3582 26.3138C19.5208 26.0973 19.6155 25.8374 19.6306 25.5671C19.6496 25.2037 19.5237 24.8475 19.2805 24.5768C19.0373 24.306 18.6967 24.1428 18.3333 24.1229Z" fill="#989998"/>
<path d="M23.9708 25.5971C23.8336 25.6651 23.7113 25.7595 23.6108 25.875C23.5104 25.9905 23.4337 26.1247 23.3854 26.27C23.3371 26.4152 23.318 26.5686 23.3293 26.7213C23.3406 26.8739 23.382 27.0228 23.4511 27.1594C23.5921 27.4354 23.8366 27.6444 24.1311 27.7409C24.4257 27.8374 24.7464 27.8134 25.0234 27.6743C25.1604 27.6064 25.2827 27.5119 25.3831 27.3965C25.4836 27.281 25.5602 27.1468 25.6085 27.0017C25.6568 26.8565 25.6759 26.7031 25.6646 26.5505C25.6534 26.3979 25.6121 26.2491 25.543 26.1125C25.4019 25.8366 25.1575 25.6277 24.863 25.5311C24.5685 25.4346 24.2478 25.4583 23.9708 25.5971Z" fill="#989998"/>
<path d="M42.8828 16.5664H50.1421V18.1594H44.7678V20.8796H49.612V22.4736H44.7678V26.5979H42.8828V16.5664Z" fill="#989998"/>
<path d="M50.6465 22.7444C50.6465 19.9803 51.9272 18.7227 54.4599 18.7227C56.9926 18.7227 58.2733 19.9803 58.2733 22.7444C58.2733 25.5086 56.9926 26.7662 54.4599 26.7662C51.9272 26.7662 50.6465 25.5086 50.6465 22.7444ZM56.4479 22.8469V22.6424C56.4479 20.9752 55.8734 20.1565 54.4599 20.1565C53.0318 20.1565 52.4719 20.9752 52.4719 22.6424V22.8469C52.4719 24.5141 53.0313 25.3333 54.4599 25.3333C55.8734 25.3328 56.4479 24.5141 56.4479 22.8469Z" fill="#989998"/>
<path d="M59.7988 24.0943V18.9023H61.5657V23.7872C61.5657 24.8842 62.1104 25.2517 62.9938 25.2517C63.2327 25.2488 63.4684 25.1974 63.6867 25.1005C63.9051 25.0037 64.1015 24.8635 64.264 24.6884C64.4265 24.5134 64.5517 24.3071 64.6321 24.0822C64.7124 23.8573 64.7462 23.6184 64.7314 23.38V18.9047H66.4983V26.5972H65.0404L64.893 25.5735H64.79C64.5016 25.958 64.125 26.2676 63.692 26.4764C63.259 26.6851 62.7822 26.7868 62.3017 26.7729C60.8145 26.7706 59.7988 26.0539 59.7988 24.0943Z" fill="#989998"/>
<path d="M68.5645 18.8992H70.0224L70.1698 19.9229H70.2727C70.5612 19.5385 70.9378 19.2289 71.3708 19.0203C71.8038 18.8116 72.2806 18.71 72.761 18.7239C74.2336 18.7239 75.2649 19.4406 75.2649 21.4002V26.5903H73.498V21.7073C73.498 20.6103 72.9533 20.2427 72.0698 20.2427C71.831 20.2457 71.5952 20.2972 71.3768 20.394C71.1584 20.4909 70.962 20.6311 70.7995 20.8062C70.637 20.9813 70.5118 21.1876 70.4315 21.4126C70.3511 21.6376 70.3174 21.8765 70.3323 22.115V26.5903H68.5645V18.8992Z" fill="#989998"/>
<path d="M76.7793 22.7322C76.7793 19.9681 78.0307 18.7251 79.7556 18.7251C80.2026 18.6866 80.652 18.7647 81.0598 18.9518C81.4677 19.1389 81.82 19.4287 82.0823 19.7928H82.1706V16.0195H83.9375V26.5929H82.4796L82.3322 25.5691H82.2438C81.9854 25.9563 81.6314 26.2702 81.2161 26.4803C80.8008 26.6905 80.3382 26.7898 79.8732 26.7686C77.9717 26.7686 76.7793 25.5403 76.7793 22.7322ZM82.1682 22.8494V22.6741C82.1682 21.1094 81.6382 20.2317 80.4014 20.2317C79.0909 20.2317 78.6062 20.9923 78.6062 22.6595V22.8484C78.6062 24.5019 79.0786 25.2616 80.4014 25.2616C81.6528 25.2621 82.1682 24.3994 82.1682 22.8494Z" fill="#989998"/>
<path d="M85.4219 24.602C85.4219 22.5106 87.4391 21.9257 90.2807 21.9257V21.2823C90.2807 20.6242 90.0446 20.1121 88.958 20.1121C87.8242 20.1121 87.5293 20.5656 87.5293 20.9747V21.1793H85.8215C85.8082 21.0726 85.8033 20.965 85.8069 20.8576C85.8069 19.5267 87.0735 18.7227 88.958 18.7227C91.0489 18.7227 92.05 19.6146 92.05 21.1505V24.8212C92.0447 24.8901 92.0544 24.9593 92.0785 25.024C92.1025 25.0888 92.1404 25.1475 92.1894 25.1962C92.2384 25.2448 92.2974 25.2822 92.3624 25.3058C92.4273 25.3294 92.4966 25.3387 92.5654 25.3328H93.0378V26.5323C92.6893 26.6826 92.3128 26.7573 91.9333 26.7515C91.6052 26.7772 91.2783 26.6874 91.0094 26.4976C90.7405 26.3078 90.5464 26.03 90.4607 25.7122H90.3578C90.0576 26.0702 89.6771 26.3522 89.2472 26.5352C88.8173 26.7182 88.3502 26.797 87.8841 26.7652C86.9974 26.7666 85.4219 26.4742 85.4219 24.602ZM90.2807 23.5202V23.1691C88.6022 23.1691 87.2331 23.4054 87.2331 24.4267C87.2331 25.0409 87.6304 25.3626 88.4109 25.3626C88.6597 25.3847 88.9105 25.3524 89.1456 25.2679C89.3807 25.1834 89.5946 25.0487 89.7725 24.8733C89.9504 24.6979 90.0879 24.4859 90.1757 24.252C90.2635 24.0181 90.2993 23.7679 90.2807 23.5187V23.5202Z" fill="#989998"/>
<path d="M94.2804 24.8487V20.3295H93.3379V18.8961H94.3097L94.6333 16.7461H96.0468V18.8961H97.3695V20.3295H96.0468V24.6725C96.0335 24.7598 96.0404 24.8489 96.0671 24.9331C96.0938 25.0173 96.1395 25.0942 96.2008 25.1578C96.262 25.2215 96.3371 25.2702 96.4201 25.3001C96.5032 25.3301 96.5921 25.3405 96.6798 25.3306H97.3719V26.53C96.9753 26.6757 96.5575 26.7555 96.1351 26.7663C94.7069 26.7644 94.2804 25.7992 94.2804 24.8487Z" fill="#989998"/>
<path d="M98.8047 16.0195H100.542V17.7453H98.8047V16.0195ZM98.8047 18.9013H100.572V26.5938H98.8047V18.9013Z" fill="#989998"/>
<path d="M102.133 22.7444C102.133 19.9803 103.414 18.7227 105.946 18.7227C108.478 18.7227 109.76 19.9803 109.76 22.7444C109.76 25.5086 108.479 26.7662 105.946 26.7662C103.414 26.7662 102.133 25.5086 102.133 22.7444ZM107.934 22.8469V22.6424C107.934 20.9752 107.36 20.1565 105.946 20.1565C104.518 20.1565 103.958 20.9752 103.958 22.6424V22.8469C103.958 24.5141 104.518 25.3333 105.946 25.3333C107.358 25.3328 107.932 24.5141 107.932 22.8469H107.934Z" fill="#989998"/>
<path d="M111.332 18.8992H112.79L112.937 19.9229H113.04C113.329 19.5384 113.706 19.2289 114.139 19.0202C114.572 18.8116 115.049 18.71 115.529 18.7239C117.002 18.7239 118.033 19.4406 118.033 21.4002V26.5903H116.266V21.7073C116.266 20.6103 115.721 20.2428 114.838 20.2428C114.599 20.2457 114.363 20.2972 114.145 20.394C113.926 20.4909 113.73 20.6311 113.568 20.8062C113.405 20.9813 113.28 21.1876 113.2 21.4126C113.119 21.6376 113.085 21.8766 113.1 22.115V26.5903H111.333L111.332 18.8992Z" fill="#989998"/>
<path d="M42.4844 8.22663C42.4844 4.70234 44.2796 3.03516 47.373 3.03516C49.8911 3.03516 51.8346 4.29274 51.8346 6.90904H49.9057C49.9057 5.41712 48.8749 4.61306 47.4019 4.61306C45.3704 4.61306 44.4128 5.78326 44.4128 8.07925V8.37167C44.4128 10.7116 45.3553 11.8379 47.4019 11.8379C48.9609 11.8379 49.9785 11.0347 49.9785 9.57022H51.8337C51.8337 12.1879 49.9194 13.4162 47.3721 13.4162C44.2805 13.4186 42.4844 11.8393 42.4844 8.22663Z" fill="#989998"/>
<path d="M52.9258 11.2582C52.9258 9.16682 54.9431 8.58194 57.7847 8.58194V7.93849C57.7847 7.2804 57.5485 6.76879 56.4595 6.76879C55.3257 6.76879 55.0314 7.22231 55.0314 7.63143V7.83599H53.3231C53.3098 7.7293 53.3049 7.62174 53.3084 7.51428C53.3084 6.18346 54.5745 5.37891 56.4595 5.37891C58.5505 5.37891 59.5516 6.27131 59.5516 7.80669V11.4774C59.5462 11.5464 59.5558 11.6156 59.5799 11.6804C59.6039 11.7452 59.6418 11.804 59.6908 11.8527C59.7398 11.9014 59.7989 11.9389 59.8638 11.9625C59.9288 11.9862 59.9981 11.9954 60.067 11.9895H60.5394V13.1886C60.1908 13.3388 59.8144 13.4135 59.4349 13.4078C59.1067 13.4336 58.7799 13.3438 58.511 13.1539C58.242 12.9641 58.048 12.6863 57.9623 12.3684H57.8593C57.5592 12.7265 57.1786 13.0085 56.7488 13.1915C56.3189 13.3745 55.8518 13.4533 55.3857 13.4215C54.4999 13.4219 52.9258 13.1295 52.9258 11.2582ZM57.7847 10.1759V9.82491C56.1062 9.82491 54.7366 10.0611 54.7366 11.0825C54.7366 11.6967 55.1339 12.0184 55.9143 12.0184C56.1631 12.0404 56.4138 12.0081 56.6488 11.9237C56.8839 11.8393 57.0978 11.7047 57.2757 11.5294C57.4536 11.3541 57.5913 11.1422 57.6792 10.9084C57.7671 10.6746 57.8031 10.4245 57.7847 10.1755V10.1759Z" fill="#989998"/>
<path d="M61.6855 5.55419H63.1435L63.3055 6.76833H63.4085C63.6882 6.03701 64.1743 5.37893 65.1461 5.37893C65.3974 5.37763 65.6468 5.42229 65.8821 5.51074V7.16423H65.3223C64.1148 7.16423 63.4524 7.8223 63.4524 9.24288V13.25H61.6855V5.55419Z" fill="#989998"/>
<path d="M66.6367 9.37237C66.6367 6.60821 67.8882 5.36526 69.613 5.36526C70.06 5.32679 70.5093 5.40496 70.917 5.5921C71.3247 5.77924 71.677 6.06896 71.9392 6.43294H72.0276V2.66016H73.7944V13.233H72.337L72.1896 12.2093H72.1017C71.8433 12.5964 71.4893 12.9102 71.0739 13.1202C70.6586 13.3303 70.1961 13.4295 69.7311 13.4083C67.8296 13.4088 66.6367 12.1805 66.6367 9.37237ZM72.0257 9.48954V9.31427C72.0257 7.74959 71.4956 6.87182 70.2588 6.87182C68.9483 6.87182 68.4636 7.63243 68.4636 9.29962V9.48859C68.4636 11.1421 68.936 11.9017 70.2588 11.9017C71.5107 11.9022 72.0261 11.0396 72.0261 9.48954H72.0257Z" fill="#989998"/>
<path d="M75.2793 11.2582C75.2793 9.16682 77.2965 8.58194 80.1382 8.58194V7.93849C80.1382 7.2804 79.902 6.76879 78.813 6.76879C77.6792 6.76879 77.3849 7.22231 77.3849 7.63143V7.83599H75.6766C75.6633 7.7293 75.6584 7.62174 75.662 7.51428C75.662 6.18346 76.9285 5.37891 78.813 5.37891C80.904 5.37891 81.905 6.27131 81.905 7.80669V11.4774C81.8997 11.5464 81.9093 11.6156 81.9334 11.6804C81.9574 11.7452 81.9953 11.804 82.0443 11.8527C82.0934 11.9014 82.1524 11.9389 82.2173 11.9625C82.2823 11.9862 82.3516 11.9954 82.4205 11.9895H82.8929V13.1886C82.5443 13.3388 82.1679 13.4135 81.7884 13.4078C81.4602 13.4336 81.1334 13.3438 80.8645 13.1539C80.5955 12.9641 80.4014 12.6863 80.3158 12.3684H80.2128C79.9126 12.7264 79.5321 13.0084 79.1022 13.1914C78.6724 13.3744 78.2053 13.4533 77.7392 13.4215C76.8548 13.4219 75.2793 13.1295 75.2793 11.2582ZM80.1382 10.1759V9.82491C78.4597 9.82491 77.0901 10.0611 77.0901 11.0825C77.0901 11.6967 77.4874 12.0184 78.2679 12.0184C78.5166 12.0404 78.7673 12.0081 79.0023 11.9237C79.2374 11.8393 79.4513 11.7047 79.6292 11.5294C79.8071 11.3541 79.9448 11.1422 80.0326 10.9084C80.1205 10.6746 80.1566 10.4245 80.1382 10.1755V10.1759Z" fill="#989998"/>
<path d="M84.0391 5.55592H85.4965L85.6439 6.57966H85.7469C86.0354 6.19506 86.412 5.88538 86.8451 5.67665C87.2782 5.46791 87.7551 5.36623 88.2356 5.38017C89.7082 5.38017 90.7395 6.09686 90.7395 8.05648V13.2484H88.9726V8.36354C88.9726 7.26657 88.4279 6.89903 87.5445 6.89903C87.3056 6.90196 87.0698 6.95341 86.8514 7.05027C86.633 7.14713 86.4367 7.28736 86.2741 7.46246C86.1116 7.63756 85.9864 7.84389 85.9061 8.06888C85.8258 8.29386 85.792 8.53283 85.8069 8.77126V13.2465H84.04L84.0391 5.55592Z" fill="#989998"/>
<path d="M92.2656 9.40067C92.2656 6.6365 93.5463 5.37891 96.079 5.37891C98.6117 5.37891 99.8929 6.6365 99.8929 9.40067C99.8929 12.1648 98.6117 13.4224 96.079 13.4224C93.5463 13.4224 92.2656 12.1648 92.2656 9.40067ZM98.067 9.50317V9.29862C98.067 7.63143 97.493 6.81224 96.0795 6.81224C94.6514 6.81224 94.0915 7.63096 94.0915 9.29862V9.50317C94.0915 11.1704 94.6509 11.9895 96.0795 11.9895C97.4925 11.9895 98.067 11.1704 98.067 9.50317Z" fill="#989998"/>
</svg>
