<svg width="167" height="38" viewBox="0 0 167 38" fill="none" xmlns="http://www.w3.org/2000/svg">
<g clip-path="url(#clip0_3291_3793)">
<path d="M135.869 11.1102C133.801 9.08294 131.242 8.07424 128.184 8.07424C124.415 8.06607 120.922 10.0622 119.075 13.3254C118.141 14.952 117.662 16.788 117.67 18.6615C117.662 21.5437 118.698 23.9976 120.758 26.0232C122.826 28.0488 125.355 29.0673 128.347 29.0673C131.339 29.0673 133.811 28.0488 135.869 26.0134C137.927 23.9699 138.957 21.4963 138.957 18.5667C138.967 15.6174 137.929 13.1259 135.869 11.1102ZM135.753 22.9056C135.013 24.1889 133.935 25.263 132.627 25.9873C131.3 26.7393 129.8 27.1284 128.271 27.1186C125.924 27.1186 123.915 26.3011 122.251 24.6647C120.588 23.0282 119.76 21.032 119.76 18.6533C119.76 17.0463 120.135 15.5896 120.885 14.2883C122.414 11.6725 125.223 10.0459 128.271 10.0181C129.792 10.0181 131.282 10.417 132.599 11.1788C133.907 11.9112 135.004 12.9755 135.753 14.2605C136.502 15.5357 136.879 16.9629 136.879 18.5601C136.879 20.1574 136.504 21.6042 135.753 22.9072V22.9056Z" fill="#989998"/>
<path d="M157.945 22.9067V22.9639C157.945 24.6559 157.24 26.1747 155.949 27.2668C154.658 28.385 152.866 28.9589 150.812 28.9589C149.286 28.9589 147.846 28.6728 146.525 28.0989C145.234 27.5545 144.059 26.7224 142.973 25.6614L144.441 24.2554C146.231 26.0341 148.375 26.9513 150.812 26.9513C153.835 26.9513 155.89 25.3458 155.89 22.9639V22.9067C155.89 21.8734 155.597 21.1574 154.891 20.5835C154.07 19.9231 152.632 19.3509 150.488 18.8915C148.11 18.4043 146.553 17.801 145.527 16.9983C144.441 16.1384 143.912 14.9891 143.912 13.4981V13.4409C143.912 12.7232 144.059 12.0349 144.381 11.4039C144.675 10.7728 145.115 10.199 145.672 9.71181C146.846 8.73744 148.431 8.19141 150.164 8.19141C151.337 8.19141 152.513 8.42192 153.657 8.82246C154.685 9.22463 155.653 9.76903 156.592 10.5145L155.301 12.0627C153.716 10.83 151.984 10.199 150.164 10.199C148.93 10.199 147.815 10.5717 147.052 11.2322C146.348 11.8355 145.966 12.6088 145.966 13.4409V13.4981C145.966 14.3875 146.201 14.9319 146.818 15.4191C147.581 16.0207 148.902 16.5079 150.957 16.9395C153.453 17.4839 155.126 18.1427 156.24 19.0615C157.384 20.0081 157.943 21.2702 157.943 22.905L157.945 22.9067Z" fill="#989998"/>
<path d="M111.576 12.8287C110.47 11.1546 108.941 9.97428 106.979 9.30073C105.613 8.81518 103.419 8.57812 100.399 8.57812H96.207V28.5625H102.641C105.16 28.5625 107.122 28.2012 108.518 27.477C109.913 26.7543 111.047 25.6328 111.923 24.1108C112.797 22.5888 113.231 20.8199 113.231 18.8221C113.231 16.5022 112.682 14.5044 111.577 12.8304L111.576 12.8287ZM109.873 23.5108C108.997 24.786 107.805 25.6704 106.284 26.156C105.206 26.4977 103.264 26.6693 100.475 26.6693H98.1378V10.5367H99.5694C102.474 10.5367 104.562 10.7263 105.821 11.1072C107.504 11.6108 108.822 12.5426 109.766 13.9126C110.708 15.2728 111.179 16.9191 111.179 18.8499C111.179 20.7806 110.736 22.2356 109.871 23.5108H109.873Z" fill="#989998"/>
<path d="M52.2697 14.283C51.5109 15.5762 51.1356 17.023 51.1356 18.6399C51.1356 21.0758 51.982 23.1112 53.6748 24.7362C55.3675 26.3629 57.4934 27.1819 60.0706 27.1819C62.899 27.1819 65.2646 26.0882 67.1689 23.891L68.7658 25.0893C67.7657 26.3547 66.4664 27.3634 64.9951 28.0288C63.4842 28.7236 61.803 29.0653 59.9449 29.0653C56.4156 29.0653 53.6268 27.9045 51.577 25.5749C49.8644 23.6065 49.0098 21.2376 49.0098 18.46C49.0098 15.5288 50.0479 13.0765 52.1258 11.0787C54.2021 9.08092 56.7991 8.08203 59.9168 8.08203C61.803 8.08203 63.504 8.45314 65.0232 9.18555C66.5044 9.89835 67.7938 10.9643 68.7641 12.295L67.1673 13.5032C66.3308 12.4095 65.253 11.525 64.0033 10.925C62.7337 10.3365 61.3484 10.0308 59.9433 10.0504C58.3761 10.0406 56.8272 10.4313 55.4618 11.1997C54.1343 11.9239 53.0284 12.9898 52.268 14.283H52.2697Z" fill="#989998"/>
<path d="M89.0401 8.57812H91.0023V20.6008C91.0023 25.2519 87.1837 29.0186 82.4806 29.0284C77.7776 29.017 73.9689 25.2519 73.959 20.6008V8.57812H75.9113V20.6008C75.9113 24.1876 78.8538 27.0879 82.4806 27.0879C86.1075 27.0879 89.0401 24.1876 89.0401 20.6008V8.57812Z" fill="#989998"/>
<path d="M19.6505 0.0820312C9.19637 0.0820312 0.722656 8.46225 0.722656 18.801C0.722656 29.1398 9.19637 37.52 19.6505 37.52C30.1046 37.52 38.5783 29.1398 38.5783 18.801C38.5783 8.46225 30.103 0.0820312 19.6505 0.0820312ZM19.6505 27.2466C14.9409 27.2466 11.109 23.4571 11.109 18.7994C11.109 14.1417 14.9409 10.3521 19.6505 10.3521C24.3601 10.3521 28.192 14.1417 28.192 18.7994C28.192 23.4571 24.3601 27.2466 19.6505 27.2466ZM2.81712 18.801C2.81712 9.96958 9.80802 2.72558 18.6041 2.18935V8.33474C13.2216 8.85462 9.01454 13.3423 9.01454 18.801C9.01454 24.2598 13.2216 28.7474 18.6041 29.2673V35.4127C9.80802 34.8765 2.81712 27.6325 2.81712 18.801ZM20.6969 35.4127V29.2673C26.0793 28.7474 30.2864 24.2598 30.2864 18.801C30.2864 13.3423 26.0793 8.85462 20.6969 8.33474V2.18935C29.493 2.72558 36.4839 9.96958 36.4839 18.801C36.4839 27.6325 29.493 34.8765 20.6969 35.4127Z" fill="#989998"/>
<path d="M166.133 8.25932C166.133 9.66038 165.022 10.759 163.574 10.759C162.126 10.759 161 9.66038 161 8.25932C161 6.85825 162.142 5.78906 163.574 5.78906C165.005 5.78906 166.133 6.88768 166.133 8.25932ZM161.64 8.25932C161.64 9.35793 162.463 10.2326 163.589 10.2326C164.714 10.2326 165.491 9.35793 165.491 8.27403C165.491 7.19013 164.685 6.28606 163.574 6.28606C162.463 6.28606 161.64 7.17378 161.64 8.25932ZM163.179 9.55411H162.6V7.08386C162.828 7.03808 163.149 7.00702 163.561 7.00702C164.033 7.00702 164.245 7.08386 164.428 7.18849C164.566 7.29476 164.672 7.4893 164.672 7.73126C164.672 8.00264 164.458 8.21354 164.154 8.30346V8.33288C164.397 8.42443 164.534 8.60427 164.61 8.93451C164.688 9.31052 164.733 9.46256 164.794 9.55248H164.169C164.093 9.46093 164.047 9.23532 163.971 8.95086C163.926 8.67947 163.774 8.55849 163.453 8.55849H163.179V9.55248V9.55411ZM163.194 8.15305H163.468C163.789 8.15305 164.047 8.04679 164.047 7.79175C164.047 7.56614 163.88 7.41573 163.513 7.41573C163.361 7.41573 163.253 7.43045 163.192 7.4468V8.15469L163.194 8.15305Z" fill="#989998"/>
</g>
<defs>
<clipPath id="clip0_3291_3793">
<rect width="165.408" height="37.438" fill="white" transform="translate(0.728516 0.0976562)"/>
</clipPath>
</defs>
</svg>
