<svg width="130" height="38" viewBox="0 0 130 38" fill="none" xmlns="http://www.w3.org/2000/svg">
<path d="M25.3369 20.9755H13.8696L8.17027 13.7822L13.4127 6.57161H25.182C26.619 6.57161 27.7945 5.39607 27.7945 3.95909V2.67916C27.7945 1.24218 26.619 0.0666351 25.182 0.0666351H11.8214C11.3044 0.0666351 10.8224 0.220587 10.4157 0.482334C9.90926 0.646818 9.44803 0.963083 9.11287 1.42401L1.25579 12.2303C0.721138 12.9657 0.629759 13.8928 0.928369 14.6889C1.01046 15.0637 1.17339 15.4261 1.42677 15.7458L9.72403 26.2179C9.74633 26.2461 9.77111 26.2709 9.79434 26.2978C10.2624 27.0084 11.0662 27.4805 11.9763 27.4805H25.3369C26.7739 27.4805 27.9494 26.3049 27.9494 24.8679V23.588C27.9494 22.151 26.7739 20.9755 25.3369 20.9755Z" fill="#989998"/>
<path d="M45.1855 22.7821C45.096 22.4089 44.9259 22.0495 44.6663 21.7351L36.1643 11.4288C36.1414 11.4009 36.1163 11.3767 36.0928 11.3501C35.6105 10.6491 34.7973 10.1928 33.8879 10.2108L20.5298 10.4741C19.0931 10.5023 17.9408 11.7007 17.9693 13.1374L17.9944 14.4173C18.0229 15.8537 19.2213 17.006 20.658 16.9778L32.1229 16.7517L37.9631 23.8313L33.0782 30.8359L21.4064 31.0661C19.9697 31.0943 18.8174 32.2927 18.8459 33.7294L18.871 35.0093C18.8995 36.4457 20.0979 37.598 21.5346 37.5698L34.8571 37.3071C35.7694 37.3973 36.7052 37.007 37.2643 36.2056L44.9067 25.2466C45.4268 24.501 45.4996 23.5723 45.1855 22.7821Z" fill="#989998"/>
<path d="M34.2423 6.25781H30.3366C29.6219 6.25781 29.0371 5.67298 29.0371 4.95806V1.67211C29.0371 0.957184 29.6219 0.372356 30.3366 0.372356H34.2423C34.9573 0.372356 35.5421 0.957184 35.5421 1.67211V4.95806C35.5421 5.67298 34.9573 6.25781 34.2423 6.25781Z" fill="#989998"/>
<path d="M15.9669 37.5469H12.0612C11.3465 37.5469 10.7617 36.962 10.7617 36.2471V32.9612C10.7617 32.2462 11.3465 31.6614 12.0612 31.6614H15.9669C16.6819 31.6614 17.2667 32.2462 17.2667 32.9612V36.2471C17.2667 36.962 16.6819 37.5469 15.9669 37.5469Z" fill="#989998"/>
<path d="M54.7988 34.1696H56.3768C57.0781 34.1696 57.7307 34.104 58.3348 33.9717C58.9385 33.8397 59.4614 33.6207 59.9031 33.3147C60.3442 33.0087 60.692 32.6069 60.9451 32.1088C61.1985 31.6107 61.3252 31.0014 61.3252 30.2815C61.3252 29.6577 61.1985 29.1147 60.9451 28.6525C60.692 28.1906 60.351 27.8096 59.9226 27.5095C59.4939 27.2096 58.9905 26.9847 58.4128 26.8345C57.8345 26.6846 57.2274 26.6096 56.5911 26.6096H54.7988V34.1696ZM51.7598 24.0175H56.3182C57.4222 24.0175 58.471 24.1315 59.4648 24.3595C60.4582 24.5875 61.3252 24.9564 62.0652 25.4663C62.8058 25.9768 63.3931 26.6394 63.8284 27.4556C64.2636 28.2715 64.481 29.2618 64.481 30.4256C64.481 31.458 64.2698 32.3668 63.8479 33.1527C63.4257 33.9389 62.8576 34.599 62.1433 35.1327C61.429 35.6667 60.6044 36.0719 59.6692 36.3479C58.734 36.6239 57.7533 36.7617 56.7274 36.7617H51.7598V24.0175Z" fill="#989998"/>
<path d="M68.7446 32.3826C68.7446 33.0427 68.949 33.5767 69.3579 33.9847C69.7671 34.3927 70.3417 34.5968 71.0823 34.5968C71.823 34.5968 72.3969 34.3927 72.8064 33.9847C73.2156 33.5767 73.4201 33.0427 73.4201 32.3826C73.4201 31.7228 73.2156 31.1888 72.8064 30.7805C72.3969 30.3729 71.823 30.1688 71.0823 30.1688C70.3417 30.1688 69.7671 30.3729 69.3579 30.7805C68.949 31.1888 68.7446 31.7228 68.7446 32.3826ZM65.8223 32.3826C65.8223 31.6869 65.9586 31.0568 66.2315 30.4925C66.504 29.9287 66.8776 29.4458 67.3519 29.0437C67.8255 28.6416 68.384 28.3325 69.0271 28.1166C69.6695 27.9004 70.3544 27.7926 71.0823 27.7926C71.8096 27.7926 72.4942 27.9004 73.1376 28.1166C73.7806 28.3325 74.3385 28.6416 74.8128 29.0437C75.287 29.4458 75.6603 29.9287 75.9332 30.4925C76.2061 31.0568 76.3421 31.6869 76.3421 32.3826C76.3421 33.079 76.2061 33.7087 75.9332 34.2728C75.6603 34.8369 75.287 35.3198 74.8128 35.7218C74.3385 36.1239 73.7806 36.4327 73.1376 36.6486C72.4942 36.8649 71.8096 36.9727 71.0823 36.9727C70.3544 36.9727 69.6695 36.8649 69.0271 36.6486C68.384 36.4327 67.8255 36.1239 67.3519 35.7218C66.8776 35.3198 66.504 34.8369 66.2315 34.2728C65.9586 33.7087 65.8223 33.079 65.8223 32.3826Z" fill="#989998"/>
<path d="M78.0625 28.0135H80.868V29.2014H80.907C80.9978 29.0335 81.1276 28.8656 81.2964 28.6974C81.4649 28.5298 81.6666 28.3799 81.9004 28.2476C82.1343 28.1157 82.4004 28.0076 82.6993 27.9233C82.9979 27.8397 83.3226 27.7975 83.6732 27.7975C84.3355 27.7975 84.9231 27.9233 85.4364 28.1755C85.9493 28.4276 86.3356 28.8235 86.5955 29.3634C86.9331 28.7996 87.342 28.3979 87.8228 28.1575C88.3032 27.9174 88.8942 27.7975 89.5955 27.7975C90.2318 27.7975 90.7677 27.8967 91.2029 28.0946C91.6378 28.2925 91.9822 28.5623 92.2353 28.9043C92.4884 29.2466 92.6702 29.6487 92.7808 30.1105C92.8911 30.5727 92.9465 31.0677 92.9465 31.5955V36.7617H90.0242V31.6677C90.0242 31.2597 89.9301 30.9088 89.7417 30.6145C89.5534 30.3205 89.2188 30.1737 88.7384 30.1737C88.4005 30.1737 88.118 30.2248 87.8909 30.3264C87.6635 30.4287 87.4817 30.5696 87.3454 30.7496C87.2091 30.9295 87.1119 31.1396 87.053 31.3796C86.9948 31.62 86.9656 31.8718 86.9656 32.1357V36.7617H84.0434V32.1357C84.0434 31.9799 84.0365 31.7879 84.0238 31.5596C84.0108 31.3316 83.9656 31.1157 83.8876 30.9116C83.8098 30.7078 83.6831 30.5337 83.5075 30.3896C83.3325 30.2456 83.0757 30.1737 82.7383 30.1737C82.3614 30.1737 82.0562 30.2366 81.8227 30.3624C81.5888 30.4884 81.4101 30.6566 81.2868 30.8667C81.1632 31.0767 81.082 31.3136 81.0433 31.5776C81.0043 31.8418 80.9848 32.1178 80.9848 32.4056V36.7617H78.0625V28.0135Z" fill="#989998"/>
<path d="M100.233 32.9225C100.012 32.9225 99.7365 32.9315 99.4054 32.9495C99.0742 32.9674 98.7555 33.0189 98.4507 33.1025C98.1456 33.1868 97.8857 33.3125 97.6713 33.4804C97.4573 33.6486 97.3498 33.8828 97.3498 34.1823C97.3498 34.5066 97.4991 34.7467 97.7983 34.9025C98.097 35.0586 98.4083 35.1364 98.7332 35.1364C99.0188 35.1364 99.2948 35.1005 99.5612 35.0286C99.827 34.9564 100.064 34.8548 100.272 34.7226C100.48 34.5906 100.645 34.4227 100.769 34.2186C100.892 34.0144 100.954 33.7747 100.954 33.4984V32.9225H100.233ZM100.954 35.6587H100.915C100.59 36.1267 100.158 36.4628 99.6197 36.6666C99.0804 36.8704 98.512 36.9727 97.9151 36.9727C97.4734 36.9727 97.0481 36.9157 96.6389 36.8017C96.2297 36.6877 95.8695 36.5167 95.5575 36.2887C95.2459 36.0607 94.9993 35.7785 94.8175 35.4424C94.6357 35.1067 94.5449 34.7167 94.5449 34.2725C94.5449 33.7685 94.6453 33.3426 94.8466 32.9944C95.048 32.6465 95.3209 32.3585 95.665 32.1305C96.0089 31.9028 96.4019 31.7253 96.8437 31.5995C97.2848 31.4735 97.7426 31.3805 98.2168 31.3204C98.6911 31.2604 99.165 31.2244 99.6392 31.2123C100.113 31.2006 100.551 31.1944 100.954 31.1944C100.954 30.7146 100.769 30.3336 100.399 30.0514C100.029 29.7695 99.5906 29.6282 99.0838 29.6282C98.6031 29.6282 98.1648 29.7215 97.7689 29.9073C97.3727 30.0935 97.019 30.3484 96.7071 30.6724L95.1486 29.1964C95.6941 28.7284 96.3301 28.3774 97.0577 28.1432C97.785 27.9094 98.5384 27.7923 99.3177 27.7923C100.175 27.7923 100.879 27.8914 101.431 28.0893C101.983 28.2873 102.425 28.5784 102.756 28.9622C103.088 29.3467 103.318 29.8175 103.448 30.3754C103.578 30.9336 103.643 31.5788 103.643 32.3104V36.7564H100.954V35.6587Z" fill="#989998"/>
<path d="M105.513 28.0095H108.435V36.7578H105.513V28.0095ZM105.279 25.2555C105.279 24.8233 105.445 24.4544 105.776 24.1484C106.107 23.8423 106.507 23.6896 106.974 23.6896C107.442 23.6896 107.841 23.8423 108.172 24.1484C108.504 24.4544 108.669 24.8233 108.669 25.2555C108.669 25.6876 108.504 26.0565 108.172 26.3625C107.841 26.6686 107.442 26.8216 106.974 26.8216C106.507 26.8216 106.107 26.6686 105.776 26.3625C105.445 26.0565 105.279 25.6876 105.279 25.2555Z" fill="#989998"/>
<path d="M110.535 28.0135H113.341V29.2014H113.38C113.47 29.0335 113.6 28.8656 113.769 28.6974C113.938 28.5298 114.139 28.3799 114.373 28.2476C114.607 28.1157 114.873 28.0076 115.172 27.9233C115.471 27.8397 115.795 27.7975 116.146 27.7975C116.886 27.7975 117.483 27.9029 117.938 28.1126C118.393 28.3226 118.747 28.6138 119 28.9855C119.253 29.3575 119.425 29.7955 119.516 30.2995C119.607 30.8035 119.653 31.3499 119.653 31.9375V36.7617H116.73V32.4777C116.73 32.2256 116.721 31.9645 116.701 31.6946C116.682 31.4245 116.623 31.1755 116.526 30.9475C116.428 30.7198 116.279 30.5337 116.078 30.3896C115.876 30.2456 115.587 30.1737 115.211 30.1737C114.834 30.1737 114.529 30.2366 114.295 30.3624C114.061 30.4884 113.883 30.6566 113.759 30.8667C113.636 31.0767 113.555 31.3136 113.516 31.5776C113.477 31.8418 113.457 32.1178 113.457 32.4056V36.7617H110.535V28.0135Z" fill="#989998"/>
<path d="M127.075 30.5826C126.646 30.0907 126.081 29.8447 125.38 29.8447C125.133 29.8447 124.893 29.8986 124.659 30.0068C124.425 30.1146 124.308 30.3007 124.308 30.5646C124.308 30.7805 124.428 30.9398 124.668 31.0417C124.909 31.1439 125.214 31.2337 125.584 31.3118C125.955 31.3898 126.35 31.4735 126.772 31.5636C127.195 31.6538 127.591 31.795 127.961 31.9867C128.331 32.1788 128.636 32.4399 128.877 32.7698C129.117 33.0997 129.237 33.5408 129.237 34.0928C129.237 34.6569 129.104 35.1218 128.838 35.4877C128.571 35.8541 128.23 36.1478 127.815 36.3699C127.399 36.592 126.932 36.7478 126.412 36.8379C125.893 36.9277 125.38 36.9727 124.873 36.9727C124.211 36.9727 123.542 36.8856 122.867 36.7118C122.191 36.5381 121.62 36.2289 121.152 35.7847L122.925 33.9667C123.198 34.279 123.5 34.5156 123.831 34.6776C124.162 34.8396 124.549 34.9208 124.99 34.9208C125.328 34.9208 125.633 34.8756 125.906 34.7857C126.178 34.6956 126.315 34.5308 126.315 34.2907C126.315 34.0628 126.194 33.8921 125.955 33.7778C125.714 33.6638 125.409 33.5678 125.039 33.4897C124.668 33.4116 124.272 33.3277 123.85 33.2376C123.428 33.1477 123.032 33.0127 122.662 32.8327C122.292 32.6527 121.987 32.3978 121.746 32.0676C121.506 31.7377 121.386 31.2966 121.386 30.7446C121.386 30.2289 121.5 29.7847 121.727 29.4126C121.954 29.0406 122.253 28.7349 122.623 28.4945C122.993 28.2547 123.418 28.0779 123.899 27.9636C124.379 27.8496 124.866 27.7926 125.36 27.7926C125.984 27.7926 126.613 27.8765 127.25 28.0444C127.886 28.2126 128.425 28.5125 128.867 28.9446L127.075 30.5826Z" fill="#989998"/>
<path d="M51.7949 1.09296H64.4595V4.88444H55.9024V8.35995H63.9856V12.1514H55.9024V15.9429H64.9334V19.7344H51.7949V1.09296Z" fill="#989998"/>
<path d="M72.332 15.9429H74.4647C75.4126 15.9429 76.2948 15.8466 77.111 15.6533C77.9269 15.4603 78.6335 15.14 79.2307 14.6924C79.827 14.2448 80.2969 13.6569 80.6389 12.9283C80.9815 12.2001 81.1528 11.3089 81.1528 10.2557C81.1528 9.34313 80.9815 8.54891 80.6389 7.87301C80.2969 7.19742 79.8363 6.63985 79.2567 6.20092C78.6775 5.7623 77.9969 5.43333 77.2163 5.21371C76.4348 4.9944 75.6143 4.88444 74.7544 4.88444H72.332V15.9429ZM68.2246 1.09296H74.3858C75.8776 1.09296 77.295 1.26023 78.6378 1.59323C79.9807 1.92684 81.1528 2.46675 82.153 3.21266C83.1538 3.95887 83.9475 4.92842 84.5357 6.12193C85.1239 7.31575 85.4179 8.76388 85.4179 10.4663C85.4179 11.9761 85.1323 13.3059 84.562 14.4554C83.9917 15.6053 83.2235 16.5708 82.2583 17.3517C81.2928 18.1329 80.1783 18.7252 78.9145 19.1288C77.6506 19.5327 76.3252 19.7344 74.9387 19.7344H68.2246V1.09296Z" fill="#989998"/>
<path d="M88.2109 1.09296H93.7928L101.718 14.0472H101.77V1.09296H105.878V19.7344H100.507L92.371 6.46422H92.3184V19.7344H88.2109V1.09296Z" fill="#989998"/>
<path d="M118.884 5.65453C118.551 5.23326 118.098 4.92195 117.528 4.71967C116.958 4.51833 116.418 4.41704 115.909 4.41704C115.61 4.41704 115.303 4.45235 114.988 4.52236C114.671 4.59267 114.373 4.70264 114.092 4.85163C113.811 5.00094 113.583 5.19825 113.408 5.4439C113.232 5.68985 113.144 5.98814 113.144 6.3391C113.144 6.90101 113.355 7.33096 113.776 7.62926C114.198 7.92787 114.728 8.18218 115.369 8.39282C116.01 8.60346 116.699 8.81409 117.436 9.02473C118.173 9.23537 118.862 9.53398 119.503 9.91994C120.143 10.3062 120.675 10.8241 121.096 11.4734C121.517 12.123 121.728 12.9918 121.728 14.08C121.728 15.1159 121.535 16.0198 121.149 16.792C120.762 17.5645 120.24 18.2051 119.582 18.7141C118.924 19.2233 118.16 19.6006 117.291 19.8462C116.423 20.0919 115.505 20.2148 114.54 20.2148C113.328 20.2148 112.205 20.0305 111.17 19.6619C110.134 19.2933 109.169 18.6967 108.273 17.8715L111.196 14.6593C111.617 15.2212 112.148 15.6558 112.789 15.9628C113.43 16.27 114.092 16.4234 114.777 16.4234C115.11 16.4234 115.448 16.384 115.791 16.305C116.133 16.2257 116.44 16.1074 116.712 15.9494C116.984 15.7915 117.203 15.5898 117.37 15.3439C117.537 15.0982 117.62 14.8086 117.62 14.475C117.62 13.9134 117.405 13.4704 116.975 13.1455C116.545 12.8209 116.005 12.5442 115.356 12.3159C114.707 12.0883 114.004 11.8597 113.25 11.6314C112.495 11.4034 111.792 11.0961 111.143 10.7098C110.494 10.3239 109.954 9.81462 109.524 9.18271C109.094 8.5508 108.879 7.71723 108.879 6.68139C108.879 5.68086 109.076 4.80331 109.471 4.04842C109.867 3.29384 110.393 2.66193 111.051 2.15269C111.709 1.64375 112.469 1.26212 113.328 1.0075C114.189 0.753185 115.075 0.625565 115.988 0.625565C117.041 0.625565 118.059 0.774868 119.042 1.07317C120.025 1.37178 120.912 1.87235 121.702 2.57396L118.884 5.65453Z" fill="#989998"/>
<path d="M127.495 19.582H124.8C124.263 19.582 123.824 19.1428 123.824 18.606V15.9117C123.824 15.3749 124.263 14.9356 124.8 14.9356H127.495C128.031 14.9356 128.471 15.3749 128.471 15.9117V18.606C128.471 19.1428 128.031 19.582 127.495 19.582Z" fill="#989998"/>
</svg>
