<svg width="160" height="29" viewBox="0 0 160 29" fill="none" xmlns="http://www.w3.org/2000/svg">
<g clip-path="url(#clip0_3291_3682)">
<mask id="mask0_3291_3682" style="mask-type:luminance" maskUnits="userSpaceOnUse" x="0" y="0" width="160" height="29">
<path d="M159.314 0.324219H0.523438V28.8096H159.314V0.324219Z" fill="white"/>
</mask>
<g mask="url(#mask0_3291_3682)">
<path d="M10.8283 0.324219L0.523438 10.6329L18.6935 10.6329V28.8096L28.9984 18.501V0.324219H10.8283Z" fill="#989998"/>
<path d="M39.3027 18.5V0.324219H52.4619V3.23336H42.4179V7.90574H50.5154V10.7113H42.4179V15.5655H52.4619V18.5H39.3027Z" fill="#989998"/>
<path d="M57.4827 18.5068L53.9004 5.39453H56.8855L59.6109 15.9614H61.4284L64.1536 5.39453H67.1378L63.582 18.5068H57.4827Z" fill="#989998"/>
<path d="M68.5957 11.9286C68.5957 8.03424 71.5798 5.04688 75.4737 5.04688C79.4185 5.04688 82.2738 8.05961 82.2738 11.8757V12.6559H71.5026C71.7616 14.7067 73.4491 16.2902 75.4737 16.2902C78.1991 16.2902 79.1068 14.343 79.1068 14.343H82.092C82.092 14.343 80.7943 18.8357 75.4737 18.8357C71.5798 18.8357 68.5957 15.823 68.5957 11.9286ZM79.2368 10.6305C78.9778 9.01945 77.5502 7.59237 75.4737 7.59237C73.3974 7.59237 71.9697 9.01945 71.6063 10.6305H79.2368Z" fill="#989998"/>
<path d="M84.8223 18.503V5.39078H87.6775V7.39081H87.7557C87.7557 7.39081 88.638 5.18359 91.4414 5.18359H92.9991V7.98702H91.2333C89.105 7.98702 87.6775 9.41622 87.6775 11.4924V18.503H84.8223Z" fill="#989998"/>
<path d="M94.3262 14.343H97.3104C97.3104 14.343 97.9603 16.3431 100.607 16.3431C102.632 16.3431 103.333 15.6411 103.333 14.732C103.333 12.3176 94.9751 13.954 94.9751 8.89048C94.9751 6.86509 96.7916 5.04688 100.217 5.04688C105.435 5.04688 106.136 9.15053 106.136 9.15053H103.203C103.203 9.15053 102.684 7.51414 100.217 7.51414C98.6091 7.51414 97.8821 8.24143 97.8821 8.89048C97.8821 11.2795 106.266 9.66852 106.266 14.732C106.266 16.861 104.319 18.8357 100.607 18.8357C95.2339 18.8357 94.3262 14.343 94.3262 14.343Z" fill="#989998"/>
<path d="M107.961 11.9286C107.961 8.03424 110.945 5.04688 114.761 5.04688C120.212 5.04688 121.251 9.92856 121.251 9.92856H118.343C118.343 9.92856 117.564 7.59237 114.761 7.59237C112.633 7.59237 110.868 9.33235 110.868 11.9286C110.868 14.5501 112.685 16.2902 114.761 16.2902C117.616 16.2902 118.395 13.8229 118.395 13.8229H121.328C121.328 13.8229 120.341 18.8357 114.761 18.8357C110.945 18.8357 107.961 15.823 107.961 11.9286Z" fill="#989998"/>
<path d="M123.354 14.7849C123.354 12.5248 125.196 10.6305 128.597 10.6305H132.698V10.1886C132.698 8.55222 131.659 7.51414 129.842 7.51414C127.376 7.51414 126.779 9.41058 126.779 9.41058H123.872C123.872 9.41058 124.651 5.04688 129.842 5.04688C133.477 5.04688 135.552 7.07227 135.552 10.1886V18.4974H132.698V16.5503H132.62C132.62 16.5503 131.347 18.8357 128.025 18.8357C125.041 18.8357 123.354 17.1211 123.354 14.7849ZM132.698 12.7067H128.752C127.117 12.7067 126.26 13.565 126.26 14.5501C126.26 15.5629 127.039 16.3431 128.804 16.3431C131.192 16.3431 132.698 14.7849 132.698 12.7067Z" fill="#989998"/>
<path d="M138.676 18.5V0.324219H141.531V15.9545H144.516V18.5H138.676Z" fill="#989998"/>
<path d="M145.637 11.9286C145.637 8.03424 148.621 5.04688 152.515 5.04688C156.46 5.04688 159.314 8.05961 159.314 11.8757V12.6559H148.543C148.802 14.7067 150.49 16.2902 152.515 16.2902C155.24 16.2902 156.148 14.343 156.148 14.343H159.133C159.133 14.343 157.836 18.8357 152.515 18.8357C148.621 18.8357 145.637 15.823 145.637 11.9286ZM156.277 10.6305C156.018 9.01945 154.592 7.59237 152.515 7.59237C150.439 7.59237 149.011 9.01945 148.647 10.6305H156.277Z" fill="#989998"/>
</g>
</g>
<defs>
<clipPath id="clip0_3291_3682">
<rect width="159.044" height="28.4854" fill="white" transform="translate(0.521484 0.324219)"/>
</clipPath>
</defs>
</svg>
