<svg width="133" height="67" viewBox="0 0 133 67" fill="none" xmlns="http://www.w3.org/2000/svg">
<path d="M25.2525 37.1298C26.6029 36.8364 27.6483 36.899 28.3889 37.3177C29.1294 37.7364 29.608 38.4444 29.8247 39.4417C29.9232 39.8949 29.9455 40.3423 29.8915 40.7838C29.8412 41.2194 29.6905 41.6294 29.4392 42.0138C29.1869 42.3934 28.818 42.7309 28.3326 43.0263C27.8519 43.3206 27.2298 43.5507 26.4664 43.7166L25.3499 43.9592L26.2021 47.8813L24.4843 48.2546L22.2107 37.7907L25.2525 37.1298ZM25.4475 38.5789L24.2379 38.8418L25.0388 42.5277L25.9764 42.324C26.5156 42.2068 26.9602 42.0453 27.3102 41.8393C27.6591 41.6286 27.9014 41.3636 28.0369 41.0443C28.1723 40.7251 28.1909 40.3388 28.0924 39.8855C27.9607 39.2795 27.679 38.8686 27.2473 38.6526C26.8204 38.4355 26.2205 38.411 25.4475 38.5789ZM34.7328 37.5732C35.439 37.4198 36.0766 37.4337 36.6456 37.6148C37.2146 37.796 37.6932 38.1242 38.0812 38.5995C38.4693 39.0748 38.7443 39.6847 38.906 40.429L39.1019 41.3308L33.8128 42.4801C33.9988 43.2441 34.3325 43.7912 34.814 44.1213C35.3002 44.4504 35.8988 44.5377 36.6097 44.3832C37.1155 44.2733 37.5584 44.1271 37.9385 43.9446C38.3223 43.7563 38.7082 43.52 39.0961 43.2358L39.3932 44.6029C39.0376 44.875 38.6639 45.0986 38.2722 45.2737C37.8806 45.4487 37.3984 45.5984 36.8259 45.7228C36.0481 45.8918 35.3307 45.8903 34.6738 45.7183C34.0205 45.5404 33.4616 45.1872 32.9969 44.6585C32.5371 44.1289 32.2102 43.4179 32.0163 42.5256C31.8235 41.6381 31.81 40.8516 31.9758 40.166C32.1416 39.4804 32.4613 38.9162 32.9347 38.4736C33.4082 38.0309 34.0075 37.7308 34.7328 37.5732ZM35.008 38.8401C34.4784 38.9551 34.0863 39.2202 33.8317 39.6353C33.5819 40.0494 33.5004 40.5942 33.5873 41.2699L37.1945 40.4861C37.1037 40.0911 36.9607 39.7549 36.7655 39.4775C36.5751 39.1991 36.3324 39.002 36.0374 38.8862C35.7472 38.7694 35.4041 38.754 35.008 38.8401ZM44.0372 35.5515C44.1708 35.5225 44.3179 35.498 44.4784 35.4781C44.639 35.4583 44.7791 35.4478 44.8988 35.4468L45.0835 37.0556C44.9771 37.0487 44.8484 37.0542 44.6973 37.072C44.5511 37.0888 44.4207 37.1096 44.3062 37.1345C44.0056 37.1998 43.7302 37.3121 43.48 37.4714C43.2287 37.626 43.0199 37.8262 42.8535 38.0723C42.6861 38.3135 42.5748 38.595 42.5198 38.9168C42.4648 39.2385 42.4798 39.595 42.5648 39.9863L43.4653 44.1303L41.7762 44.4973L40.0546 36.5743L41.3716 36.2881L41.9038 37.634L41.9826 37.6169C42.0789 37.3012 42.2185 37.001 42.4015 36.7164C42.5845 36.4318 42.8113 36.1877 43.0818 35.984C43.3561 35.7745 43.6745 35.6303 44.0372 35.5515ZM50.6179 35.6207L48.6926 36.039L50.1358 42.6809L48.4539 43.0464L47.0107 36.4045L45.7152 36.686L45.5395 35.8772L46.7276 35.1019L46.6079 34.5508C46.4617 33.878 46.4506 33.3208 46.5745 32.8791C46.7031 32.4364 46.9468 32.0862 47.3055 31.8283C47.668 31.5647 48.1259 31.3728 48.6794 31.2525C49.0421 31.1737 49.3804 31.1327 49.6945 31.1294C50.0075 31.1213 50.2749 31.1332 50.4967 31.1649L50.3369 32.5338C50.1633 32.5165 49.9716 32.5082 49.7619 32.5088C49.5511 32.5047 49.3312 32.5275 49.1022 32.5772C48.7205 32.6602 48.4649 32.8406 48.3354 33.1186C48.2107 33.3955 48.1981 33.763 48.2976 34.2211L48.4143 34.7579L50.3395 34.3395L50.6179 35.6207ZM54.8159 33.2095C55.5221 33.056 56.1597 33.0699 56.7287 33.2511C57.2977 33.4322 57.7763 33.7605 58.1644 34.2358C58.5525 34.7111 58.8274 35.3209 58.9891 36.0653L59.1851 36.9671L53.8959 38.1163C54.0819 38.8804 54.4156 39.4275 54.8971 39.7576C55.3833 40.0866 55.9819 40.1739 56.6929 40.0195C57.1986 39.9096 57.6416 39.7634 58.0216 39.5808C58.4054 39.3925 58.7913 39.1563 59.1793 38.8721L59.4763 40.2391C59.1207 40.5113 58.7471 40.7349 58.3554 40.9099C57.9637 41.085 57.4816 41.2347 56.909 41.3591C56.1312 41.5281 55.4139 41.5266 54.7569 41.3545C54.1037 41.1767 53.5447 40.8234 53.0801 40.2948C52.6202 39.7651 52.2933 39.0542 52.0995 38.1619C51.9066 37.2744 51.8931 36.4878 52.059 35.8022C52.2248 35.1166 52.5444 34.5525 53.0179 34.1099C53.4913 33.6672 54.0907 33.3671 54.8159 33.2095ZM55.0912 34.4763C54.5616 34.5914 54.1694 34.8565 53.9149 35.2716C53.665 35.6856 53.5836 36.2305 53.6704 36.9061L57.2777 36.1224C57.1868 35.7274 57.0438 35.3912 56.8486 35.1138C56.6582 34.8354 56.4155 34.6383 56.1206 34.5225C55.8303 34.4057 55.4872 34.3903 55.0912 34.4763ZM65.0825 39.5831C64.3334 39.7459 63.6529 39.7414 63.0409 39.5695C62.4289 39.3977 61.9097 39.0433 61.4833 38.5064C61.0568 37.9695 60.743 37.2382 60.5419 36.3125C60.3324 35.3487 60.3236 34.5261 60.5154 33.8449C60.7071 33.1636 61.0577 32.6153 61.567 32.1998C62.0811 31.7833 62.7103 31.4942 63.4547 31.3324C63.9271 31.2298 64.3645 31.1847 64.7669 31.1972C65.1731 31.2039 65.5243 31.245 65.8206 31.3205L65.6119 32.775C65.2949 32.7189 64.975 32.6835 64.652 32.6687C64.329 32.654 64.0267 32.6772 63.7452 32.7384C63.2823 32.8389 62.9181 33.0255 62.6526 33.298C62.3918 33.5696 62.2291 33.9247 62.1645 34.3635C62.1048 34.8012 62.1402 35.3206 62.2708 35.9218C62.3973 36.504 62.5804 36.9788 62.8202 37.3465C63.0589 37.7093 63.3509 37.9607 63.6961 38.1005C64.0402 38.2356 64.4318 38.2555 64.8708 38.1601C65.305 38.0657 65.6824 37.9288 66.0032 37.7491C66.3239 37.5695 66.6188 37.363 66.8879 37.1297L67.2052 38.5898C66.9419 38.8268 66.6473 39.0233 66.3214 39.179C65.9965 39.3396 65.5835 39.4743 65.0825 39.5831ZM71.8298 36.693C72.0492 36.6453 72.2622 36.579 72.4686 36.4942C72.674 36.4046 72.8587 36.312 73.0229 36.2164L73.2997 37.4904C73.1312 37.6119 72.9053 37.7335 72.6219 37.855C72.3385 37.9765 72.037 38.072 71.7173 38.1415C71.2688 38.239 70.8495 38.2526 70.4595 38.1824C70.0685 38.1075 69.728 37.9092 69.4383 37.5874C69.1485 37.2656 68.9331 36.7802 68.7921 36.1313L67.8668 31.8728L66.7861 32.1076L66.6228 31.3561L67.6532 30.5101L67.8357 28.6941L68.895 28.4639L69.2775 30.2246L71.5464 29.7316L71.8247 31.0128L69.5559 31.5058L70.4765 35.7428C70.5636 36.1436 70.7286 36.4201 70.9715 36.5722C71.2145 36.7242 71.5005 36.7645 71.8298 36.693ZM83.5839 33.0447C83.6969 33.5648 83.6658 34.0313 83.4907 34.4441C83.3156 34.8569 83.0049 35.2092 82.5586 35.501C82.1161 35.7871 81.5441 36.0063 80.8427 36.1587C80.2892 36.279 79.8033 36.3421 79.3848 36.348C78.9722 36.3578 78.5717 36.3199 78.1834 36.2343L77.8677 34.7814C78.283 34.8761 78.7385 34.937 79.2341 34.9642C79.7344 34.9904 80.1946 34.9579 80.6144 34.8667C81.1679 34.7464 81.5477 34.5739 81.7537 34.3493C81.9587 34.1199 82.0296 33.8596 81.9663 33.5686C81.929 33.3968 81.8457 33.255 81.7165 33.1432C81.591 33.0255 81.3791 32.9242 81.0808 32.8391C80.7862 32.7482 80.3614 32.6556 79.8062 32.5614C79.2617 32.4698 78.7959 32.3612 78.4088 32.2354C78.0217 32.1097 77.7093 31.9252 77.4716 31.6821C77.2328 31.4341 77.0652 31.0883 76.9688 30.6446C76.8164 29.9432 76.9776 29.351 77.4523 28.8681C77.9307 28.3794 78.628 28.0355 79.5441 27.8365C80.0308 27.7307 80.4997 27.6813 80.9509 27.6882C81.4059 27.6893 81.8611 27.7377 82.3167 27.8336L82.0623 29.2155C81.6702 29.1358 81.282 29.0853 80.8976 29.0639C80.5169 29.0367 80.1405 29.0635 79.7683 29.1444C79.3341 29.2387 79.017 29.3776 78.817 29.5609C78.6218 29.7433 78.5511 29.9585 78.605 30.2066C78.6455 30.3927 78.7346 30.5382 78.8723 30.6432C79.01 30.7482 79.2265 30.8361 79.5217 30.9068C79.8217 30.9766 80.2333 31.0545 80.7567 31.1407C81.2685 31.2193 81.7179 31.3215 82.105 31.4473C82.4958 31.5672 82.8154 31.7501 83.0637 31.996C83.312 32.2419 83.4854 32.5914 83.5839 33.0447ZM88.5776 33.0539C88.7971 33.0063 89.0101 32.94 89.2165 32.8552C89.4219 32.7656 89.6066 32.673 89.7707 32.5773L90.0475 33.8513C89.8791 33.9729 89.6532 34.0944 89.3698 34.216C89.0864 34.3375 88.7848 34.433 88.4651 34.5025C88.0166 34.5999 87.5974 34.6136 87.2074 34.5434C86.8163 34.4685 86.4759 34.2701 86.1862 33.9483C85.8964 33.6265 85.681 33.1412 85.54 32.4923L84.6147 28.2337L83.5339 28.4686L83.3706 27.717L84.401 26.8711L84.5836 25.0551L85.6428 24.8249L86.0254 26.5856L88.2942 26.0926L88.5726 27.3737L86.3038 27.8667L87.2244 32.1038C87.3115 32.5046 87.4765 32.781 87.7194 32.9331C87.9623 33.0852 88.2484 33.1255 88.5776 33.0539ZM93.0426 24.9035C94.0446 24.6857 94.8491 24.7433 95.4561 25.0761C96.0678 25.4079 96.4758 26.0437 96.68 26.9837L97.8386 32.3158L96.6434 32.5756L96.0771 31.5219L96.0199 31.5343C95.8578 31.8693 95.6777 32.1558 95.4796 32.3937C95.2814 32.6316 95.0348 32.8301 94.7396 32.9892C94.4501 33.152 94.0812 33.2822 93.6327 33.3796C93.1603 33.4823 92.7193 33.4881 92.3098 33.3972C91.8993 33.3016 91.5478 33.0981 91.2553 32.7869C90.9629 32.4757 90.757 32.0457 90.6378 31.497C90.4605 30.6811 90.6303 30.0021 91.1471 29.4601C91.6687 28.9171 92.5403 28.4903 93.762 28.1799L95.1253 27.8312L95.0351 27.4161C94.9159 26.8674 94.702 26.5041 94.3936 26.3263C94.0899 26.1474 93.7066 26.1083 93.2438 26.2089C92.8478 26.2949 92.4761 26.4356 92.1288 26.631C91.7815 26.8264 91.4495 27.0459 91.1327 27.2897L90.3306 26.2198C90.6725 25.9306 91.0752 25.6682 91.5386 25.4326C92.0069 25.196 92.5082 25.0196 93.0426 24.9035ZM95.3483 28.892L94.3326 29.1502C93.4991 29.3613 92.9409 29.6325 92.6581 29.9638C92.3753 30.295 92.2826 30.6849 92.3801 31.1334C92.4651 31.5247 92.6442 31.7856 92.9174 31.9161C93.1896 32.0418 93.5165 32.0633 93.8982 31.9803C94.4804 31.8538 94.9265 31.5845 95.2367 31.1723C95.5506 30.7543 95.6376 30.2233 95.4976 29.5791L95.3483 28.892ZM102.454 22.8584C102.588 22.8294 102.735 22.8049 102.896 22.785C103.056 22.7651 103.196 22.7547 103.316 22.7537L103.501 24.3625C103.394 24.3556 103.266 24.3611 103.114 24.3789C102.968 24.3957 102.838 24.4165 102.723 24.4414C102.423 24.5067 102.147 24.619 101.897 24.7783C101.646 24.9329 101.437 25.1331 101.271 25.3791C101.103 25.6204 100.992 25.9019 100.937 26.2236C100.882 26.5454 100.897 26.9019 100.982 27.2932L101.882 31.4372L100.193 31.8042L98.4718 23.8812L99.7887 23.595L100.321 24.9409L100.4 24.9238C100.496 24.6081 100.636 24.3079 100.819 24.0233C101.002 23.7387 101.228 23.4946 101.499 23.2909C101.773 23.0814 102.092 22.9372 102.454 22.8584ZM109.205 28.572C109.424 28.5243 109.637 28.4581 109.844 28.3732C110.049 28.2836 110.234 28.191 110.398 28.0954L110.675 29.3694C110.506 29.4909 110.28 29.6125 109.997 29.734C109.713 29.8556 109.412 29.9511 109.092 30.0205C108.644 30.118 108.224 30.1316 107.834 30.0615C107.443 29.9865 107.103 29.7882 106.813 29.4664C106.523 29.1446 106.308 28.6593 106.167 28.0103L105.242 23.7518L104.161 23.9866L103.998 23.2351L105.028 22.3891L105.211 20.5731L106.27 20.343L106.652 22.1036L108.921 21.6107L109.2 22.8918L106.931 23.3848L107.852 27.6218C107.939 28.0227 108.104 28.2991 108.347 28.4512C108.589 28.6033 108.875 28.6435 109.205 28.572Z" fill="white"/>
<rect y="26.9688" width="127" height="40" rx="20" transform="rotate(-12.2589 0 26.9688)" stroke="#3463F8" stroke-width="2"/>
</svg>
