<svg width="156" height="43" viewBox="0 0 156 43" fill="none" xmlns="http://www.w3.org/2000/svg">
<path d="M27.0215 27.6016H20.957V16.8936H27.0215V18.373H22.7148V21.2808H26.7505V22.7529H22.7148V26.1147H27.0215V27.6016ZM30.9546 23.4561L28.2446 19.4937H30.2075L32.0605 22.3428L33.9209 19.4937H35.8765L33.1519 23.4561L36.0156 27.6016H34.0454L32.0605 24.562L30.0684 27.6016H28.1128L30.9546 23.4561ZM40.6885 27.748C39.9219 27.748 39.2578 27.5991 38.6963 27.3013C38.1348 27.0034 37.7026 26.5469 37.3999 25.9316C37.0972 25.3164 36.9458 24.5352 36.9458 23.5879C36.9458 22.6016 37.1118 21.7959 37.4438 21.1709C37.7759 20.5459 38.2349 20.0845 38.8208 19.7866C39.4116 19.4888 40.0879 19.3398 40.8496 19.3398C41.333 19.3398 41.77 19.3887 42.1606 19.4863C42.5562 19.5791 42.8906 19.6938 43.1641 19.8306L42.6514 21.2075C42.3535 21.0855 42.0483 20.9829 41.7358 20.8999C41.4233 20.8169 41.123 20.7754 40.835 20.7754C40.3613 20.7754 39.9658 20.8804 39.6484 21.0903C39.3359 21.3003 39.1016 21.6128 38.9453 22.0278C38.7939 22.4429 38.7183 22.958 38.7183 23.5732C38.7183 24.1689 38.7964 24.6719 38.9526 25.082C39.1089 25.4873 39.3408 25.7949 39.6484 26.0049C39.9561 26.21 40.3345 26.3125 40.7837 26.3125C41.228 26.3125 41.626 26.2588 41.9775 26.1514C42.3291 26.0439 42.6611 25.9048 42.9736 25.7339V27.228C42.666 27.4038 42.3364 27.5332 41.9849 27.6162C41.6333 27.7041 41.2012 27.748 40.6885 27.748ZM46.6064 27.6016H44.8779V16.2051H46.6064V27.6016ZM56.1353 19.4937V27.6016H54.7803L54.5459 26.5103H54.4507C54.2798 26.7886 54.0625 27.0205 53.7988 27.2061C53.5352 27.3867 53.2422 27.521 52.9199 27.6089C52.5977 27.7017 52.2583 27.748 51.9019 27.748C51.2915 27.748 50.769 27.6455 50.3345 27.4404C49.9048 27.2305 49.5752 26.9082 49.3457 26.4736C49.1162 26.0391 49.0015 25.4775 49.0015 24.7891V19.4937H50.73V24.4668C50.73 25.0967 50.8569 25.5679 51.1108 25.8804C51.3696 26.1929 51.77 26.3491 52.312 26.3491C52.8345 26.3491 53.2495 26.2417 53.5571 26.0269C53.8648 25.812 54.082 25.4946 54.209 25.0747C54.3408 24.6548 54.4067 24.1396 54.4067 23.5293V19.4937H56.1353ZM64.0527 25.2871C64.0527 25.8193 63.9233 26.2686 63.6646 26.6348C63.4058 27.001 63.0273 27.2793 62.5293 27.4697C62.0361 27.6553 61.4307 27.748 60.7129 27.748C60.1465 27.748 59.6582 27.7065 59.2481 27.6235C58.8428 27.5454 58.4595 27.4233 58.0981 27.2573V25.7705C58.4839 25.9512 58.916 26.1074 59.3945 26.2393C59.8779 26.3711 60.3345 26.437 60.7642 26.437C61.3306 26.437 61.7383 26.3491 61.9873 26.1733C62.2363 25.9927 62.3608 25.7534 62.3608 25.4556C62.3608 25.2798 62.3096 25.1235 62.207 24.9868C62.1094 24.8452 61.9238 24.7012 61.6504 24.5547C61.3818 24.4033 60.9863 24.2227 60.4639 24.0127C59.9512 23.8076 59.519 23.6025 59.1675 23.3975C58.8159 23.1924 58.5498 22.9458 58.3691 22.6577C58.1885 22.3647 58.0981 21.9912 58.0981 21.5371C58.0981 20.8193 58.3814 20.2749 58.9478 19.9038C59.519 19.5278 60.2734 19.3398 61.2109 19.3398C61.709 19.3398 62.1777 19.3911 62.6172 19.4937C63.0615 19.5913 63.4961 19.7354 63.9209 19.9258L63.3789 21.2222C63.0127 21.061 62.644 20.9292 62.273 20.8267C61.9067 20.7192 61.5332 20.6655 61.1523 20.6655C60.708 20.6655 60.3687 20.7339 60.1343 20.8706C59.9048 21.0073 59.79 21.2026 59.79 21.4565C59.79 21.647 59.8462 21.8081 59.9585 21.9399C60.0708 22.0718 60.2637 22.2036 60.5371 22.3355C60.8154 22.4673 61.2012 22.6309 61.6943 22.8262C62.1777 23.0117 62.5952 23.207 62.9468 23.4121C63.3032 23.6123 63.5767 23.8589 63.7671 24.1519C63.9575 24.4448 64.0527 24.8232 64.0527 25.2871ZM67.6343 19.4937V27.6016H65.9131V19.4937H67.6343ZM66.7847 16.3882C67.0483 16.3882 67.2754 16.459 67.4658 16.6006C67.6611 16.7422 67.7588 16.9863 67.7588 17.333C67.7588 17.6748 67.6611 17.9189 67.4658 18.0654C67.2754 18.207 67.0483 18.2778 66.7847 18.2778C66.5112 18.2778 66.2793 18.207 66.0889 18.0654C65.9033 17.9189 65.8106 17.6748 65.8106 17.333C65.8106 16.9863 65.9033 16.7422 66.0889 16.6006C66.2793 16.459 66.5112 16.3882 66.7847 16.3882ZM71.9556 27.6016L68.8721 19.4937H70.6958L72.3657 24.2544C72.4732 24.5571 72.5708 24.8843 72.6587 25.2358C72.7466 25.5874 72.8076 25.8828 72.8418 26.1221H72.9004C72.9346 25.873 73.0005 25.5752 73.0982 25.2285C73.1958 24.877 73.2959 24.5522 73.3984 24.2544L75.0684 19.4937H76.8848L73.8013 27.6016H71.9556ZM81.3452 19.3398C82.0679 19.3398 82.688 19.4888 83.2056 19.7866C83.7232 20.0845 84.1211 20.5068 84.3994 21.0537C84.6777 21.6006 84.8169 22.2549 84.8169 23.0166V23.9395H79.4043C79.4238 24.7256 79.6338 25.3311 80.0342 25.7559C80.4395 26.1807 81.0059 26.3931 81.7334 26.3931C82.251 26.3931 82.7149 26.3442 83.125 26.2466C83.54 26.144 83.9673 25.9951 84.4067 25.7998V27.1987C84.0015 27.3892 83.5889 27.5283 83.169 27.6162C82.749 27.7041 82.2461 27.748 81.6602 27.748C80.8643 27.748 80.1636 27.5942 79.5581 27.2866C78.9575 26.9741 78.4863 26.5103 78.1445 25.895C77.8076 25.2798 77.6392 24.5156 77.6392 23.6025C77.6392 22.6943 77.793 21.9229 78.1006 21.2881C78.4082 20.6533 78.8403 20.1699 79.397 19.8379C79.9536 19.5059 80.603 19.3398 81.3452 19.3398ZM81.3452 20.6362C80.8032 20.6362 80.3638 20.812 80.0269 21.1636C79.6948 21.5151 79.4995 22.0303 79.4409 22.709H83.1323C83.1274 22.3037 83.0591 21.9448 82.9273 21.6323C82.8003 21.3198 82.605 21.0757 82.3413 20.8999C82.0825 20.7241 81.7505 20.6362 81.3452 20.6362ZM93.9209 27.748C93.1543 27.748 92.4902 27.5991 91.9287 27.3013C91.3672 27.0034 90.9351 26.5469 90.6323 25.9316C90.3296 25.3164 90.1782 24.5352 90.1782 23.5879C90.1782 22.6016 90.3442 21.7959 90.6763 21.1709C91.0083 20.5459 91.4673 20.0845 92.0532 19.7866C92.6441 19.4888 93.3203 19.3398 94.082 19.3398C94.5654 19.3398 95.0025 19.3887 95.3931 19.4863C95.7886 19.5791 96.1231 19.6938 96.3965 19.8306L95.8838 21.2075C95.5859 21.0855 95.2808 20.9829 94.9683 20.8999C94.6558 20.8169 94.3555 20.7754 94.0674 20.7754C93.5938 20.7754 93.1983 20.8804 92.8809 21.0903C92.5684 21.3003 92.334 21.6128 92.1777 22.0278C92.0264 22.4429 91.9507 22.958 91.9507 23.5732C91.9507 24.1689 92.0288 24.6719 92.1851 25.082C92.3413 25.4873 92.5733 25.7949 92.8809 26.0049C93.1885 26.21 93.5669 26.3125 94.0161 26.3125C94.4605 26.3125 94.8584 26.2588 95.21 26.1514C95.5615 26.0439 95.8936 25.9048 96.2061 25.7339V27.228C95.8984 27.4038 95.5689 27.5332 95.2173 27.6162C94.8657 27.7041 94.4336 27.748 93.9209 27.748ZM99.8316 16.2051V19.0688C99.8316 19.3667 99.8218 19.6572 99.8023 19.9404C99.7876 20.2236 99.7705 20.4434 99.751 20.5996H99.8462C100.017 20.3164 100.227 20.0845 100.476 19.9038C100.725 19.7183 101.003 19.5791 101.311 19.4863C101.624 19.3936 101.956 19.3472 102.307 19.3472C102.927 19.3472 103.455 19.4521 103.889 19.6621C104.324 19.8672 104.656 20.187 104.885 20.6216C105.12 21.0562 105.237 21.6201 105.237 22.3135V27.6016H103.516V22.6357C103.516 22.0059 103.386 21.5347 103.127 21.2222C102.869 20.9048 102.468 20.7461 101.926 20.7461C101.404 20.7461 100.989 20.856 100.681 21.0757C100.378 21.2905 100.161 21.6104 100.029 22.0352C99.8975 22.4551 99.8316 22.9678 99.8316 23.5732V27.6016H98.1104V16.2051H99.8316ZM114.824 23.5293C114.824 24.2031 114.736 24.8013 114.561 25.3237C114.385 25.8462 114.128 26.2881 113.792 26.6494C113.455 27.0059 113.049 27.2793 112.576 27.4697C112.102 27.6553 111.567 27.748 110.972 27.748C110.415 27.748 109.905 27.6553 109.441 27.4697C108.977 27.2793 108.574 27.0059 108.232 26.6494C107.896 26.2881 107.634 25.8462 107.449 25.3237C107.263 24.8013 107.17 24.2031 107.17 23.5293C107.17 22.6357 107.324 21.8789 107.632 21.2588C107.944 20.6338 108.389 20.1577 108.965 19.8306C109.541 19.5034 110.227 19.3398 111.023 19.3398C111.77 19.3398 112.429 19.5034 113 19.8306C113.572 20.1577 114.019 20.6338 114.341 21.2588C114.663 21.8838 114.824 22.6406 114.824 23.5293ZM108.943 23.5293C108.943 24.1201 109.014 24.6255 109.155 25.0454C109.302 25.4653 109.526 25.7876 109.829 26.0122C110.132 26.2319 110.522 26.3418 111.001 26.3418C111.48 26.3418 111.87 26.2319 112.173 26.0122C112.476 25.7876 112.698 25.4653 112.839 25.0454C112.981 24.6255 113.052 24.1201 113.052 23.5293C113.052 22.9385 112.981 22.438 112.839 22.0278C112.698 21.6128 112.476 21.2979 112.173 21.083C111.87 20.8633 111.477 20.7534 110.994 20.7534C110.281 20.7534 109.761 20.9927 109.434 21.4712C109.106 21.9497 108.943 22.6357 108.943 23.5293ZM118.523 19.4937V27.6016H116.802V19.4937H118.523ZM117.673 16.3882C117.937 16.3882 118.164 16.459 118.355 16.6006C118.55 16.7422 118.647 16.9863 118.647 17.333C118.647 17.6748 118.55 17.9189 118.355 18.0654C118.164 18.207 117.937 18.2778 117.673 18.2778C117.4 18.2778 117.168 18.207 116.978 18.0654C116.792 17.9189 116.699 17.6748 116.699 17.333C116.699 16.9863 116.792 16.7422 116.978 16.6006C117.168 16.459 117.4 16.3882 117.673 16.3882ZM124.258 27.748C123.491 27.748 122.827 27.5991 122.266 27.3013C121.704 27.0034 121.272 26.5469 120.969 25.9316C120.667 25.3164 120.515 24.5352 120.515 23.5879C120.515 22.6016 120.681 21.7959 121.013 21.1709C121.345 20.5459 121.804 20.0845 122.39 19.7866C122.981 19.4888 123.657 19.3398 124.419 19.3398C124.902 19.3398 125.339 19.3887 125.73 19.4863C126.126 19.5791 126.46 19.6938 126.733 19.8306L126.221 21.2075C125.923 21.0855 125.618 20.9829 125.305 20.8999C124.993 20.8169 124.692 20.7754 124.404 20.7754C123.931 20.7754 123.535 20.8804 123.218 21.0903C122.905 21.3003 122.671 21.6128 122.515 22.0278C122.363 22.4429 122.288 22.958 122.288 23.5732C122.288 24.1689 122.366 24.6719 122.522 25.082C122.678 25.4873 122.91 25.7949 123.218 26.0049C123.525 26.21 123.904 26.3125 124.353 26.3125C124.797 26.3125 125.195 26.2588 125.547 26.1514C125.898 26.0439 126.23 25.9048 126.543 25.7339V27.228C126.235 27.4038 125.906 27.5332 125.554 27.6162C125.203 27.7041 124.771 27.748 124.258 27.748ZM131.677 19.3398C132.4 19.3398 133.02 19.4888 133.538 19.7866C134.055 20.0845 134.453 20.5068 134.731 21.0537C135.01 21.6006 135.149 22.2549 135.149 23.0166V23.9395H129.736C129.756 24.7256 129.966 25.3311 130.366 25.7559C130.771 26.1807 131.338 26.3931 132.065 26.3931C132.583 26.3931 133.047 26.3442 133.457 26.2466C133.872 26.144 134.299 25.9951 134.739 25.7998V27.1987C134.334 27.3892 133.921 27.5283 133.501 27.6162C133.081 27.7041 132.578 27.748 131.992 27.748C131.196 27.748 130.496 27.5942 129.89 27.2866C129.29 26.9741 128.818 26.5103 128.477 25.895C128.14 25.2798 127.971 24.5156 127.971 23.6025C127.971 22.6943 128.125 21.9229 128.433 21.2881C128.74 20.6533 129.172 20.1699 129.729 19.8379C130.286 19.5059 130.935 19.3398 131.677 19.3398ZM131.677 20.6362C131.135 20.6362 130.696 20.812 130.359 21.1636C130.027 21.5151 129.832 22.0303 129.773 22.709H133.464C133.459 22.3037 133.391 21.9448 133.259 21.6323C133.132 21.3198 132.937 21.0757 132.673 20.8999C132.415 20.7241 132.083 20.6362 131.677 20.6362Z" fill="white"/>
<rect x="1.55078" y="1.60156" width="153" height="40" rx="20" stroke="#3463F8" stroke-width="2"/>
</svg>
