<svg width="170" height="70" viewBox="0 0 170 70" fill="none" xmlns="http://www.w3.org/2000/svg">
<path d="M21.9435 41.6639L25.0786 41.0964C26.4384 40.8503 27.4998 40.8616 28.263 41.1304C29.0262 41.3991 29.4952 42.0164 29.67 42.9821C29.7431 43.3857 29.7371 43.7639 29.6521 44.1168C29.5711 44.4639 29.4151 44.7675 29.1843 45.0276C28.9527 45.2829 28.6464 45.4823 28.2654 45.6257L28.2785 45.6977C28.6999 45.6959 29.0857 45.7576 29.4359 45.8827C29.7908 46.007 30.0905 46.2232 30.3348 46.5313C30.5839 46.8385 30.7576 47.2636 30.8559 47.8066C30.9725 48.4504 30.9179 49.026 30.6921 49.5333C30.4712 50.0397 30.0985 50.4619 29.5742 50.8C29.0546 51.1372 28.4081 51.3758 27.6345 51.5158L23.8508 52.2007L21.9435 41.6639ZM24.4599 45.6967L26.1175 45.3967C26.9007 45.2549 27.4206 45.0293 27.6772 44.7199C27.9338 44.4104 28.0177 44.0107 27.929 43.5206C27.8386 43.0209 27.5932 42.6931 27.1928 42.5374C26.7973 42.3807 26.2103 42.3728 25.4319 42.5137L23.9328 42.785L24.4599 45.6967ZM24.713 47.0949L25.3183 50.439L27.1417 50.1089C27.9489 49.9628 28.4876 49.704 28.7578 49.3326C29.028 48.9612 29.1148 48.5088 29.0182 47.9754C28.9591 47.6487 28.8333 47.3787 28.6409 47.1654C28.4533 46.9513 28.1819 46.8094 27.8269 46.7396C27.4711 46.6651 27.012 46.6787 26.4499 46.7805L24.713 47.0949ZM38.9181 41.2337L40.3623 49.212L39.029 49.4533L38.6039 48.4212L38.5103 48.4382C38.3917 48.7425 38.2192 49.0094 37.9928 49.2389C37.7655 49.4637 37.5011 49.648 37.1997 49.7919C36.8991 49.9406 36.5734 50.0467 36.2227 50.1102C35.6221 50.2189 35.0897 50.211 34.6255 50.0866C34.1653 49.9566 33.7836 49.6981 33.4804 49.3114C33.1772 48.9247 32.9642 48.3926 32.8416 47.7151L31.8984 42.5043L33.5993 42.1965L34.4851 47.0901C34.5973 47.7099 34.8061 48.151 35.1116 48.4132C35.4219 48.6746 35.8438 48.7571 36.3771 48.6605C36.8912 48.5675 37.2805 48.3879 37.5449 48.1217C37.8093 47.8555 37.9666 47.5044 38.0167 47.0686C38.0717 46.6319 38.0448 46.1133 37.9361 45.5127L37.2172 41.5416L38.9181 41.2337ZM40.1433 41.0119L41.9883 40.678L44.4488 44.9367C44.5583 45.1303 44.6601 45.3227 44.7543 45.5141C44.8524 45.6998 44.9405 45.8848 45.0185 46.0692C45.1014 46.2527 45.1746 46.4379 45.2382 46.6249L45.2815 46.6171C45.2843 46.3585 45.3011 46.0677 45.3319 45.7445C45.3667 45.4157 45.4111 45.0851 45.465 44.7528L46.2117 39.9135L48.0351 39.5835L46.2542 49.2769C46.1511 49.8314 45.9885 50.3174 45.7663 50.7347C45.5498 51.156 45.2639 51.4956 44.9086 51.7534C44.5542 52.016 44.1272 52.1926 43.6275 52.283C43.3873 52.3265 43.1756 52.3499 42.9926 52.3533C42.8105 52.3614 42.6544 52.3624 42.5243 52.3562L42.279 51.0012C42.3842 51.007 42.5155 51.0056 42.6727 50.997C42.8299 50.9883 42.9902 50.9693 43.1536 50.9397C43.4563 50.8849 43.7073 50.7774 43.9066 50.6173C44.1058 50.4572 44.2623 50.2527 44.3761 50.0039C44.4907 49.7598 44.5732 49.4893 44.6237 49.1924L44.7691 48.392L40.1433 41.0119ZM50.9396 39.0577L52.3837 47.036L50.69 47.3425L49.2459 39.3643L50.9396 39.0577ZM49.5504 36.1532C49.8099 36.1063 50.0459 36.1355 50.2585 36.2409C50.4759 36.3455 50.6155 36.5683 50.6772 36.9094C50.7381 37.2458 50.6855 37.5034 50.5194 37.6823C50.3573 37.8556 50.1464 37.9657 49.887 38.0127C49.6179 38.0614 49.3771 38.033 49.1645 37.9276C48.9558 37.8165 48.821 37.5928 48.7602 37.2565C48.6984 36.9153 48.7462 36.6586 48.9036 36.4862C49.0657 36.3129 49.2814 36.2019 49.5504 36.1532ZM57.4995 37.714C58.398 37.5514 59.1392 37.6579 59.7233 38.0335C60.3113 38.4034 60.6979 39.1001 60.8831 40.1235L61.825 45.327L60.1313 45.6336L59.2469 40.7472C59.1347 40.1274 58.9234 39.6867 58.6131 39.4253C58.3019 39.1591 57.8797 39.0743 57.3463 39.1708C56.5728 39.3108 56.0777 39.6461 55.8611 40.1765C55.6493 40.7061 55.6252 41.4226 55.7887 42.3259L56.5062 46.2898L54.8125 46.5963L53.3684 38.6181L54.6873 38.3793L55.1208 39.4174L55.2145 39.4004C55.337 39.0904 55.5095 38.8235 55.732 38.5996C55.9584 38.3701 56.2219 38.181 56.5225 38.0323C56.8279 37.8827 57.1535 37.7766 57.4995 37.714ZM67.1154 48.0315C66.0344 48.2271 65.1703 48.1826 64.5233 47.8978C63.8763 47.6129 63.4893 47.1198 63.3623 46.4183C63.2736 45.9282 63.3521 45.4848 63.5979 45.088C63.8445 44.696 64.242 44.3834 64.7903 44.1502C64.5567 44.0932 64.3423 43.9782 64.1472 43.8051C63.9561 43.6263 63.8379 43.412 63.7927 43.1621C63.7387 42.8642 63.7767 42.5944 63.9066 42.3525C64.0365 42.1107 64.2518 41.8608 64.5525 41.6029C64.1023 41.5008 63.7138 41.2734 63.3869 40.9207C63.064 40.5624 62.8535 40.1117 62.7552 39.5688C62.6508 38.9922 62.6846 38.4799 62.8566 38.032C63.0277 37.5792 63.3296 37.2045 63.7622 36.9079C64.1939 36.6064 64.7437 36.3953 65.4116 36.2744C65.5557 36.2483 65.7136 36.2296 65.8852 36.2184C66.0608 36.2015 66.2229 36.192 66.3713 36.19C66.5238 36.1822 66.6406 36.1834 66.7218 36.1935L69.4821 35.6939L69.653 36.638L68.3438 37.1355C68.5065 37.2946 68.6477 37.4849 68.7672 37.7064C68.8858 37.9232 68.9699 38.1684 69.0195 38.4423C69.169 39.2687 69.001 39.9715 68.5153 40.5507C68.0336 41.1242 67.2931 41.5014 66.2937 41.6823C66.0517 41.7161 65.8152 41.7391 65.5841 41.7511C65.4303 41.8882 65.3195 42.0298 65.2517 42.176C65.183 42.3175 65.163 42.4675 65.1917 42.6261C65.2152 42.7558 65.28 42.8532 65.3861 42.9184C65.4913 42.9787 65.6362 43.012 65.821 43.0183C66.0105 43.0237 66.235 43.0029 66.4944 42.9559L67.871 42.7068C68.7455 42.5485 69.4468 42.6126 69.975 42.899C70.5033 43.1855 70.8322 43.6867 70.9617 44.4026C71.1261 45.3107 70.8779 46.0776 70.2171 46.7034C69.5571 47.3339 68.5232 47.7766 67.1154 48.0315ZM66.9651 46.8306C67.556 46.7236 68.0429 46.5759 68.4256 46.3875C68.8083 46.1992 69.0834 45.9782 69.2509 45.7246C69.4192 45.4758 69.4769 45.2048 69.4238 44.9117C69.3769 44.6523 69.2759 44.4646 69.121 44.3488C68.966 44.2329 68.754 44.172 68.485 44.1661C68.216 44.1603 67.8893 44.1921 67.5049 44.2617L66.2509 44.4887C65.9386 44.5452 65.671 44.6433 65.4481 44.7828C65.2262 44.9272 65.0649 45.1053 64.9643 45.317C64.8684 45.5279 64.8445 45.7654 64.8923 46.0297C64.9584 46.3949 65.1702 46.6468 65.5278 46.7855C65.8902 46.9234 66.3693 46.9384 66.9651 46.8306ZM66.1721 40.558C66.6669 40.4684 67.0101 40.2674 67.2017 39.9548C67.3923 39.6375 67.4429 39.2313 67.3533 38.7365C67.2559 38.1983 67.0579 37.8173 66.7594 37.5935C66.4656 37.3688 66.0761 37.3004 65.5908 37.3882C65.1152 37.4743 64.7772 37.6769 64.5769 37.996C64.3815 38.3142 64.3324 38.7424 64.4298 39.2805C64.5177 39.7658 64.7089 40.1232 65.0035 40.3527C65.3021 40.5766 65.6916 40.645 66.1721 40.558ZM81.1674 39.4738C81.2622 39.9975 81.2149 40.4626 81.0255 40.869C80.8361 41.2755 80.5133 41.6167 80.0571 41.8928C79.6049 42.1633 79.0256 42.3624 78.3193 42.4902C77.762 42.5911 77.2741 42.6373 76.8557 42.6286C76.443 42.6239 76.0441 42.5721 75.659 42.4731L75.3942 41.0101C75.8059 41.1191 76.259 41.1959 76.7533 41.2404C77.2525 41.284 77.7135 41.2676 78.1363 41.191C78.6936 41.0902 79.0792 40.931 79.2929 40.7137C79.5058 40.4916 79.5857 40.234 79.5326 39.9409C79.5013 39.7679 79.423 39.6233 79.2978 39.507C79.1765 39.3851 78.9682 39.2764 78.6731 39.181C78.3818 39.0798 77.9605 38.9725 77.409 38.859C76.8679 38.7485 76.4062 38.6237 76.0237 38.4845C75.6413 38.3453 75.3355 38.1501 75.1064 37.8988C74.8764 37.6427 74.721 37.2912 74.6401 36.8443C74.5123 36.138 74.694 35.5519 75.1852 35.0858C75.6804 34.6141 76.3893 34.2948 77.3118 34.1278C77.8019 34.0391 78.2723 34.006 78.7229 34.0287C79.1776 34.0456 79.6309 34.1099 80.0828 34.2217L79.7804 35.5939C79.3913 35.5005 79.0051 35.4365 78.6216 35.4017C78.2422 35.3612 77.865 35.3749 77.4903 35.4427C77.053 35.5218 76.7313 35.6496 76.525 35.8258C76.3235 36.0012 76.2454 36.2139 76.2906 36.4637C76.3245 36.6511 76.4085 36.7997 76.5425 36.9094C76.6765 37.0191 76.8898 37.1145 77.1823 37.1955C77.4797 37.2757 77.8884 37.3679 78.4084 37.4723C78.9171 37.5687 79.3627 37.6866 79.7452 37.8257C80.1316 37.9593 80.4446 38.1532 80.6842 38.4076C80.9237 38.6619 81.0848 39.0173 81.1674 39.4738ZM83.6598 33.135L85.104 41.1133L83.4103 41.4199L81.9661 33.4416L83.6598 33.135ZM82.2707 30.2305C82.5301 30.1836 82.7661 30.2128 82.9788 30.3182C83.1962 30.4228 83.3357 30.6456 83.3975 30.9868C83.4584 31.3231 83.4058 31.5807 83.2397 31.7597C83.0775 31.9329 82.8667 32.043 82.6072 32.09C82.3382 32.1387 82.0973 32.1103 81.8847 32.0049C81.6761 31.8938 81.5413 31.6701 81.4804 31.3338C81.4187 30.9926 81.4665 30.7359 81.6238 30.5635C81.786 30.3902 82.0016 30.2793 82.2707 30.2305ZM90.2197 31.7913C91.1182 31.6287 91.8595 31.7352 92.4435 32.1108C93.0315 32.4807 93.4181 33.1774 93.6034 34.2008L94.5453 39.4043L92.8516 39.7109L91.9671 34.8245C91.8549 34.2047 91.6437 33.7641 91.3333 33.5027C91.0222 33.2364 90.5999 33.1516 90.0666 33.2481C89.293 33.3882 88.7979 33.7234 88.5813 34.2539C88.3696 34.7835 88.3454 35.4999 88.5089 36.4032L89.2264 40.3671L87.5328 40.6737L86.0886 32.6954L87.4075 32.4567L87.841 33.4947L87.9347 33.4777C88.0572 33.1677 88.2297 32.9008 88.4522 32.6769C88.6786 32.4474 88.9421 32.2583 89.2427 32.1096C89.5481 31.96 89.8738 31.8539 90.2197 31.7913ZM100.157 38.5374C99.4025 38.674 98.7225 38.6457 98.1169 38.4526C97.5114 38.2596 97.0048 37.8873 96.5973 37.3358C96.1899 36.7843 95.9018 36.0426 95.733 35.1104C95.5574 34.1399 95.5772 33.3175 95.7926 32.6434C96.008 31.9692 96.3775 31.4334 96.901 31.036C97.4293 30.6377 98.0682 30.3707 98.8178 30.235C99.2935 30.1489 99.7322 30.1191 100.134 30.1456C100.54 30.1665 100.889 30.2198 101.183 30.3056L100.923 31.7519C100.609 31.6848 100.29 31.6383 99.9677 31.6122C99.6454 31.5862 99.3425 31.5989 99.0591 31.6502C98.593 31.7345 98.2225 31.9083 97.9476 32.1714C97.6775 32.4337 97.5025 32.7829 97.4227 33.2192C97.3477 33.6545 97.365 34.1749 97.4745 34.7803C97.5807 35.3665 97.7471 35.8475 97.9739 36.2232C98.1999 36.5942 98.4829 36.8556 98.823 37.0074C99.1622 37.1544 99.5528 37.1879 99.9949 37.1079C100.432 37.0287 100.814 36.905 101.141 36.7367C101.468 36.5684 101.77 36.3723 102.047 36.1485L102.313 37.6187C102.041 37.8465 101.74 38.0325 101.409 38.1768C101.079 38.3259 100.661 38.4461 100.157 38.5374ZM105.96 28.9422C106.671 28.8135 107.308 28.8495 107.87 29.0504C108.433 29.2513 108.899 29.5961 109.271 30.0846C109.642 30.5732 109.895 31.1922 110.031 31.9418L110.195 32.8499L104.869 33.8139C105.029 34.584 105.343 35.1424 105.813 35.4891C106.287 35.8349 106.882 35.9431 107.598 35.8135C108.108 35.7213 108.555 35.5906 108.942 35.4215C109.332 35.2466 109.726 35.024 110.123 34.7535L110.372 36.1301C110.008 36.3897 109.626 36.6001 109.229 36.7614C108.831 36.9226 108.344 37.0555 107.768 37.1598C106.984 37.3016 106.268 37.275 105.617 37.0802C104.97 36.8797 104.424 36.5071 103.978 35.9626C103.537 35.4172 103.235 34.6953 103.072 33.7968C102.911 32.9031 102.925 32.1166 103.114 31.4372C103.304 30.7578 103.643 30.2051 104.132 29.7793C104.62 29.3534 105.23 29.0744 105.96 28.9422ZM106.191 30.2178C105.658 30.3144 105.256 30.5656 104.988 30.9716C104.723 31.3766 104.623 31.9183 104.686 32.5966L108.319 31.9391C108.242 31.5412 108.11 31.2002 107.925 30.9162C107.744 30.6313 107.509 30.4259 107.218 30.2999C106.932 30.173 106.59 30.1456 106.191 30.2178ZM123.179 34.2213L116.044 35.5128L115.813 34.2372L118.044 30.9752C118.475 30.3414 118.826 29.7991 119.096 29.3481C119.366 28.8924 119.551 28.4744 119.651 28.0941C119.756 27.7129 119.771 27.3157 119.696 26.9025C119.604 26.3932 119.387 26.0353 119.047 25.8289C118.706 25.6177 118.296 25.5556 117.815 25.6425C117.359 25.7252 116.953 25.893 116.596 26.146C116.244 26.3934 115.892 26.7202 115.538 27.1265L114.406 26.1777C114.654 25.8748 114.925 25.5901 115.219 25.3234C115.518 25.056 115.864 24.8248 116.255 24.6299C116.646 24.4301 117.105 24.2824 117.634 24.1868C118.302 24.0659 118.9 24.0816 119.429 24.234C119.956 24.3816 120.388 24.6434 120.724 25.0192C121.065 25.3942 121.286 25.8628 121.388 26.4249C121.491 26.9919 121.473 27.536 121.334 28.0574C121.195 28.5787 120.959 29.1127 120.626 29.6592C120.293 30.2009 119.887 30.7978 119.41 31.4499L117.909 33.5601L117.923 33.6394L122.91 32.7367L123.179 34.2213ZM130.671 27.4168C130.825 28.2672 130.895 29.041 130.883 29.738C130.874 30.4293 130.77 31.0337 130.571 31.551C130.372 32.0684 130.066 32.4909 129.654 32.8186C129.242 33.1463 128.711 33.3688 128.063 33.4862C127.251 33.6332 126.542 33.5407 125.936 33.2087C125.329 32.872 124.825 32.323 124.425 31.5619C124.023 30.796 123.719 29.8461 123.514 28.7122C123.309 27.5783 123.249 26.5869 123.333 25.7379C123.422 24.8833 123.689 24.1924 124.134 23.6652C124.579 23.1379 125.235 22.7961 126.099 22.6395C126.916 22.4917 127.628 22.5861 128.235 22.9229C128.846 23.254 129.352 23.8025 129.753 24.5684C130.159 25.3286 130.465 26.2781 130.671 27.4168ZM125.222 28.403C125.383 29.2919 125.575 30.0238 125.798 30.5987C126.026 31.1728 126.304 31.5839 126.632 31.8323C126.959 32.0758 127.351 32.1562 127.807 32.0736C128.264 31.991 128.602 31.7783 128.823 31.4357C129.044 31.093 129.16 30.6129 129.173 29.9954C129.19 29.377 129.117 28.621 128.956 27.7273C128.796 26.8432 128.602 26.1141 128.374 25.5401C128.146 24.9661 127.868 24.5549 127.54 24.3066C127.211 24.0534 126.816 23.9686 126.355 24.0521C125.894 24.1356 125.554 24.3535 125.335 24.7057C125.119 25.0523 125.006 25.5344 124.993 26.1519C124.986 26.7686 125.062 27.519 125.222 28.403ZM137.918 31.5535L136.217 31.8614L134.989 25.0795C134.948 24.8537 134.91 24.6274 134.874 24.4007C134.838 24.174 134.802 23.9522 134.768 23.7351C134.739 23.5171 134.713 23.3083 134.692 23.1087C134.611 23.2375 134.508 23.3802 134.382 23.5369C134.262 23.6927 134.132 23.8551 133.994 24.024L132.958 25.2089L131.913 24.289L134.598 21.2724L136.01 21.0167L137.918 31.5535ZM140.586 26.4334C140.474 25.8136 140.406 25.1955 140.384 24.5793C140.367 23.9622 140.419 23.3722 140.54 22.8093C140.662 22.2465 140.876 21.7313 141.183 21.2638C141.496 20.7954 141.922 20.3957 142.462 20.0647C143.002 19.7288 143.68 19.487 144.497 19.3391C144.709 19.3008 144.948 19.2674 145.216 19.2388C145.484 19.2102 145.708 19.2018 145.889 19.2138L146.143 20.6192C145.946 20.6002 145.732 20.5968 145.501 20.6088C145.275 20.62 145.051 20.6456 144.83 20.6856C143.946 20.8456 143.287 21.1386 142.853 21.5645C142.418 21.9856 142.148 22.506 142.041 23.1256C141.934 23.7405 141.932 24.4233 142.033 25.1741L142.119 25.1585C142.22 24.8921 142.361 24.6457 142.544 24.4192C142.726 24.1927 142.963 23.9959 143.255 23.8288C143.547 23.657 143.899 23.5337 144.312 23.4589C144.927 23.3476 145.487 23.3803 145.99 23.5571C146.493 23.7292 146.91 24.0357 147.243 24.4766C147.581 24.9166 147.812 25.4826 147.938 26.1745C148.072 26.9192 148.047 27.5863 147.861 28.1757C147.679 28.7643 147.355 29.2497 146.889 29.6319C146.427 30.0133 145.84 30.2683 145.129 30.397C144.605 30.4918 144.1 30.484 143.614 30.3736C143.132 30.2622 142.689 30.0448 142.283 29.7213C141.877 29.3978 141.528 28.9648 141.236 28.4221C140.944 27.8747 140.727 27.2118 140.586 26.4334ZM144.847 29.0041C145.395 28.9049 145.802 28.6476 146.07 28.232C146.341 27.8108 146.409 27.2302 146.275 26.4902C146.167 25.8897 145.932 25.4409 145.57 25.1441C145.214 24.8464 144.74 24.7511 144.149 24.858C143.745 24.9311 143.408 25.0815 143.136 25.3093C142.865 25.537 142.669 25.7983 142.549 26.093C142.433 26.3868 142.4 26.6706 142.45 26.9445C142.5 27.2232 142.592 27.4969 142.725 27.7656C142.858 28.0343 143.028 28.2739 143.235 28.4846C143.441 28.6905 143.679 28.8433 143.95 28.9431C144.222 29.0429 144.521 29.0632 144.847 29.0041Z" fill="white"/>
<rect x="0.123047" y="30.0742" width="165" height="40" rx="20" transform="rotate(-10.26 0.123047 30.0742)" stroke="#3463F8" stroke-width="2"/>
</svg>
