<svg width="151" height="20" viewBox="0 0 151 20" fill="none" xmlns="http://www.w3.org/2000/svg">
<g clip-path="url(#clip0_2699_11649)">
<path d="M52.8447 20C53.0289 19.4513 53.2554 18.9173 53.5219 18.4026C55.8234 13.3071 58.125 8.21159 60.4265 3.11606C60.603 2.67973 60.8106 2.25635 61.0479 1.84918C61.5926 0.969626 62.4686 0.33948 63.4831 0.0970492C63.5894 0.0681967 63.693 0.0314755 63.7991 0H65.1933C65.7791 0.0975527 66.3363 0.320718 66.8253 0.653794C67.3144 0.986871 67.7238 1.42176 68.0244 1.92787C68.2023 2.22688 68.3509 2.54688 68.505 2.86165C70.0346 5.9812 71.5634 9.10688 73.0912 12.2387C74.3553 14.8249 75.6177 17.412 76.8782 20H70.4382C70.085 19.2131 69.7186 18.4053 69.3761 17.5947C69.3417 17.4661 69.2608 17.3544 69.1488 17.2805C69.0369 17.2066 68.9013 17.1756 68.7679 17.1935C66.7096 17.2092 64.6516 17.1935 62.5935 17.1935C62.3571 17.1935 62.1953 17.1935 62.3279 16.8708C62.9424 15.5384 63.5469 14.2015 64.1417 12.8603C64.1725 12.7794 64.2302 12.7112 64.3057 12.6673C64.381 12.6234 64.4694 12.6063 64.5561 12.619C65.3289 12.619 66.1043 12.619 66.8796 12.619C67.1453 12.619 67.2117 12.5718 67.0921 12.3069C66.7257 11.4885 66.3804 10.6623 66.03 9.83606L64.8826 7.1659C64.8004 7.32065 64.7419 7.4282 64.6941 7.52786C63.4248 10.296 62.1563 13.0623 60.8886 15.8269C60.2566 17.2092 59.6324 18.5967 59.0031 19.9816L52.8447 20Z" fill="black"/>
<path d="M0 0.588999C0.125339 0.517862 0.271163 0.490164 0.414277 0.510311H4.66327C5.08287 0.510311 5.10676 0.533919 5.10676 0.964081C5.10676 3.07294 5.10676 5.18178 5.10676 7.29065V18.9602C5.10676 19.5477 5.10676 19.5477 4.49863 19.5477H0.483324C0.318402 19.5721 0.149858 19.5465 0 19.4743V0.588999Z" fill="black"/>
<path d="M145.572 12.837V1.01795C145.572 0.569422 145.572 0.566798 146.029 0.566798C147.49 0.566798 148.95 0.566798 150.411 0.566798C150.719 0.566798 150.804 0.663849 150.804 0.960241C150.804 5.86779 150.804 10.7727 150.804 15.6802C150.777 16.6449 150.407 17.5693 149.759 18.2912C149.11 19.0131 148.225 19.4863 147.259 19.6277C145.623 19.8481 144.337 19.2396 143.259 18.054C141.079 15.654 138.872 13.2802 136.679 10.896C135.696 9.82756 134.715 8.75914 133.736 7.69073C133.657 7.60156 133.582 7.5045 133.492 7.39434C133.446 7.45134 133.414 7.51769 133.398 7.5885C133.382 7.65932 133.382 7.73279 133.399 7.80352C133.399 11.5509 133.399 15.299 133.399 19.0481C133.399 19.5727 133.399 19.5727 132.868 19.5727C131.418 19.5727 129.968 19.5727 128.521 19.5727C128.215 19.5727 128.12 19.4783 128.12 19.1793C128.12 14.2822 128.096 9.38779 128.141 4.49073C128.154 2.79369 129.038 1.53205 130.616 0.836963C132.228 0.120897 133.779 0.351718 135.085 1.50844C136.147 2.45795 137.051 3.58058 138.022 4.62713C139.674 6.40811 141.31 8.1996 142.957 9.98581L145.572 12.837Z" fill="black"/>
<path d="M90.252 0.0619817H94.8994C95.3136 0.0619817 95.3322 0.0803423 95.3322 0.484278C95.3322 1.85171 95.3322 3.21739 95.3322 4.58133C95.3322 5.02461 95.3083 5.04821 94.8648 5.04821H86.1012C84.8341 5.04551 83.6133 5.51749 82.6846 6.36894C81.756 7.22039 81.189 8.38796 81.0977 9.63617C81.0064 10.8844 81.3977 12.1204 82.1926 13.0948C82.9877 14.0693 84.1274 14.7097 85.3816 14.8869C85.6887 14.9271 85.9985 14.9464 86.3084 14.9446H94.8727C95.3243 14.9446 95.3322 14.9446 95.3322 15.4063C95.3322 16.7492 95.3322 18.093 95.3322 19.4377C95.3322 19.9072 95.3136 19.9282 94.8569 19.9282C91.9039 19.9282 88.9481 19.9755 85.9951 19.9282C83.4508 19.9021 81.0111 18.9247 79.1673 17.1929C77.3237 15.4611 76.2127 13.1036 76.0585 10.5952C75.9044 8.08676 76.7183 5.6138 78.3364 3.67441C79.9543 1.73501 82.2565 0.473262 84.7788 0.143293C85.8038 0.00427684 86.8341 0.0724735 87.8618 0.0646047C88.6586 0.0541129 89.4553 0.0619817 90.252 0.0619817Z" fill="url(#paint0_linear_2699_11649)"/>
<path d="M102.805 0.117188C104.133 0.117188 105.482 0.117188 106.821 0.117188C110.193 0.148663 112.894 1.52309 114.907 4.17489C116.311 6.00884 116.998 8.28103 116.843 10.5749C116.71 12.8673 115.78 15.044 114.21 16.7373C112.64 18.4305 110.526 19.5364 108.225 19.8679C107.777 19.9275 107.324 19.9556 106.871 19.952C103.939 19.952 101.007 19.952 98.0757 19.952C97.5924 19.952 97.5898 19.952 97.5898 19.4824C97.5898 18.129 97.5898 16.7729 97.5898 15.4195C97.5898 15.1021 97.6987 15.0077 98.012 15.0077C100.887 15.0182 103.763 15.0182 106.64 15.0077C107.835 15.024 109.001 14.6372 109.944 13.9113C112.209 12.1696 112.461 8.66538 110.462 6.63523C109.972 6.12654 109.381 5.72393 108.726 5.45299C108.071 5.18205 107.366 5.04872 106.656 5.06144C103.793 5.06144 100.928 5.06144 98.0624 5.06144C97.6003 5.06144 97.595 5.06144 97.595 4.60768V0.570957C97.595 0.125056 97.595 0.117188 98.0652 0.117188H102.805Z" fill="url(#paint1_linear_2699_11649)"/>
<path d="M119.947 10.0344V0.985189C119.947 0.510436 119.947 0.507812 120.423 0.507812C121.817 0.507812 123.211 0.507812 124.605 0.507812C124.913 0.507812 125.03 0.596993 125.03 0.916993C125.03 6.99175 125.03 13.0656 125.03 19.1386C125.03 19.4508 124.932 19.5583 124.611 19.5557C123.195 19.5417 121.778 19.5417 120.362 19.5557C120.014 19.5557 119.937 19.4272 119.94 19.1098C119.957 16.0881 119.96 13.063 119.947 10.0344Z" fill="black"/>
<path d="M13.5286 7.33845C13.4717 7.47992 13.4525 7.63345 13.4729 7.78435C13.4729 11.5124 13.4729 15.2388 13.4729 18.9634C13.4729 19.5509 13.4729 19.5509 12.8647 19.5509H8.6954C8.22801 19.5509 8.22269 19.5509 8.22269 19.1024C8.22269 14.2639 8.22269 9.42369 8.22269 4.58173C8.21925 3.75351 8.46793 2.94339 8.93646 2.25649C9.405 1.56962 10.0717 1.03769 10.8502 0.72975C11.6286 0.421813 12.4828 0.352085 13.3018 0.529618C14.1209 0.70715 14.867 1.12375 15.4433 1.72534C17.5678 3.9968 19.6605 6.29451 21.7663 8.58173C22.9561 9.87573 24.1485 11.168 25.3435 12.4585C25.4073 12.5266 25.4524 12.6237 25.5745 12.6368C25.6727 12.5109 25.6277 12.3745 25.6277 12.2303C25.6277 8.52665 25.6277 4.82216 25.6277 1.11681C25.6277 0.513532 25.6277 0.513532 26.2518 0.513532H30.4316C30.8858 0.513532 30.8886 0.513532 30.8886 0.975171C30.8886 5.83812 30.8886 10.7011 30.8886 15.564C30.883 16.395 30.6213 17.2045 30.1383 17.8849C29.6555 18.5653 28.974 19.0842 28.185 19.3726C27.4017 19.6587 26.5501 19.7093 25.7376 19.5179C24.925 19.3265 24.1882 18.9017 23.62 18.2971L17.058 11.1785L13.7756 7.61649L13.5286 7.33845Z" fill="black"/>
<path d="M33.4652 9.97076V0.564856C33.4652 0.0402655 33.4652 0.0402655 33.9963 0.0402655C37.2813 0.0402655 40.5663 0.0402655 43.8514 0.0402655C46.4526 0.000335731 48.9686 0.955726 50.8729 2.70646C52.777 4.45721 53.9217 6.86756 54.0676 9.43305C54.1911 11.5714 53.6116 13.692 52.4151 15.4784C51.2186 17.2647 49.4694 18.6211 47.4285 19.3452C46.3783 19.7293 45.2687 19.9309 44.1488 19.9407C40.7417 19.9407 37.3345 19.9407 33.9273 19.9407C33.4838 19.9407 33.4652 19.9222 33.4652 19.4737C33.4634 16.3087 33.4634 13.141 33.4652 9.97076ZM38.5747 9.99962C38.5747 11.5078 38.5747 13.016 38.5747 14.5216C38.5747 14.8311 38.6622 14.9386 38.9862 14.936C40.6353 14.9229 42.2819 14.9176 43.931 14.936C45.2566 14.9614 46.538 14.4657 47.4934 13.5579C48.449 12.6501 49.0002 11.4046 49.0259 10.0953C49.0516 8.78613 48.5496 7.52046 47.6305 6.57676C46.7115 5.63305 45.4503 5.0886 44.1249 5.06321C42.4201 5.06321 40.7177 5.06321 39.0129 5.06321C38.5826 5.06321 38.58 5.06321 38.58 5.51174L38.5747 9.99962Z" fill="black"/>
</g>
<defs>
<linearGradient id="paint0_linear_2699_11649" x1="85.6862" y1="0.0546875" x2="80.3224" y2="17.5748" gradientUnits="userSpaceOnUse">
<stop stop-color="#3463F8"/>
<stop offset="1" stop-color="#214FDF"/>
</linearGradient>
<linearGradient id="paint1_linear_2699_11649" x1="107.227" y1="0.117187" x2="97.7545" y2="18.1007" gradientUnits="userSpaceOnUse">
<stop stop-color="#3463F8"/>
<stop offset="1" stop-color="#214FDF"/>
</linearGradient>
<clipPath id="clip0_2699_11649">
<rect width="151" height="20" fill="white"/>
</clipPath>
</defs>
</svg>
