<svg width="121" height="16" viewBox="0 0 121 16" fill="none" xmlns="http://www.w3.org/2000/svg">
<g clip-path="url(#clip0_3101_1194)">
<path d="M42.3462 16C42.4938 15.561 42.6753 15.1338 42.8888 14.7221C44.7331 10.6457 46.5774 6.56927 48.4217 2.49285C48.5631 2.14378 48.7294 1.80508 48.9196 1.47934C49.3561 0.7757 50.058 0.271584 50.871 0.0776394C50.9562 0.0545573 51.0392 0.0251804 51.1242 0H52.2414C52.7109 0.0780422 53.1573 0.256574 53.5491 0.523035C53.9411 0.789497 54.2691 1.13741 54.51 1.54229C54.6526 1.78151 54.7716 2.03751 54.8952 2.28932C56.1209 4.78496 57.3459 7.28551 58.5702 9.79095C59.5831 11.8599 60.5947 13.9296 61.6048 16H56.4443C56.1612 15.3705 55.8676 14.7242 55.5932 14.0758C55.5656 13.9729 55.5008 13.8835 55.411 13.8244C55.3214 13.7652 55.2127 13.7405 55.1058 13.7548C53.4565 13.7673 51.8073 13.7548 50.1581 13.7548C49.9687 13.7548 49.839 13.7548 49.9453 13.4967C50.4377 12.4307 50.9221 11.3612 51.3987 10.2883C51.4234 10.2235 51.4697 10.169 51.5302 10.1338C51.5905 10.0987 51.6613 10.0851 51.7308 10.0952C52.3501 10.0952 52.9714 10.0952 53.5927 10.0952C53.8055 10.0952 53.8588 10.0574 53.7629 9.84551C53.4693 9.19082 53.1926 8.52984 52.9118 7.86885L51.9925 5.73272C51.9266 5.85652 51.8797 5.94256 51.8414 6.02229C50.8243 8.23677 49.8078 10.4498 48.792 12.6615C48.2855 13.7673 47.7853 14.8774 47.2811 15.9853L42.3462 16Z" fill="white"/>
<path d="M0 0.470418C0.100438 0.413508 0.21729 0.39135 0.331971 0.407467H3.73679C4.07302 0.407467 4.09217 0.426354 4.09217 0.770484C4.09217 2.45757 4.09217 4.14465 4.09217 5.83174V15.1673C4.09217 15.6374 4.09217 15.6374 3.60486 15.6374H0.387299C0.255144 15.6569 0.120085 15.6364 0 15.5786V0.470418Z" fill="white"/>
<path d="M116.651 10.2696V0.814358C116.651 0.455537 116.651 0.453439 117.017 0.453439C118.187 0.453439 119.357 0.453439 120.528 0.453439C120.775 0.453439 120.843 0.53108 120.843 0.768193C120.843 4.69424 120.843 8.61816 120.843 12.5442C120.821 13.3159 120.525 14.0555 120.005 14.633C119.486 15.2105 118.776 15.5891 118.002 15.7022C116.691 15.8785 115.661 15.3917 114.797 14.4432C113.05 12.5232 111.282 10.6242 109.524 8.7168C108.736 7.86205 107.951 7.00732 107.166 6.15259C107.102 6.08125 107.043 6.0036 106.97 5.91548C106.934 5.96108 106.908 6.01416 106.895 6.0708C106.882 6.12746 106.882 6.18624 106.896 6.24282C106.896 9.24069 106.896 12.2392 106.896 15.2385C106.896 15.6582 106.896 15.6582 106.47 15.6582C105.308 15.6582 104.146 15.6582 102.987 15.6582C102.742 15.6582 102.665 15.5826 102.665 15.3434C102.665 11.4258 102.646 7.51024 102.682 3.59259C102.693 2.23496 103.402 1.22564 104.666 0.669571C105.957 0.0967178 107.2 0.281374 108.247 1.20675C109.098 1.96636 109.822 2.86446 110.601 3.7017C111.924 5.12649 113.235 6.55968 114.554 7.98865L116.651 10.2696Z" fill="white"/>
<path d="M72.321 0.0488041H76.0451C76.377 0.0488041 76.3919 0.0634926 76.3919 0.386641C76.3919 1.48059 76.3919 2.57313 76.3919 3.66428C76.3919 4.0189 76.3728 4.03779 76.0174 4.03779H68.9949C67.9795 4.03562 67.0013 4.41321 66.257 5.09437C65.513 5.77553 65.0586 6.70958 64.9854 7.70815C64.9123 8.70673 65.2258 9.69551 65.8628 10.4751C66.5 11.2546 67.4132 11.767 68.4183 11.9087C68.6644 11.9409 68.9125 11.9563 69.1609 11.9549H76.0237C76.3856 11.9549 76.3919 11.9549 76.3919 12.3242C76.3919 13.3986 76.3919 14.4736 76.3919 15.5494C76.3919 15.925 76.377 15.9418 76.011 15.9418C73.6447 15.9418 71.2762 15.9796 68.9099 15.9418C66.8711 15.9209 64.9161 15.139 63.4386 13.7535C61.9612 12.3681 61.071 10.4821 60.9474 8.47537C60.8239 6.46862 61.4761 4.49026 62.7727 2.93874C64.0692 1.38723 65.914 0.377828 67.9352 0.113853C68.7565 0.00264025 69.5822 0.0571975 70.4057 0.0509025C71.0441 0.0425091 71.6826 0.0488041 72.321 0.0488041Z" fill="url(#paint0_linear_3101_1194)"/>
<path d="M82.3806 0.09375C83.4446 0.09375 84.5256 0.09375 85.5982 0.09375C88.3007 0.11893 90.4649 1.21847 92.0778 3.33991C93.2026 4.80706 93.7534 6.62482 93.6293 8.45991C93.5227 10.2938 92.7774 12.0352 91.5192 13.3898C90.2611 14.7444 88.5671 15.6291 86.7237 15.8943C86.3641 15.942 86.0014 15.9644 85.6385 15.9616C83.2892 15.9616 80.9398 15.9616 78.5905 15.9616C78.2032 15.9616 78.2012 15.9616 78.2012 15.5859C78.2012 14.5032 78.2012 13.4183 78.2012 12.3356C78.2012 12.0817 78.2884 12.0061 78.5395 12.0061C80.8434 12.0145 83.1481 12.0145 85.4534 12.0061C86.4113 12.0192 87.345 11.7098 88.1007 11.129C89.9158 9.7357 90.1179 6.9323 88.5156 5.30818C88.1236 4.90123 87.6501 4.57914 87.1252 4.36239C86.6002 4.14564 86.0353 4.03897 85.4661 4.04915C83.1721 4.04915 80.876 4.04915 78.5799 4.04915C78.2096 4.04915 78.2053 4.04915 78.2053 3.68614V0.456765C78.2053 0.100045 78.2053 0.09375 78.5821 0.09375H82.3806Z" fill="url(#paint1_linear_3101_1194)"/>
<path d="M96.1172 8.02751V0.788152C96.1172 0.408349 96.1172 0.40625 96.4981 0.40625C97.6155 0.40625 98.7327 0.40625 99.8498 0.40625C100.097 0.40625 100.19 0.477594 100.19 0.733595C100.19 5.5934 100.19 10.4525 100.19 15.3109C100.19 15.5606 100.111 15.6466 99.8541 15.6446C98.7192 15.6334 97.5841 15.6334 96.4492 15.6446C96.1704 15.6446 96.1088 15.5417 96.1109 15.2878C96.1251 12.8705 96.1272 10.4504 96.1172 8.02751Z" fill="white"/>
<path d="M10.8407 5.86764C10.7951 5.98082 10.7797 6.10364 10.796 6.22436C10.796 9.20683 10.796 12.1879 10.796 15.1676C10.796 15.6376 10.796 15.6376 10.3087 15.6376H6.96769C6.59316 15.6376 6.5889 15.6376 6.5889 15.2788C6.5889 11.408 6.5889 7.53583 6.5889 3.66226C6.58614 2.99969 6.78541 2.35159 7.16086 1.80207C7.53631 1.25257 8.07058 0.827025 8.69436 0.580675C9.31813 0.334325 10.0026 0.278543 10.6589 0.42057C11.3153 0.562595 11.9132 0.895872 12.375 1.37714C14.0774 3.19432 15.7543 5.03249 17.4417 6.86226C18.3952 7.89746 19.3507 8.93125 20.3082 9.96364C20.3594 10.0182 20.3955 10.0958 20.4933 10.1063C20.5721 10.0056 20.5359 9.89649 20.5359 9.78109C20.5359 6.8182 20.5359 3.8546 20.5359 0.890324C20.5359 0.407701 20.5359 0.407701 21.0361 0.407701H24.3855C24.7494 0.407701 24.7516 0.407701 24.7516 0.777012C24.7516 4.66737 24.7516 8.55774 24.7516 12.4481C24.7472 13.1129 24.5375 13.7605 24.1504 14.3048C23.7635 14.8491 23.2174 15.2643 22.5852 15.4949C21.9575 15.7238 21.2751 15.7643 20.624 15.6112C19.9729 15.4581 19.3825 15.1183 18.9271 14.6346L13.6688 8.93964L11.0386 6.09007L10.8407 5.86764Z" fill="white"/>
<path d="M26.817 7.97661V0.451885C26.817 0.0322124 26.817 0.0322124 27.2425 0.0322124C29.8749 0.0322124 32.5073 0.0322124 35.1397 0.0322124C37.2241 0.000268547 39.2402 0.764582 40.7662 2.16517C42.292 3.56577 43.2093 5.49405 43.3262 7.54645C43.4252 9.25716 42.9608 10.9536 42.002 12.3827C41.0432 13.8118 39.6416 14.8969 38.0062 15.4762C37.1645 15.7835 36.2754 15.9447 35.3781 15.9526C32.6478 15.9526 29.9175 15.9526 27.1873 15.9526C26.8319 15.9526 26.817 15.9378 26.817 15.579C26.8156 13.047 26.8156 10.5128 26.817 7.97661ZM30.9113 7.9997C30.9113 9.20626 30.9113 10.4128 30.9113 11.6173C30.9113 11.8649 30.9815 11.9509 31.2411 11.9488C32.5626 11.9383 33.882 11.9341 35.2035 11.9488C36.2658 11.9691 37.2925 11.5725 38.0581 10.8463C38.8239 10.1201 39.2656 9.12366 39.2862 8.07628C39.3068 7.02891 38.9045 6.01638 38.168 5.26141C37.4316 4.50644 36.421 4.07088 35.3589 4.05057C33.9927 4.05057 32.6286 4.05057 31.2625 4.05057C30.9177 4.05057 30.9156 4.05057 30.9156 4.40939L30.9113 7.9997Z" fill="white"/>
</g>
<defs>
<linearGradient id="paint0_linear_3101_1194" x1="68.6623" y1="0.0429688" x2="64.3772" y2="14.063" gradientUnits="userSpaceOnUse">
<stop stop-color="#3463F8"/>
<stop offset="1" stop-color="#214FDF"/>
</linearGradient>
<linearGradient id="paint1_linear_3101_1194" x1="85.9238" y1="0.0937498" x2="78.3528" y2="14.4909" gradientUnits="userSpaceOnUse">
<stop stop-color="#3463F8"/>
<stop offset="1" stop-color="#214FDF"/>
</linearGradient>
<clipPath id="clip0_3101_1194">
<rect width="121" height="16" fill="white"/>
</clipPath>
</defs>
</svg>
