<svg width="101" height="35" viewBox="0 0 101 35" fill="none" xmlns="http://www.w3.org/2000/svg">
<g clip-path="url(#clip0_3291_3603)">
<path fill-rule="evenodd" clip-rule="evenodd" d="M70.929 2.4375C70.7762 2.4375 70.6523 2.56444 70.6523 2.72095V27.1126C70.6523 27.2692 70.7762 27.3961 70.929 27.3961H77.7468C77.8996 27.3961 78.0234 27.2692 78.0234 27.1126V2.72095C78.0234 2.56444 77.8996 2.4375 77.7468 2.4375H70.929Z" fill="#989998"/>
<path fill-rule="evenodd" clip-rule="evenodd" d="M86.4831 0H79.6652C79.5124 0 79.3887 0.139357 79.3887 0.311168V27.089C79.3887 27.2609 79.5124 27.4003 79.6652 27.4003H86.4831C86.6359 27.4003 86.7597 27.2609 86.7597 27.089V0.311168C86.7597 0.139357 86.6359 0 86.4831 0Z" fill="#989998"/>
<path fill-rule="evenodd" clip-rule="evenodd" d="M40.7614 6.50391C38.9952 6.50391 37.5573 7.12057 36.4475 8.35389L37.6342 6.80295C37.6342 6.63779 37.4998 6.50391 37.334 6.50391H30.2766C30.1108 6.50391 29.9766 6.63779 29.9766 6.80295V26.9516C29.9766 27.1168 30.1108 27.3932 30.2766 27.3932H37.334C37.4998 27.3932 37.6342 27.1168 37.6342 26.9516V17.5891C37.6342 13.6676 40.4872 13.8755 45.2336 13.8856C45.3995 13.8861 45.5347 13.752 45.5347 13.5867L45.5375 6.80305C45.5375 6.63779 45.4031 6.50391 45.2373 6.50391H40.7614Z" fill="#989998"/>
<path fill-rule="evenodd" clip-rule="evenodd" d="M21.3381 15.937C21.2624 15.8268 21.2711 15.6796 21.359 15.5787L28.248 7.67091C28.2944 7.61745 28.3202 7.549 28.3202 7.47819V7.30183C28.3202 7.13957 28.1881 7.00796 28.0252 7.00796H20.3453C20.2606 7.00796 20.18 7.04419 20.1239 7.10745C17.6547 9.74808 15.8485 11.668 14.7054 12.8671C14.6138 12.9631 10.1872 17.6164 10.0957 17.7124C10.0346 17.7765 11.5528 15.8846 14.6498 12.0371L14.6285 1.6622C14.6285 1.49985 14.4841 1.35938 14.3212 1.35938H7.4067C7.24375 1.35938 7.09939 1.49985 7.09939 1.6622V8.17316C7.09939 8.22573 6.35784 8.24248 4.87475 8.22342C4.7465 8.22342 4.63288 8.30597 4.59387 8.42778L2.87644 13.7751C2.81551 13.9648 2.95762 14.1587 3.15742 14.1587H6.81939C6.98224 14.1587 7.11423 14.2902 7.11423 14.4526L7.09939 16.3497C7.09939 16.4032 5.56784 16.4269 2.50475 16.4206C2.3764 16.4206 2.26289 16.5033 2.22377 16.625L0.506444 21.9724C0.445511 22.162 0.587524 22.3558 0.787424 22.3558H6.81939C6.98224 22.3558 7.11423 22.4875 7.11423 22.6497V27.1093C7.11423 27.2716 7.24632 27.4032 7.40927 27.4032H14.3507C14.5138 27.4032 14.646 27.2714 14.6456 27.1088L14.6406 23.3597C14.6403 23.2882 14.6664 23.2192 14.7138 23.1654L16.1732 21.5082C16.3017 21.3625 16.534 21.3784 16.6411 21.5402L20.4354 27.2711C20.4899 27.3535 20.5825 27.4032 20.6816 27.4032H28.3159C28.4787 27.4032 28.6108 27.2717 28.6109 27.1095L28.6112 26.654C28.6112 26.5949 28.5933 26.5371 28.5598 26.4882" fill="#989998"/>
<path fill-rule="evenodd" clip-rule="evenodd" d="M61.9289 6.77344C61.778 6.77344 61.6458 6.87576 61.6078 7.0209C60.5513 11.0394 59.6314 14.1246 58.3768 17.0417C58.3351 17.1384 57.7423 17.7103 56.5983 18.7572C57.4016 17.688 57.7876 17.1077 57.7567 17.0164L54.3641 6.99795C54.3185 6.8638 54.192 6.77344 54.0496 6.77344H47.2365C47.0031 6.77344 46.8426 7.0063 46.9272 7.22236C48.1081 10.2323 52.5808 21.6725 53.226 23.9032C53.2791 24.087 53.4693 24.172 53.6585 24.1218C60.4452 22.322 66.5233 17.2403 69.2777 7.20172C69.3363 6.98817 69.1848 6.77344 68.961 6.77344H61.9289Z" fill="#989998"/>
<path fill-rule="evenodd" clip-rule="evenodd" d="M66.5592 15.457C65.6977 16.8609 64.0253 19.1988 63.1132 20.2036C58.4243 25.3694 47.3897 28.5636 47.4495 28.694C47.4893 28.7809 48.3635 30.547 50.0719 33.9921C50.1379 34.1356 50.3302 34.2108 50.505 34.1603C56.5097 32.4283 59.8957 30.5396 62.6451 26.0709C64.4781 23.0917 65.7828 19.5537 66.5592 15.457Z" fill="#989998"/>
<path d="M87.5391 27.1277V25.7713C87.5391 25.6214 87.6613 25.5 87.8121 25.5H89.2086C89.3594 25.5 89.4816 25.6214 89.4816 25.7713V27.1277C89.4816 27.2776 89.3594 27.399 89.2086 27.399H87.8121C87.6613 27.399 87.5391 27.2776 87.5391 27.1277Z" fill="#989998"/>
<path d="M90.2227 27.1277V20.3454C90.2227 20.1957 90.3448 20.0742 90.4956 20.0742H91.8733C92.0245 20.0742 92.146 20.1957 92.146 20.3454V27.1277C92.146 27.2776 92.0245 27.399 91.8733 27.399H90.4956C90.3448 27.399 90.2227 27.2776 90.2227 27.1277Z" fill="#989998"/>
<path d="M96.7213 27.399C95.9868 27.399 95.3432 27.2462 94.7905 26.9406C94.2387 26.6349 93.8075 26.2067 93.4987 25.656C93.19 25.1052 93.0352 24.4637 93.0352 23.7316C93.0352 22.9927 93.1882 22.3495 93.4933 21.8021C93.7994 21.2547 94.2297 20.8298 94.786 20.5276C95.3414 20.2253 95.9868 20.0742 96.7213 20.0742C97.455 20.0742 98.0986 20.2253 98.6513 20.5276C99.204 20.8298 99.6343 21.2547 99.943 21.8021C100.252 22.3495 100.407 22.9927 100.407 23.7316C100.407 24.4637 100.252 25.1052 99.943 25.656C99.6343 26.2067 99.204 26.6349 98.6513 26.9406C98.0986 27.2462 97.455 27.399 96.7213 27.399ZM96.7555 25.7713C97.2335 25.7713 97.6089 25.5916 97.8816 25.2323C98.1544 24.8729 98.2912 24.3728 98.2912 23.7317C98.2912 23.0907 98.1562 22.5922 97.8861 22.2361C97.6161 21.88 97.2398 21.7019 96.7555 21.7019C96.2712 21.7019 95.8941 21.88 95.624 22.2361C95.354 22.5922 95.2199 23.0907 95.2199 23.7317C95.2199 24.3728 95.354 24.8729 95.624 25.2323C95.8941 25.5916 96.2712 25.7713 96.7555 25.7713Z" fill="#989998"/>
</g>
<defs>
<clipPath id="clip0_3291_3603">
<rect width="99.9181" height="34.1825" fill="white" transform="translate(0.492188)"/>
</clipPath>
</defs>
</svg>
