<svg width="32" height="32" viewBox="0 0 32 32" fill="none" xmlns="http://www.w3.org/2000/svg">
<g clip-path="url(#clip0_2946_6213)">
<path d="M28.5422 32H3.45777C1.54813 32 0 30.4519 0 28.5422V3.45777C0 1.54813 1.54813 0 3.45777 0H28.5422C30.4519 0 31.9999 1.54813 31.9999 3.45777V28.5422C32 30.4519 30.4519 32 28.5422 32Z" fill="white"/>
<path d="M28.5422 32H3.45777C1.54813 32 0 30.4519 0 28.5422V3.45777C0 1.54813 1.54813 0 3.45777 0H28.5422C30.4519 0 31.9999 1.54813 31.9999 3.45777V28.5422C32 30.4519 30.4519 32 28.5422 32Z" fill="white"/>
<path d="M17.556 16.0012C17.556 19.8096 14.4897 22.897 10.7072 22.897C6.92475 22.897 3.8584 19.8096 3.8584 16.0012C3.8584 12.1928 6.92469 9.10547 10.7072 9.10547C14.4896 9.10547 17.556 12.1928 17.556 16.0012ZM25.0693 16.0012C25.0693 19.5862 23.5361 22.4924 21.6449 22.4924C19.7537 22.4924 18.2205 19.5862 18.2205 16.0012C18.2205 12.4162 19.7537 9.51006 21.6449 9.51006C23.5361 9.51006 25.0693 12.4163 25.0693 16.0012ZM28.1425 16.0012C28.1425 19.2132 27.6032 21.817 26.9381 21.817C26.2729 21.817 25.7337 19.2132 25.7337 16.0012C25.7337 12.7892 26.2729 10.1854 26.9381 10.1854C27.6033 10.1854 28.1425 12.7892 28.1425 16.0012Z" fill="black"/>
</g>
<defs>
<clipPath id="clip0_2946_6213">
<rect width="32" height="32" fill="white"/>
</clipPath>
</defs>
</svg>
