<svg width="123" height="34" viewBox="0 0 123 34" fill="none" xmlns="http://www.w3.org/2000/svg">
<g clip-path="url(#clip0_3291_3896)">
<path d="M61.5944 7.58063V26.6228C61.5934 26.6947 61.5647 26.7633 61.5144 26.8141C61.4641 26.865 61.396 26.8939 61.3249 26.8949H59.3629C58.9125 26.8952 58.4693 26.7815 58.0738 26.5642C57.6783 26.3468 57.3431 26.0328 57.099 25.6508L48.1946 11.759L48.5 18.6976V26.6228C48.4995 26.659 48.492 26.6948 48.4779 26.7281C48.4637 26.7613 48.4432 26.7914 48.4175 26.8167C48.3918 26.842 48.3614 26.8619 48.3281 26.8753C48.2948 26.8887 48.2592 26.8953 48.2233 26.8949H45.6289C45.5577 26.8939 45.4897 26.865 45.4393 26.8141C45.389 26.7633 45.3603 26.6947 45.3594 26.6228V7.58063C45.3603 7.50877 45.389 7.44012 45.4393 7.38931C45.4897 7.3385 45.5577 7.30953 45.6289 7.30859H47.5801C48.0299 7.30884 48.4726 7.42241 48.8679 7.63903C49.2632 7.85564 49.5987 8.16844 49.8439 8.54906L58.7484 22.419L58.4717 15.5058V7.58063C58.4717 7.50848 58.5001 7.43929 58.5506 7.38827C58.6012 7.33725 58.6697 7.30859 58.7412 7.30859H61.3356C61.4049 7.31228 61.4702 7.34244 61.5183 7.39297C61.5663 7.4435 61.5935 7.51059 61.5944 7.58063Z" fill="#989998"/>
<path d="M88.11 26.8951H85.3646C85.3217 26.8947 85.2795 26.8839 85.2416 26.8638C85.2036 26.8436 85.171 26.8146 85.1464 26.7791C85.1218 26.7436 85.1059 26.7027 85.1001 26.6598C85.0943 26.6169 85.0988 26.5732 85.1131 26.5324L92.3861 7.57C92.4172 7.4906 92.4719 7.42287 92.5427 7.37612C92.6135 7.32936 92.6969 7.30586 92.7814 7.30885H96.2203C96.3018 7.30956 96.3812 7.33478 96.4484 7.3813C96.5156 7.42782 96.5676 7.49352 96.5976 7.57L103.849 26.5324C103.863 26.5732 103.868 26.6169 103.862 26.6598C103.856 26.7027 103.84 26.7436 103.816 26.7791C103.791 26.8146 103.759 26.8436 103.721 26.8638C103.683 26.8839 103.64 26.8947 103.598 26.8951H100.852C100.797 26.8953 100.743 26.8789 100.698 26.8478C100.652 26.8167 100.617 26.7726 100.597 26.721L94.7362 11.1245C94.7173 11.072 94.6829 11.0266 94.6376 10.9946C94.5922 10.9625 94.5382 10.9453 94.4829 10.9453C94.4275 10.9453 94.3735 10.9625 94.3282 10.9946C94.2829 11.0266 94.2484 11.072 94.2295 11.1245L88.3687 26.721C88.3482 26.7731 88.3125 26.8177 88.2663 26.8488C88.22 26.8799 88.1655 26.8961 88.11 26.8951Z" fill="#989998"/>
<path d="M122.909 26.456L117.454 19.4231C120.533 18.8355 122.334 16.739 122.334 13.5218C122.334 9.82579 119.951 7.30859 115.736 7.30859H108.129C108.076 7.30859 108.023 7.31922 107.974 7.33986C107.925 7.3605 107.881 7.39075 107.843 7.42886C107.806 7.46696 107.776 7.51218 107.756 7.56188C107.736 7.61159 107.726 7.6648 107.727 7.71845C107.727 8.41107 107.999 9.07531 108.484 9.56506C108.97 10.0548 109.628 10.33 110.314 10.33H115.42C117.968 10.33 119.19 11.6466 119.19 13.5472C119.19 15.4478 117.997 16.7934 115.42 16.7934H108.129C108.022 16.7944 107.92 16.838 107.844 16.9147C107.769 16.9915 107.727 17.0952 107.727 17.2033V26.6337C107.727 26.7059 107.755 26.775 107.806 26.8261C107.856 26.8771 107.925 26.9057 107.996 26.9057H110.591C110.662 26.9048 110.73 26.8758 110.78 26.825C110.83 26.7742 110.859 26.7056 110.86 26.6337V19.5935H113.853L118.586 25.8285C118.839 26.1621 119.166 26.432 119.54 26.617C119.914 26.802 120.325 26.8971 120.742 26.8949H122.711C122.76 26.8921 122.808 26.8758 122.848 26.8478C122.889 26.8198 122.921 26.781 122.941 26.7358C122.962 26.6906 122.97 26.6406 122.964 26.5913C122.958 26.5419 122.939 26.4952 122.909 26.456Z" fill="#989998"/>
<path d="M79.905 7.30859H67.8672C67.7718 7.30859 67.6804 7.34681 67.6131 7.41483C67.5457 7.48285 67.5078 7.57511 67.5078 7.6713C67.5078 8.02044 67.5759 8.36616 67.7083 8.68873C67.8407 9.01129 68.0347 9.30438 68.2793 9.55126C68.5239 9.79814 68.8142 9.99397 69.1338 10.1276C69.4534 10.2612 69.7959 10.33 70.1418 10.33H79.905C79.9405 10.3304 79.9758 10.3237 80.0087 10.3102C80.0416 10.2967 80.0715 10.2767 80.0967 10.2514C80.1218 10.226 80.1416 10.1958 80.155 10.1626C80.1684 10.1294 80.175 10.0938 80.1745 10.0579V7.58063C80.1745 7.5449 80.1676 7.50953 80.154 7.47652C80.1405 7.44352 80.1206 7.41353 80.0956 7.38827C80.0706 7.36301 80.0409 7.34297 80.0082 7.3293C79.9755 7.31563 79.9404 7.30859 79.905 7.30859ZM79.905 23.8735H70.9215C70.8503 23.8726 70.7823 23.8436 70.732 23.7928C70.6817 23.742 70.653 23.6733 70.652 23.6015V18.6904C70.652 18.6183 70.6804 18.5491 70.731 18.4981C70.7815 18.447 70.8501 18.4184 70.9215 18.4184H79.2259C79.2973 18.4184 79.3659 18.3897 79.4164 18.3387C79.467 18.2877 79.4954 18.2185 79.4954 18.1463V15.6509C79.4954 15.5788 79.467 15.5096 79.4164 15.4585C79.3659 15.4075 79.2973 15.3789 79.2259 15.3789H67.9103C67.8032 15.3798 67.7008 15.4234 67.6255 15.5002C67.5501 15.577 67.5078 15.6807 67.5078 15.7887V26.4887C67.5078 26.5964 67.5502 26.6997 67.6257 26.7759C67.7012 26.8521 67.8035 26.8949 67.9103 26.8949H79.905C79.9765 26.8949 80.0451 26.8662 80.0956 26.8152C80.1461 26.7642 80.1745 26.695 80.1745 26.6229V24.1456C80.175 24.1097 80.1684 24.0741 80.155 24.0409C80.1416 24.0077 80.1218 23.9775 80.0967 23.9521C80.0715 23.9268 80.0416 23.9067 80.0087 23.8932C79.9758 23.8797 79.9405 23.873 79.905 23.8735Z" fill="#989998"/>
<path d="M26.031 2.43492L19.2682 12.5654C19.1586 12.7116 19.108 12.8943 19.1264 13.0767C19.1448 13.2591 19.231 13.4276 19.3676 13.5485C19.5042 13.6694 19.6811 13.7335 19.8626 13.7281C20.0442 13.7227 20.217 13.6481 20.3462 13.5193L26.9904 7.69783C27.0288 7.66231 27.0767 7.63894 27.1281 7.63063C27.1795 7.62231 27.2322 7.6294 27.2796 7.65103C27.3271 7.67266 27.3672 7.70787 27.395 7.75229C27.4228 7.79672 27.4371 7.8484 27.436 7.90094V26.1416C27.4355 26.1969 27.4182 26.2508 27.3865 26.296C27.3548 26.3412 27.3102 26.3756 27.2586 26.3945C27.2071 26.4135 27.151 26.416 27.0979 26.402C27.0449 26.3879 26.9974 26.3578 26.9617 26.3157L6.83864 2.01418C6.51685 1.62876 6.11592 1.31853 5.66361 1.10496C5.21129 0.891405 4.7184 0.779618 4.21905 0.777344L3.51834 0.777344C2.60438 0.777344 1.72786 1.14381 1.0816 1.79614C0.435333 2.44846 0.0722656 3.3332 0.0722656 4.25572L0.0722656 29.9428C0.0722656 30.8653 0.435333 31.75 1.0816 32.4023C1.72786 33.0547 2.60438 33.4211 3.51834 33.4211C4.10723 33.4211 4.68628 33.2687 5.20023 32.9785C5.71418 32.6883 6.14589 32.27 6.45415 31.7635L13.2169 21.6331C13.3265 21.4869 13.3772 21.3042 13.3587 21.1218C13.3403 20.9394 13.2541 20.7708 13.1175 20.65C12.981 20.5291 12.8041 20.4649 12.6225 20.4703C12.441 20.4758 12.2682 20.5504 12.1389 20.6792L5.49471 26.5006C5.45634 26.5362 5.40849 26.5595 5.35708 26.5678C5.30568 26.5762 5.25299 26.5691 5.20554 26.5474C5.1581 26.5258 5.11798 26.4906 5.09018 26.4462C5.06237 26.4018 5.0481 26.3501 5.04913 26.2975V8.05691C5.04967 8.00153 5.06694 7.94764 5.09864 7.90243C5.13034 7.85723 5.17495 7.82286 5.22652 7.80394C5.27808 7.78501 5.33414 7.78242 5.3872 7.79652C5.44026 7.81061 5.4878 7.84071 5.52346 7.88281L25.6465 32.1843C25.9683 32.5697 26.3692 32.8799 26.8215 33.0935C27.2739 33.3071 27.7668 33.4189 28.2661 33.4211H28.9848C29.8956 33.4163 30.7675 33.0477 31.4099 32.3959C32.0523 31.7441 32.4129 30.8621 32.4129 29.9428V4.25572C32.4129 3.3332 32.0498 2.44846 31.4036 1.79614C30.7573 1.14381 29.8808 0.777344 28.9668 0.777344C28.3779 0.777415 27.7989 0.929812 27.2849 1.21999C26.771 1.51017 26.3393 1.92845 26.031 2.43492Z" fill="#989998"/>
</g>
<defs>
<clipPath id="clip0_3291_3896">
<rect width="122.894" height="32.6438" fill="white" transform="translate(0.0683594 0.769531)"/>
</clipPath>
</defs>
</svg>
