<svg width="119" height="19" viewBox="0 0 119 19" fill="none" xmlns="http://www.w3.org/2000/svg">
<path d="M14.3314 1.26953V10.9678L0.351562 1.26953V17.8634H4.17902V8.16529L18.1586 17.8634V1.26953H14.3314Z" fill="#989998"/>
<path d="M21.8711 17.8634V1.26953H37.4523V4.31456H25.8919V7.79994H37.4523V10.845H25.8919V14.8184H37.4523V17.8634H21.8711Z" fill="#989998"/>
<path d="M66.2079 17.8634L58.2246 1.26953H62.8782L68.677 14.1898L74.5032 1.26953H78.9995L71.0161 17.8634H66.2079Z" fill="#989998"/>
<path d="M113.973 5.83007C113.681 5.08212 113.12 4.45737 112.389 4.06717C111.683 3.70886 110.702 3.52971 109.447 3.52971C108.02 3.52971 106.93 3.69746 106.178 4.03295C105.423 4.36658 105.044 4.85531 105.044 5.49374C105.005 6.02747 105.27 6.54004 105.737 6.83655C106.198 7.12394 107.041 7.35555 108.264 7.53139L111.961 8.08377C114.156 8.41781 115.766 9.00462 116.789 9.84418C117.812 10.684 118.324 11.8387 118.325 13.3084C118.325 14.9705 117.583 16.2603 116.099 17.1776C114.615 18.0957 112.498 18.5548 109.748 18.5548C107.752 18.5548 106.096 18.3313 104.781 17.8844C103.465 17.4378 102.458 16.7587 101.762 15.847C101.066 14.9359 100.651 13.7778 100.518 12.3728H104.567C104.735 13.4925 105.23 14.3118 106.051 14.8306C106.873 15.3485 108.105 15.6079 109.749 15.6088C111.222 15.6088 112.335 15.4197 113.08 15.0443C113.827 14.6709 114.2 14.1135 114.2 13.3795C114.221 12.8254 113.94 12.3002 113.458 11.9899C112.964 11.6537 112.178 11.413 111.106 11.2706L108.086 10.8631C105.639 10.544 103.85 9.96458 102.718 9.12488C101.587 8.28739 101.021 7.10894 101.02 5.58954C101.003 4.61559 101.361 3.6695 102.027 2.93067C102.697 2.17923 103.673 1.59975 104.957 1.19224C106.443 0.756606 107.993 0.550298 109.547 0.581134C111.995 0.581134 113.889 0.96895 115.231 1.74458C116.571 2.51821 117.451 3.73599 117.871 5.39791L113.973 5.83007Z" fill="#989998"/>
<path d="M99.0306 9.56771C99.0306 11.3726 98.6015 12.9507 97.7432 14.3019C96.8691 15.6661 95.5738 16.7595 94.0225 17.4428C92.402 18.184 90.4724 18.5548 88.2336 18.5548C86.0826 18.5548 84.2053 18.1995 82.6018 17.489C81.0489 16.822 79.7451 15.7464 78.8546 14.3977C77.9614 13.047 77.5144 11.437 77.5137 9.56771C77.5137 7.76033 77.9438 6.18226 78.8039 4.83349C79.678 3.46935 80.9732 2.37592 82.5244 1.69262C84.1454 0.948934 86.0751 0.577436 88.3135 0.578126C90.4617 0.578126 92.3389 0.93414 93.9453 1.64617C95.4977 2.31404 96.8014 3.38956 97.6926 4.73768C98.5855 6.08845 99.0315 7.69846 99.0306 9.56771ZM94.7127 9.56771C94.7127 7.71367 94.1486 6.27552 93.0204 5.25324C91.8929 4.22917 90.3061 3.71768 88.2602 3.71879C86.2318 3.71879 84.653 4.23435 83.5239 5.26548C82.3966 6.29453 81.8334 7.7286 81.8345 9.56771C81.8345 11.4217 82.3976 12.8599 83.5239 13.8822C84.6514 14.9036 86.239 15.415 88.2868 15.4166C90.3151 15.4166 91.893 14.9009 93.0204 13.8695C94.1477 12.8384 94.7118 11.4045 94.7127 9.56771Z" fill="#989998"/>
<path d="M54.6629 17.8634L50.8261 11.6569H45.6868V17.8634H41.9004V1.26953H50.5314C55.4339 1.26953 57.885 2.99714 57.8849 6.45236C57.8849 7.5665 57.6103 8.49585 57.0611 9.24042C56.5119 9.98539 55.6713 10.5663 54.5392 10.9831L58.9655 17.8634H54.6629ZM50.2365 8.79967C51.5313 8.79967 52.4862 8.60926 53.1009 8.22843C53.7156 7.84981 54.0228 7.24981 54.0228 6.42843C54.0228 5.60725 53.7323 5.01845 53.1513 4.66202C52.5692 4.30491 51.6144 4.12716 50.2869 4.12876H45.6867V8.79967H50.2365Z" fill="#989998"/>
</svg>
