<svg width="176" height="39" viewBox="0 0 176 39" fill="none" xmlns="http://www.w3.org/2000/svg">
<path fill-rule="evenodd" clip-rule="evenodd" d="M-0.00195312 38.2031V0.855469H15.0435H15.0436V0.855521L32.251 17.5544V38.203L15.0436 21.5043V38.2031H-0.00195312ZM15.0435 21.5041V0.855574L4.40466 11.1798L15.0435 21.5041ZM32.2511 17.5544V0.855469H47.2967V38.203H32.2511L42.8901 27.8787L32.2511 17.5544ZM133.143 18.4158C135.322 18.4158 136.756 20.0329 136.756 22.4982C136.756 24.9638 135.322 26.5808 133.143 26.5808C130.963 26.5808 129.528 24.9638 129.528 22.4982C129.528 20.0329 130.963 18.4158 133.143 18.4158ZM129.741 29.1789V27.5088C130.511 28.6753 132 29.391 133.621 29.3911C137.634 29.3911 139.999 26.5809 139.999 22.4984C139.999 18.4159 137.634 15.6058 133.674 15.6058C131.92 15.6058 130.511 16.348 129.741 17.4349V10.0918H126.498V29.1789H129.741ZM75.0386 10.6218H71.238V29.1789H74.7463V16.1093L82.8259 29.1789H86.5999V10.6218H83.0916V23.7177L75.0386 10.6218ZM97.9639 29.1788H101.233V15.8178H97.9639V23.1081C97.9639 25.0697 96.6882 26.5015 94.8545 26.5015C93.1797 26.5015 92.0636 25.2287 92.0636 23.3996V15.8178H88.7946V24.0888C88.7946 27.2171 90.7615 29.391 93.791 29.391C95.7047 29.391 97.2197 28.5691 97.9639 27.1109V29.1788ZM103.561 15.818H106.83V17.9121C107.495 16.5601 108.823 15.6058 110.71 15.6058C112.837 15.6058 114.299 16.5072 114.883 18.1509C115.494 16.7722 117.196 15.6058 119.322 15.6058C122.218 15.6058 124.079 17.7002 124.079 20.5366V29.1789H120.837V21.5176C120.837 19.6354 119.853 18.3895 118.285 18.3895C116.532 18.3895 115.441 19.6354 115.441 21.5176V29.1789H112.199V21.5176C112.199 19.6354 111.216 18.3895 109.647 18.3895C107.92 18.3895 106.83 19.6354 106.83 21.5176V29.1789H103.561V15.818H103.561ZM144.14 21.014H150.733C150.599 19.3174 149.429 18.0447 147.49 18.0447C145.655 18.0447 144.486 18.9993 144.14 21.014ZM154.054 24.7254C153.549 27.562 151.051 29.3911 147.755 29.3911C143.37 29.3911 140.925 25.9446 140.925 22.4453C140.925 18.9194 143.104 15.6058 147.49 15.6058C151.981 15.6058 154.001 18.8665 154.001 22.0475C154.001 22.4982 153.974 22.8961 153.948 23.1611H144.061C144.301 25.3086 145.683 26.687 147.755 26.687C149.429 26.687 150.52 25.9978 150.864 24.7254H154.054ZM158.956 22.8696C158.956 20.3247 159.779 18.5484 161.853 18.5484H163.952V15.8181H162.384C160.656 15.8181 159.62 16.4806 158.956 18.1772V15.8181H155.686V29.179H158.956V22.8696ZM164.416 24.7252H167.394C167.527 25.9977 168.51 26.7931 169.971 26.7931C171.247 26.7931 172.098 26.1566 172.098 25.3615C172.098 24.1134 170.802 23.8912 169.299 23.6334C167.227 23.2781 164.762 22.8555 164.762 19.5824C164.762 17.2494 166.809 15.6058 169.573 15.6058C172.709 15.6058 174.862 17.3291 174.995 19.9268H172.019C171.832 18.6808 170.689 18.0447 169.653 18.0447C168.484 18.0447 167.712 18.5749 167.712 19.4761C167.712 20.6573 168.956 20.8242 170.426 21.0214C172.553 21.3066 175.154 21.6554 175.154 25.229C175.154 27.7475 173.108 29.3911 169.971 29.3911C166.729 29.391 164.577 27.5881 164.416 24.7252Z" fill="#989998"/>
</svg>
