<svg width="159" height="47" viewBox="0 0 159 47" fill="none" xmlns="http://www.w3.org/2000/svg">
<g clip-path="url(#clip0_3291_3809)">
<path d="M51.6522 28.5273C51.025 27.9004 50.5275 27.1561 50.188 26.337C49.8485 25.5178 49.6738 24.6397 49.6738 23.753C49.6738 22.8662 49.8485 21.9882 50.188 21.169C50.5275 20.3498 51.025 19.6055 51.6522 18.9787C52.9803 17.7374 54.7302 17.0469 56.5481 17.0469C58.3659 17.0469 60.1159 17.7374 61.4439 18.9787C62.0711 19.6055 62.5687 20.3498 62.9081 21.169C63.2476 21.9882 63.4223 22.8662 63.4223 23.753C63.4223 24.6397 63.2476 25.5178 62.9081 26.337C62.5687 27.1561 62.0711 27.9004 61.4439 28.5273C60.1159 29.7686 58.3659 30.4591 56.5481 30.4591C54.7302 30.4591 52.9803 29.7686 51.6522 28.5273ZM53.1204 20.3157C52.3015 21.112 51.785 22.1682 51.6593 23.3035C51.5336 24.4387 51.8065 25.5824 52.4313 26.5386C53.0561 27.4947 53.994 28.2039 55.0842 28.5446C56.1744 28.8853 57.3491 28.8364 58.4072 28.4062C59.4653 27.976 60.3408 27.1913 60.884 26.1865C61.4271 25.1817 61.604 24.0193 61.3843 22.8985C61.1647 21.7776 60.5621 20.768 59.6799 20.0425C58.7977 19.3171 57.6907 18.9209 56.5485 18.9219C55.912 18.9065 55.2792 19.0223 54.6894 19.2621C54.0996 19.5019 53.5655 19.8605 53.1204 20.3157Z" fill="#989998"/>
<path d="M68.2715 30.2524V17.247H73.8266C74.5093 17.2069 75.1931 17.3056 75.8366 17.5372C76.4801 17.7688 77.0699 18.1284 77.5705 18.5944C78.4368 19.4984 78.9198 20.7026 78.9181 21.9547C78.9165 23.2068 78.4304 24.4097 77.5617 25.3114C77.0637 25.779 76.476 26.1406 75.834 26.3743C75.1921 26.608 74.5095 26.7088 73.8274 26.6708H70.2418V30.2564H68.2715V30.2524ZM70.2394 24.8092H73.358C74.3019 24.8839 75.2413 24.6168 76.0048 24.0568C76.5584 23.4961 76.8688 22.74 76.8688 21.9521C76.8688 21.1642 76.5584 20.4081 76.0048 19.8474C75.2438 19.2815 74.3034 19.0107 73.358 19.0854H70.2394V24.8092Z" fill="#989998"/>
<path d="M93.1504 17.2539H95.1199V24.7786C95.1471 25.529 95.0238 26.2774 94.7572 26.9794C94.4907 27.6815 94.0862 28.3231 93.5678 28.8663C92.3685 29.8976 90.8394 30.4646 89.2577 30.4646C87.6761 30.4646 86.1469 29.8976 84.9476 28.8663C84.4293 28.323 84.0249 27.6814 83.7585 26.9794C83.4921 26.2773 83.3689 25.529 83.3963 24.7786V17.2539H85.3659V24.6106C85.3339 25.1418 85.4078 25.6741 85.5832 26.1765C85.7586 26.6789 86.0321 27.1415 86.3878 27.5373C87.1906 28.2154 88.2076 28.5874 89.2585 28.5874C90.3094 28.5874 91.3264 28.2154 92.1293 27.5373C92.4847 27.1414 92.758 26.6788 92.9333 26.1764C93.1086 25.674 93.1824 25.1418 93.1504 24.6106V17.2539Z" fill="#989998"/>
<path d="M100.598 30.2593V17.2539H102.567V28.3826H109.832V30.2585L100.598 30.2593Z" fill="#989998"/>
<path d="M114.541 28.5273C113.914 27.9004 113.416 27.1561 113.077 26.337C112.737 25.5178 112.563 24.6397 112.562 23.753C112.563 22.8662 112.737 21.9882 113.077 21.169C113.416 20.3498 113.914 19.6055 114.541 18.9787C115.869 17.7374 117.619 17.0469 119.437 17.0469C121.255 17.0469 123.005 17.7374 124.333 18.9787C124.96 19.6055 125.457 20.3498 125.797 21.169C126.136 21.9882 126.311 22.8662 126.311 23.753C126.311 24.6397 126.136 25.5178 125.797 26.337C125.457 27.1561 124.96 27.9004 124.333 28.5273C123.005 29.7686 121.255 30.4591 119.437 30.4591C117.619 30.4591 115.869 29.7686 114.541 28.5273ZM116.009 20.3157C115.19 21.112 114.674 22.1682 114.548 23.3035C114.422 24.4387 114.695 25.5824 115.32 26.5386C115.945 27.4947 116.883 28.2039 117.973 28.5446C119.063 28.8853 120.238 28.8364 121.296 28.4062C122.354 27.976 123.23 27.1913 123.773 26.1865C124.316 25.1817 124.493 24.0193 124.273 22.8985C124.053 21.7776 123.451 20.768 122.569 20.0425C121.686 19.3171 120.579 18.9209 119.437 18.9219C118.801 18.907 118.169 19.023 117.58 19.2628C116.991 19.5025 116.457 19.8609 116.012 20.3157H116.009Z" fill="#989998"/>
<path d="M140.709 17.2539H142.678V24.7786C142.706 25.529 142.582 26.2774 142.316 26.9794C142.049 27.6815 141.645 28.3231 141.126 28.8663C139.927 29.8976 138.398 30.4646 136.816 30.4646C135.235 30.4646 133.705 29.8976 132.506 28.8663C131.988 28.323 131.584 27.6814 131.317 26.9793C131.051 26.2773 130.928 25.529 130.955 24.7786V17.2539H132.924V24.6106C132.893 25.1418 132.966 25.6741 133.142 26.1765C133.317 26.6789 133.591 27.1415 133.946 27.5373C134.749 28.2154 135.766 28.5874 136.817 28.5874C137.868 28.5874 138.885 28.2154 139.688 27.5373C140.043 27.1415 140.317 26.6789 140.492 26.1765C140.668 25.6741 140.742 25.1418 140.71 24.6106L140.709 17.2539Z" fill="#989998"/>
<path d="M147.344 26.9487L149.295 26.3889C149.334 26.7425 149.455 27.0821 149.648 27.3805C149.842 27.679 150.102 27.9279 150.41 28.1074C151.173 28.517 152.033 28.7126 152.899 28.6735C153.697 28.718 154.493 28.5479 155.203 28.1809C155.451 28.0534 155.658 27.8601 155.802 27.6223C155.946 27.3845 156.022 27.1116 156.021 26.8335C156.027 26.6352 155.985 26.4383 155.897 26.2601C155.81 26.0819 155.68 25.9279 155.519 25.8116C155.354 25.6805 155.176 25.5654 154.989 25.4677C154.759 25.3547 154.52 25.2613 154.274 25.1886C153.977 25.0959 153.713 25.0183 153.484 24.956C153.255 24.8944 152.956 24.82 152.583 24.7336C152.447 24.6961 152.343 24.6721 152.267 24.6601C151.655 24.5234 151.053 24.3468 150.465 24.1315C149.946 23.9345 149.448 23.6853 148.979 23.3879C148.517 23.1063 148.135 22.7091 147.873 22.2356C147.613 21.7472 147.482 21.2007 147.492 20.6475C147.478 20.1325 147.593 19.6222 147.826 19.163C148.06 18.7038 148.404 18.3103 148.829 18.0182C149.896 17.3178 151.158 16.9763 152.433 17.0435C153.768 16.9876 155.088 17.3444 156.213 18.0654C156.689 18.384 157.075 18.8197 157.334 19.3306C157.592 19.8415 157.715 20.4104 157.69 20.9825V21.2048H155.724V21.1121C155.74 20.7763 155.665 20.4425 155.508 20.1453C155.351 19.848 155.118 19.5981 154.832 19.4216C154.098 19.0025 153.26 18.8027 152.416 18.8459C151.674 18.8028 150.936 18.9737 150.289 19.3385C150.059 19.4708 149.868 19.6618 149.736 19.8918C149.604 20.1219 149.535 20.3829 149.536 20.6483C149.532 20.8936 149.597 21.1351 149.723 21.3455C149.838 21.5399 149.985 21.7128 150.159 21.8565C150.392 22.0276 150.649 22.1625 150.921 22.2564C151.262 22.387 151.553 22.4861 151.795 22.5538C152.036 22.6215 152.386 22.7111 152.845 22.8225C153.538 22.9963 154.086 23.1421 154.489 23.2599C154.961 23.404 155.423 23.5776 155.873 23.7797C156.306 23.9555 156.708 24.2001 157.063 24.5042C157.354 24.7845 157.593 25.1146 157.769 25.4789C157.973 25.9025 158.075 26.3682 158.066 26.8383C158.085 27.3678 157.966 27.8931 157.72 28.3624C157.474 28.8316 157.11 29.2285 156.664 29.5139C155.52 30.2012 154.197 30.5312 152.865 30.4615C151.545 30.5126 150.237 30.2009 149.083 29.5603C148.609 29.2911 148.205 28.9147 147.903 28.4612C147.601 28.0076 147.409 27.4896 147.344 26.9487Z" fill="#989998"/>
<path d="M0.342057 23.4302C0.342057 20.0165 0.35245 16.6036 0.334858 13.19C0.315051 12.7868 0.412506 12.3865 0.615446 12.0375C0.818385 11.6885 1.11811 11.4058 1.47834 11.2236C5.22334 9.07046 8.96648 6.91434 12.7077 4.7553C14.8532 3.51905 17.0043 2.2932 19.1417 1.04335C19.5068 0.804738 19.9332 0.677068 20.3693 0.675791C20.8054 0.674514 21.2326 0.799682 21.599 1.03615C27.4823 4.43677 33.3706 7.82967 39.2639 11.2148C39.541 11.3545 39.7843 11.5529 39.9768 11.7963C40.1694 12.0396 40.3065 12.322 40.3786 12.6238C40.4108 12.7779 40.4261 12.935 40.4242 13.0924C40.4242 19.9976 40.4242 26.9031 40.4242 33.8088C40.4344 34.1804 40.3402 34.5475 40.1524 34.8683C39.9645 35.1891 39.6905 35.4509 39.3615 35.624C38.1788 36.3141 36.989 36.9938 35.8015 37.6775C31.1102 40.3792 26.419 43.0804 21.7277 45.7811C21.4815 45.9332 21.2195 46.0584 20.9465 46.1545C20.6616 46.2403 20.3616 46.2632 20.067 46.2218C19.7724 46.1804 19.4902 46.0756 19.24 45.9146C17.6557 44.9977 16.0695 44.084 14.4814 43.1734C13.5458 42.6345 12.615 42.0851 11.673 41.5573C11.3002 41.3687 10.99 41.0761 10.7798 40.715C10.5697 40.3538 10.4686 39.9396 10.4887 39.5222C10.4935 37.5463 10.4887 35.5688 10.4887 33.5921C10.4629 33.0783 10.6285 32.5733 10.9534 32.1745C11.2784 31.7757 11.7396 31.5115 12.248 31.433C12.7613 31.3546 13.2855 31.4661 13.7225 31.7465C15.1699 32.584 16.6191 33.4191 18.0702 34.2518C18.6979 34.614 19.3336 34.9627 19.9485 35.3441C20.0699 35.4313 20.2157 35.4782 20.3652 35.4782C20.5146 35.4782 20.6604 35.4313 20.7818 35.3441C23.3891 33.8275 26.0013 32.3201 28.6183 30.8221C29.258 30.4543 29.8921 30.0777 30.5374 29.7218C30.6505 29.6718 30.7452 29.5879 30.8087 29.4818C30.8721 29.3757 30.9011 29.2525 30.8917 29.1293C30.8837 25.347 30.8837 21.5646 30.8917 17.7823C30.9025 17.6595 30.8756 17.5363 30.8146 17.4291C30.7536 17.322 30.6614 17.236 30.5502 17.1826C27.2706 15.3029 23.995 13.4163 20.7234 11.5227C20.6155 11.4505 20.4882 11.4128 20.3583 11.4146C20.2285 11.4165 20.1023 11.4578 19.9965 11.5331C16.7366 13.4197 13.4719 15.2986 10.2025 17.1698C10.076 17.2355 9.97285 17.3386 9.90728 17.4652C9.84172 17.5917 9.8169 17.7355 9.83622 17.8767C9.84209 24.1357 9.84209 30.3956 9.83622 36.6563C9.84523 36.8801 9.83077 37.1041 9.79305 37.3248C9.72826 37.6425 9.58979 37.9405 9.38881 38.1949C9.18784 38.4492 8.92994 38.6529 8.6359 38.7894C8.34186 38.9259 8.01988 38.9915 7.69587 38.9809C7.37185 38.9702 7.05486 38.8837 6.7704 38.7282C6.27062 38.4611 5.78762 38.1684 5.29664 37.8822C4.00708 37.1396 2.71726 36.3972 1.42717 35.6552C1.06589 35.4596 0.766275 35.1672 0.561954 34.8107C0.398873 34.5085 0.317812 34.1689 0.326853 33.8256C0.340714 30.3605 0.345788 26.8953 0.342057 23.4302ZM7.77235 36.9026V36.3389C7.77235 30.1443 7.77076 23.95 7.76756 17.7559C7.74499 17.2733 7.86185 16.7943 8.10418 16.3763C8.34652 15.9583 8.70408 15.6188 9.13414 15.3986C12.4393 13.5077 15.7379 11.608 19.0297 9.69951C19.432 9.44323 19.899 9.30709 20.3759 9.30709C20.8529 9.30709 21.3199 9.44323 21.7221 9.69951C25.0172 11.6053 28.3157 13.5048 31.6177 15.3978C32.0536 15.623 32.4153 15.969 32.6597 16.3945C32.904 16.8199 33.0206 17.3067 32.9955 17.7967C32.9875 21.5662 32.9875 25.3355 32.9955 29.1045C33.0198 29.6007 32.9003 30.0934 32.6514 30.5234C32.4024 30.9533 32.0346 31.3023 31.5921 31.5282C28.2864 33.4162 24.9927 35.3241 21.6942 37.2217C21.5253 37.3241 21.3467 37.4093 21.1608 37.476C20.8166 37.593 20.4507 37.6322 20.0895 37.5907C19.7283 37.5492 19.3809 37.4281 19.0721 37.2361C17.0549 36.0681 15.0353 34.9038 13.0132 33.7432C12.8917 33.6736 12.7693 33.6081 12.591 33.5097V33.9647C12.591 35.7431 12.5982 37.5231 12.5846 39.3023C12.573 39.4234 12.6 39.545 12.6616 39.6498C12.7232 39.7546 12.8163 39.8373 12.9276 39.8861C15.2957 41.237 17.6578 42.5982 20.0141 43.9699C20.1171 44.0454 20.2411 44.0867 20.3688 44.088C20.4965 44.0893 20.6213 44.0505 20.7258 43.9771C26.4832 40.6479 32.2471 37.328 38.0173 34.0175C38.1332 33.9631 38.2292 33.8738 38.2919 33.7621C38.3545 33.6504 38.3807 33.5219 38.3667 33.3946C38.3577 26.7655 38.3577 20.1365 38.3667 13.5074C38.3777 13.38 38.3487 13.2523 38.2838 13.1421C38.2189 13.0319 38.1213 12.9447 38.0045 12.8925C32.2599 9.59264 26.5176 6.28742 20.7778 2.97689C20.6426 2.89693 20.5067 2.82496 20.3684 2.74899C14.3684 6.20559 8.38541 9.6518 2.41953 13.0876V33.8264C4.18914 34.8403 5.94276 35.8495 7.77235 36.9026Z" fill="#989998"/>
<path d="M13.7779 23.4413C13.7779 22.4537 13.7915 21.4654 13.7723 20.4778C13.7544 20.221 13.8139 19.9646 13.943 19.7419C14.0721 19.5191 14.265 19.3401 14.4968 19.228C16.2256 18.2471 17.9483 17.255 19.6649 16.2517C19.8745 16.1138 20.1197 16.0399 20.3706 16.0391C20.6216 16.0382 20.8673 16.1104 21.0778 16.2469C22.8189 17.2598 24.5643 18.2657 26.3139 19.2648C26.5262 19.3732 26.7027 19.5406 26.8222 19.7468C26.9418 19.953 26.9994 20.1893 26.988 20.4274C26.9843 22.4436 26.9843 24.4592 26.988 26.4743C26.999 26.7187 26.9389 26.961 26.815 27.1719C26.6911 27.3828 26.5087 27.5532 26.2899 27.6626C24.552 28.6547 22.8179 29.654 21.0874 30.6605C20.8779 30.7985 20.6327 30.8725 20.3818 30.8735C20.1309 30.8745 19.8851 30.8024 19.6745 30.6661C17.9446 29.6591 16.2101 28.66 14.4712 27.669C14.2463 27.5574 14.0597 27.3816 13.935 27.1638C13.8103 26.9459 13.7531 26.6959 13.7707 26.4456C13.7907 25.4436 13.7779 24.4425 13.7779 23.4413ZM20.3854 17.1777C20.3444 17.1924 20.3043 17.2094 20.2654 17.2288C18.5534 18.2132 16.8445 19.2008 15.1293 20.178C15.0497 20.2212 14.9855 20.2882 14.9458 20.3696C14.9061 20.451 14.8928 20.5428 14.9078 20.6321C14.9126 22.5153 14.9142 24.3985 14.9078 26.2816C14.8998 26.3839 14.924 26.4861 14.9769 26.574C15.0297 26.6618 15.1088 26.731 15.2028 26.7718C16.3032 27.3939 17.3947 28.0297 18.4902 28.6598L20.3725 29.7441C20.5021 29.6737 20.6165 29.6122 20.73 29.5474C22.3293 28.6278 23.9206 27.7042 25.5239 26.795C25.6291 26.747 25.7167 26.6672 25.7741 26.5667C25.8315 26.4663 25.8558 26.3503 25.8437 26.2352C25.8315 24.3779 25.8315 22.5212 25.8437 20.6649C25.8547 20.5502 25.8293 20.4349 25.771 20.3354C25.7127 20.2359 25.6245 20.1573 25.5191 20.1108C23.8934 19.188 22.2773 18.2516 20.6564 17.3192C20.5653 17.2704 20.4757 17.2241 20.3854 17.1761V17.1777Z" fill="#989998"/>
</g>
<defs>
<clipPath id="clip0_3291_3809">
<rect width="157.727" height="45.5685" fill="white" transform="translate(0.349609 0.691406)"/>
</clipPath>
</defs>
</svg>
