<svg width="163" height="28" viewBox="0 0 163 28" fill="none" xmlns="http://www.w3.org/2000/svg">
<g clip-path="url(#clip0_3291_3613)">
<mask id="mask0_3291_3613" style="mask-type:luminance" maskUnits="userSpaceOnUse" x="-15" y="-36" width="201" height="92">
<path d="M185.118 -35.2695H-14.9121V55.9552H185.118V-35.2695Z" fill="white"/>
</mask>
<g mask="url(#mask0_3291_3613)">
<path d="M10.8562 20.107C10.9449 20.107 27.6896 20.1057 27.7778 20.103C32.3714 19.9629 36.0523 16.1958 36.0523 11.5691C36.0523 6.92392 32.3417 3.14509 27.7221 3.03386C27.6524 3.03217 10.9262 3.03125 10.8562 3.03125C6.13975 3.03125 2.31641 6.85377 2.31641 11.5691C2.31641 16.2845 6.13975 20.107 10.8562 20.107Z" stroke="#989998" stroke-width="3.32081" stroke-miterlimit="10"/>
<mask id="mask1_3291_3613" style="mask-type:luminance" maskUnits="userSpaceOnUse" x="2" y="-110" width="92" height="201">
<path d="M93.8906 90.7373L93.8906 -109.293L2.66589 -109.293L2.66589 90.7373L93.8906 90.7373Z" fill="white"/>
<path d="M37.2422 11.5652C37.2422 6.25654 32.8859 1.95312 27.5121 1.95312C22.1383 1.95312 17.7819 6.25654 17.7819 11.5652C17.7819 16.8738 22.1383 21.1774 27.5121 21.1774C32.8859 21.1774 37.2422 16.8738 37.2422 11.5652Z" fill="black"/>
</mask>
<g mask="url(#mask1_3291_3613)">
<path d="M19.403 20.1188C24.1194 20.1188 27.9428 16.2962 27.9428 11.5809C27.9428 6.86548 24.1194 3.04297 19.403 3.04297C14.6866 3.04297 10.8633 6.86548 10.8633 11.5809C10.8633 16.2962 14.6866 20.1188 19.403 20.1188Z" stroke="#989998" stroke-width="3.32081" stroke-miterlimit="10"/>
</g>
<path d="M27.6257 20.107C32.3421 20.107 36.1654 16.2845 36.1654 11.5691C36.1654 6.85377 32.3421 3.03125 27.6257 3.03125C22.9093 3.03125 19.0859 6.85377 19.0859 11.5691C19.0859 16.2845 22.9093 20.107 27.6257 20.107Z" stroke="#989998" stroke-width="3.32081" stroke-miterlimit="10"/>
<mask id="mask2_3291_3613" style="mask-type:luminance" maskUnits="userSpaceOnUse" x="30" y="-8" width="135" height="40">
<path d="M164.478 -7.50391H30.0117V31.9358H164.478V-7.50391Z" fill="white"/>
</mask>
<g mask="url(#mask2_3291_3613)">
<path d="M47.7861 2.50391C45.4565 2.50391 43.3393 3.28847 41.8929 4.65146L41.6344 2.70389H38.9355V20.6965H42.0622V11.7002C42.0622 7.67895 43.9917 5.27911 47.2322 5.27911C50.9681 5.27911 51.7529 8.31891 51.7529 10.8757V20.6965H54.9072V10.6757C54.9072 3.30078 49.9218 2.50391 47.78 2.50391H47.7861Z" fill="#989998"/>
<path d="M60.1548 4.59282L59.9394 2.69141H57.2344V20.6841H60.361V11.5247C60.361 8.70024 61.4719 5.66659 63.9123 5.66659H66.7527V2.69141H63.8785C62.4167 2.69141 61.0903 3.3929 60.1579 4.59282H60.1517H60.1548Z" fill="#989998"/>
<path d="M82.8516 17.866V9.02347C82.8516 4.87913 80.2143 2.50391 75.6259 2.50391C71.5791 2.50391 68.7849 4.38378 68.154 7.51896L68.0124 8.2143H71.1268L71.2437 7.79279C71.6961 6.17443 73.2871 5.20834 75.4936 5.20834C78.1617 5.20834 79.6942 6.5221 79.6942 8.82349V9.63266H74.7212C70.2159 9.63266 67.5293 11.8141 67.5293 15.4569C67.5293 19.0997 70.7359 20.8873 73.9087 20.8873C76.6076 20.8873 78.4571 20.2443 80.0143 18.7182C80.4759 19.9489 81.6114 20.6873 83.1532 20.6873H84.8642V17.8813H83.1532C82.9901 17.8813 82.9009 17.869 82.8547 17.8598L82.8485 17.866H82.8516ZM74.4534 18.2813C73.0409 18.2813 70.6775 17.8998 70.6775 15.3277C70.6775 13.254 71.9361 12.2079 74.4196 12.2079H79.685V13.0171C79.685 16.2168 77.6293 18.2844 74.4473 18.2844H74.4534V18.2813Z" fill="#989998"/>
<path d="M106.586 2.50391C104.017 2.50391 101.964 3.50692 100.468 5.49448C99.2252 3.58076 97.268 2.50391 94.9723 2.50391C92.7996 2.50391 90.9717 3.44231 89.8022 4.59915L89.5776 2.70389H86.8418V20.6965H89.9961V11.1987C89.9961 7.54357 91.741 5.27295 94.5507 5.27295C97.1141 5.27295 98.5174 7.12822 98.5174 10.5065V20.6904H101.644V11.0695C101.644 7.44204 103.349 5.27295 106.199 5.27295C109.507 5.27295 110.199 8.11892 110.199 10.5065V20.6904H113.326V10.3465C113.326 3.27001 108.614 2.50698 106.586 2.50698V2.50391Z" fill="#989998"/>
<path d="M124.558 2.50391C122.068 2.50391 119.917 3.39308 118.548 4.94067L118.203 2.70389H115.482V27.2961H118.609V18.3921C120.172 19.9981 122.311 20.8965 124.687 20.8965C127.063 20.8965 129.057 20.0381 130.568 18.4813C132.186 16.8199 133.045 14.5062 133.045 11.7956C133.045 6.32519 129.558 2.50391 124.558 2.50391ZM129.823 11.7002C129.823 15.5769 127.564 18.1859 124.201 18.1859C120.837 18.1859 118.578 15.5892 118.578 11.7279C118.578 7.86663 120.905 5.20834 124.235 5.20834C127.564 5.20834 129.826 7.8174 129.826 11.6941L129.82 11.7002H129.823Z" fill="#989998"/>
<path d="M142.76 2.50391C137.624 2.50391 134.174 6.18674 134.174 11.6664C134.174 17.146 137.691 20.8965 142.923 20.8965C146.767 20.8965 149.656 18.8013 150.644 15.2938L150.853 14.5585H147.699L147.551 14.9185C146.739 16.9337 144.865 18.1859 142.664 18.1859C139.685 18.1859 137.58 15.8907 137.427 12.4817V12.3463H150.983L151.05 11.8448C151.112 11.3833 151.106 11.088 151.023 10.8726C150.949 5.86061 147.647 2.50391 142.76 2.50391ZM137.679 9.79881C138.205 7.04822 140.236 5.1745 142.794 5.1745C145.351 5.1745 147.24 6.96823 147.72 9.79881H137.679Z" fill="#989998"/>
<path d="M159.702 2.69141C158.241 2.69141 156.914 3.3929 155.982 4.59282L155.766 2.69141H153.064V20.6841H156.191V11.5247C156.191 8.70024 157.302 5.66659 159.742 5.66659H162.583V2.69141H159.705H159.702Z" fill="#989998"/>
</g>
</g>
</g>
<defs>
<clipPath id="clip0_3291_3613">
<rect width="161.96" height="26.4556" fill="white" transform="translate(0.570312 0.863281)"/>
</clipPath>
</defs>
</svg>
