<svg width="199" height="59" viewBox="0 0 199 59" fill="none" xmlns="http://www.w3.org/2000/svg">
<rect x="4.19141" y="0.0546875" width="195" height="40" rx="20" transform="rotate(5.46888 4.19141 0.0546875)" fill="#3463F8"/>
<path d="M30.6093 24.2865L26.6753 23.9098L29.0087 20.0185L30.6093 24.2865ZM32.5158 29.3874L37.4692 29.8616L32.408 17.4186L26.3238 16.8361L19.3281 28.1248L23.9151 28.5639L25.006 26.7396L31.775 27.3877L32.5158 29.3874ZM40.4336 30.1454L44.9569 30.5785L45.7819 21.9619L50.8945 22.4514L51.204 19.2182L36.4555 17.8061L36.1459 21.0394L41.2586 21.5288L40.4336 30.1454ZM51.4004 31.1954L55.9238 31.6285L56.3553 27.1211L63.7614 27.8302L63.3299 32.3376L67.8373 32.7691L68.9718 20.9193L64.4644 20.4877L64.0634 24.6766L56.6572 23.9675L57.0583 19.7787L52.535 19.3456L51.4004 31.1954ZM79.9028 24.8751L85.0951 25.3722C86.0029 25.4591 86.4328 25.8378 86.3687 26.5067L86.3672 26.5227C86.3016 27.2075 85.8077 27.4978 84.8999 27.4109L79.7076 26.9137L79.9028 24.8751ZM79.4331 29.7806L83.7653 30.1954C84.6254 30.2777 85.2298 30.5124 85.5641 30.882C85.8984 31.2515 86.0407 31.7795 85.9736 32.4803L85.841 33.8659C85.8105 34.1845 85.8384 34.3961 85.9248 34.5008L90.5437 34.943L90.5513 34.8634C90.418 34.5774 90.397 34.1253 90.4564 33.5042L90.6242 31.7522C90.6943 31.0195 90.5308 30.377 90.1465 29.858C89.7463 29.3375 89.189 28.9466 88.4572 28.6998C88.7182 28.6604 88.9647 28.6037 89.2317 28.5007C89.4972 28.4136 89.7673 28.2787 90.042 28.096C90.3151 27.9293 90.564 27.6799 90.7553 27.3607C90.9451 27.0574 91.0598 26.6987 91.0994 26.2846L91.1162 26.1094C91.3099 24.0866 89.7351 22.9072 86.4223 22.59L75.6555 21.5592L74.521 33.409L79.0443 33.8421L79.4331 29.7806ZM101.071 23.7675C100.004 23.6653 99.0249 23.6519 98.1511 23.7129C97.2773 23.7739 96.5264 23.8949 95.9157 24.0615C95.3051 24.228 94.768 24.4659 94.29 24.7577C93.812 25.0495 93.4296 25.3504 93.1427 25.6605C92.8543 25.9865 92.6281 26.3345 92.4307 26.7174C92.2318 27.1163 92.1012 27.4735 92.0229 27.7874C91.9431 28.1173 91.8936 28.4662 91.8601 28.8166L91.8143 29.2944C91.7793 29.6607 91.7616 30.0127 91.7789 30.3358C91.7947 30.6748 91.8552 31.0503 91.9748 31.4797C92.0944 31.909 92.2505 32.2936 92.4718 32.6684C92.6931 33.0432 93.0114 33.4112 93.4254 33.7884C93.8378 34.1815 94.32 34.517 94.888 34.7964C95.4544 35.0917 96.1687 35.353 97.0151 35.5787C97.8614 35.8044 98.8269 35.9611 99.894 36.0633L100.611 36.1319C101.662 36.2325 102.64 36.2618 103.513 36.2008C104.387 36.1398 105.138 36.0188 105.75 35.8364C106.345 35.6683 106.898 35.4319 107.378 35.1242C107.856 34.8324 108.222 34.53 108.51 34.204C108.799 33.878 109.025 33.53 109.224 33.1311C109.423 32.7322 109.553 32.3751 109.633 32.0452C109.712 31.7312 109.777 31.3839 109.812 31.0175L109.858 30.5397C109.891 30.1893 109.893 29.8359 109.877 29.4968C109.86 29.1737 109.799 28.7982 109.68 28.3689C109.559 27.9554 109.403 27.5708 109.181 27.196C108.959 26.8372 108.64 26.4691 108.226 26.092C107.812 25.7148 107.33 25.3793 106.762 25.0999C106.194 24.8205 105.48 24.5593 104.633 24.3336C103.787 24.1079 102.839 23.9367 101.788 23.8361L101.071 23.7675ZM105.143 30.4259C105.11 30.7763 105.014 31.1046 104.856 31.411C104.698 31.7173 104.446 31.9986 104.132 32.2578C103.8 32.5315 103.332 32.7277 102.71 32.8449C102.088 32.9622 101.379 32.9747 100.551 32.8954C99.7227 32.8162 99.0136 32.6679 98.4267 32.4188C97.8382 32.1857 97.4151 31.9041 97.1574 31.574C96.8838 31.2424 96.7057 30.92 96.6088 30.5892C96.5118 30.2585 96.4802 29.9179 96.5137 29.5675L96.532 29.3764C96.5655 29.026 96.6438 28.712 96.8002 28.4216C96.9566 28.1312 97.1926 27.8484 97.5227 27.5907C97.8368 27.3315 98.3041 27.1512 98.9261 27.0339C99.5307 26.9311 100.257 26.9041 101.117 26.9865C101.945 27.0658 102.637 27.2284 103.226 27.4456C103.799 27.6773 104.224 27.9429 104.499 28.2586C104.774 28.5743 104.968 28.8982 105.066 29.213C105.165 29.5278 105.198 29.8525 105.165 30.2029L105.143 30.4259ZM116.193 25.4403L111.686 25.0088L110.551 36.8586L115.059 37.2901L116.193 25.4403ZM121.737 29.9733L117.245 29.5433L116.948 32.6491L121.439 33.0791L121.737 29.9733ZM121.279 34.7514L116.788 34.3214L116.491 37.4272L120.982 37.8572L121.279 34.7514ZM135.232 35.3157C136.076 35.3965 136.718 35.233 137.161 34.8093C137.602 34.4014 137.862 33.8638 137.923 33.2267L138.185 30.4872L135.111 30.1929L134.977 31.5945C134.945 31.929 134.803 32.0761 134.58 32.0547C134.42 32.0395 134.009 31.8072 133.314 31.3389C132.829 31.0352 132.497 30.8105 132.315 30.6967C132.133 30.5828 131.855 30.4598 131.484 30.3117C131.11 30.1796 130.734 30.0793 130.336 30.0411C129.444 29.9557 128.765 30.164 128.333 30.653C127.9 31.142 127.65 31.7448 127.579 32.4775L127.354 34.8347L130.428 35.129L130.56 33.7434C130.591 33.4248 130.718 33.2762 130.972 33.3006C131.132 33.3159 131.543 33.5482 132.208 33.9975C132.84 34.4438 133.371 34.7679 133.772 34.9509C134.171 35.1498 134.658 35.2608 135.232 35.3157ZM154.4 32.0879C154.418 31.8967 154.421 31.7041 154.406 31.5258C154.389 31.3635 154.329 31.1488 154.239 30.9152C154.133 30.68 153.994 30.4577 153.821 30.2483C153.646 30.0548 153.376 29.8521 153.044 29.6275C152.695 29.4172 152.278 29.2327 151.797 29.058C151.315 28.8833 150.703 28.7283 149.978 28.5785C149.237 28.4272 148.414 28.3001 147.49 28.2117L146.789 28.1446C145.706 28.0409 144.762 27.9987 143.924 28.015C143.087 28.0312 142.404 28.1105 141.878 28.2369C141.35 28.3793 140.902 28.5292 140.549 28.6883C140.195 28.8633 139.933 29.0794 139.749 29.319C139.564 29.5745 139.446 29.8042 139.379 29.9908C139.297 30.1758 139.26 30.3973 139.237 30.6362L139.224 30.7795C139.158 31.4644 139.359 32.0462 139.844 32.5266C140.312 33.0054 140.924 33.3372 141.646 33.5188C140.82 33.5844 140.106 33.8214 139.487 34.2444C138.867 34.6673 138.524 35.2291 138.457 35.9299L138.44 36.1051C138.407 36.4555 138.408 36.7771 138.462 37.0555C138.498 37.3483 138.659 37.6851 138.928 38.0645C139.181 38.4423 139.566 38.7846 140.053 39.0723C140.54 39.36 141.269 39.6387 142.209 39.8895C143.149 40.1403 144.288 40.3297 145.61 40.4563L146.295 40.5218C147.585 40.6453 148.724 40.674 149.695 40.6062C150.666 40.5384 151.418 40.4015 151.951 40.2114C152.483 40.0213 152.926 39.7583 153.278 39.4384C153.615 39.117 153.836 38.8168 153.943 38.5377C154.05 38.2586 154.127 37.9606 154.161 37.6102L154.177 37.435C154.246 36.7183 154.016 36.1015 153.488 35.5688C152.959 35.052 152.303 34.6838 151.504 34.4627C152.214 34.4342 152.844 34.2374 153.428 33.8432C153.997 33.4476 154.321 32.9161 154.386 32.2312L154.4 32.0879ZM149.66 32.0681C149.647 32.2114 149.603 32.3358 149.53 32.4252C149.457 32.5147 149.335 32.6155 149.134 32.6928C148.934 32.77 148.64 32.8222 148.22 32.8463C147.799 32.8703 147.288 32.8375 146.683 32.7795C146.062 32.7201 145.554 32.6553 145.146 32.552C144.738 32.4486 144.459 32.3415 144.277 32.2277C144.095 32.1138 143.994 31.9917 143.939 31.89C143.885 31.7883 143.881 31.6594 143.895 31.516L143.899 31.4683C143.916 31.2931 143.978 31.1543 144.085 31.036C144.192 30.9337 144.473 30.8481 144.93 30.7793C145.386 30.7105 146.045 30.7093 146.874 30.7886C147.495 30.8481 148.001 30.9288 148.411 31.0162C148.819 31.1195 149.098 31.2266 149.28 31.3405C149.444 31.4688 149.547 31.575 149.601 31.6767C149.656 31.7783 149.677 31.8929 149.665 32.0203L149.66 32.0681ZM149.521 36.8767C149.451 37.6094 148.349 37.8735 146.215 37.6692C144.081 37.4648 143.064 36.9979 143.135 36.2652L143.139 36.2174C143.159 36.0104 143.224 35.8398 143.363 35.7245C143.503 35.6093 143.818 35.5109 144.322 35.4467C144.826 35.3824 145.533 35.3858 146.425 35.4712C147.317 35.5566 147.996 35.6859 148.479 35.8447C148.962 36.0034 149.268 36.1613 149.384 36.301C149.499 36.4406 149.546 36.6219 149.526 36.8289L149.521 36.8767ZM160.179 36.4505C160.944 36.5237 161.636 36.5097 162.241 36.4068C162.845 36.304 163.326 36.157 163.681 35.9661C164.021 35.7736 164.32 35.5128 164.557 35.2141C164.779 34.9139 164.95 34.6409 165.039 34.3762C165.127 34.1275 165.187 33.8439 165.214 33.5572L165.238 33.3023C165.264 33.0316 165.258 32.7578 165.221 32.4809C165.181 32.22 165.065 31.9196 164.905 31.5827C164.727 31.2603 164.482 30.9636 164.185 30.7101C163.872 30.4551 163.426 30.2357 162.852 30.02C162.278 29.8043 161.601 29.6591 160.837 29.5859L160.486 29.5524C159.531 29.4609 158.708 29.4946 158.017 29.6535C157.327 29.8125 156.806 30.0519 156.47 30.3733C156.118 30.6932 155.877 31.0238 155.718 31.3461C155.558 31.6683 155.477 32.0141 155.443 32.3645L155.419 32.6194C155.391 32.9061 155.396 33.1958 155.435 33.4567C155.473 33.7336 155.573 34.0325 155.749 34.3709C155.91 34.7077 156.153 35.0203 156.466 35.2753C156.78 35.5303 157.223 35.7657 157.797 35.9814C158.371 36.1971 159.049 36.3423 159.829 36.417L160.179 36.4505ZM171.703 30.7548L157.572 41.3603L160.996 41.6882L175.127 31.0827L171.703 30.7548ZM160.19 34.3298C159.568 34.2704 159.119 34.0987 158.856 33.8164C158.578 33.5326 158.464 33.2163 158.5 32.834L158.508 32.7544C158.545 32.3722 158.717 32.0833 159.027 31.8718C159.336 31.6603 159.81 31.5772 160.447 31.6381C161.658 31.754 162.238 32.2435 162.155 33.1036L162.146 33.1992C162.111 33.5655 161.923 33.8529 161.612 34.0803C161.285 34.3061 160.811 34.3893 160.19 34.3298ZM172.26 42.8952C173.025 42.9684 173.717 42.9543 174.322 42.8515C174.926 42.7486 175.406 42.6017 175.762 42.4108C176.102 42.2183 176.4 41.9575 176.638 41.6588C176.86 41.3586 177.03 41.0856 177.12 40.8209C177.208 40.5722 177.267 40.2886 177.295 40.0019L177.319 39.747C177.347 39.4604 177.341 39.1865 177.303 38.9097C177.264 38.6487 177.148 38.3483 176.971 38.01C176.793 37.6875 176.548 37.3908 176.251 37.1374C175.938 36.8824 175.493 36.6629 174.919 36.4473C174.345 36.2316 173.667 36.0864 172.903 36.0132L172.553 35.9796C171.772 35.9049 171.08 35.919 170.475 36.0218C169.871 36.1247 169.392 36.2556 169.052 36.4481C168.696 36.6391 168.4 36.8839 168.163 37.1667C167.926 37.4654 167.771 37.7399 167.683 37.9887C167.593 38.2533 167.536 38.521 167.508 38.8077L167.484 39.0626C167.456 39.3492 167.461 39.639 167.5 39.8999C167.538 40.1768 167.638 40.4757 167.814 40.814C167.991 41.1524 168.234 41.465 168.547 41.72C168.844 41.9735 169.288 42.2088 169.862 42.4245C170.42 42.6387 171.097 42.7839 171.878 42.8586L172.26 42.8952ZM172.27 40.7745C171.633 40.7135 171.184 40.5419 170.921 40.2596C170.643 39.9758 170.53 39.6435 170.567 39.2613L170.574 39.1817C170.655 38.3375 171.302 37.9654 172.528 38.0828C173.165 38.1438 173.615 38.3155 173.879 38.5818C174.142 38.8482 174.273 39.1661 174.238 39.5324L174.227 39.6439C174.192 40.0102 174.004 40.2976 173.693 40.5249C173.366 40.7508 172.891 40.834 172.27 40.7745Z" fill="white"/>
<rect x="4.19141" y="0.0546875" width="195" height="40" rx="20" transform="rotate(5.46888 4.19141 0.0546875)" stroke="#3463F8" stroke-width="2"/>
</svg>
