<svg width="224" height="84" viewBox="0 0 224 84" fill="none" xmlns="http://www.w3.org/2000/svg">
<rect x="0.998047" y="44.6875" width="219" height="40" rx="20" transform="rotate(-11.53 0.998047 44.6875)" fill="#3463F8"/>
<path d="M33.3465 60.1378L29.4742 60.9278L30.5681 56.5243L33.3465 60.1378ZM36.661 64.4585L41.5366 63.4639L33.0588 53.0442L27.0701 54.2659L23.6803 67.1066L28.1954 66.1855L28.7052 64.122L35.368 62.7628L36.661 64.4585ZM44.4545 62.8687L48.9068 61.9604L47.1766 53.4791L52.209 52.4525L51.5598 49.27L37.0428 52.2315L37.692 55.4139L42.7243 54.3873L44.4545 62.8687ZM55.2492 60.6666L59.7015 59.7583L58.7964 55.3217L66.0863 53.8346L66.9913 58.2712L71.428 57.3661L69.0486 45.7024L64.612 46.6074L65.4531 50.7305L58.1632 52.2176L57.3221 48.0945L52.8698 49.0028L55.2492 60.6666ZM80.6585 46.2896L85.7692 45.247C86.6628 45.0647 87.1846 45.3012 87.319 45.9597L87.3221 45.9753C87.4597 46.6495 87.0722 47.0714 86.1786 47.2537L81.0679 48.2963L80.6585 46.2896ZM81.6435 51.1182L85.9077 50.2483C86.7543 50.0756 87.4008 50.1233 87.8286 50.379C88.2563 50.6346 88.5468 51.0979 88.6875 51.7877L88.9657 53.1516C89.0297 53.4652 89.1183 53.6594 89.2315 53.7343L93.7779 52.8068L93.7619 52.7284C93.5508 52.4939 93.3985 52.0677 93.2738 51.4563L92.922 49.7318C92.7749 49.0107 92.4307 48.4441 91.9115 48.0601C91.3766 47.6793 90.7293 47.4684 89.9573 47.4463C90.1954 47.3324 90.4146 47.2061 90.6398 47.0295C90.8682 46.8686 91.0871 46.6606 91.2964 46.4057C91.5088 46.1664 91.6739 45.8551 91.7635 45.4939C91.8563 45.1483 91.8612 44.7718 91.778 44.3642L91.7428 44.1917C91.3367 42.2007 89.4859 41.5332 86.2251 42.1984L75.6273 44.3603L78.0067 56.0241L82.459 55.1158L81.6435 51.1182ZM100.578 39.0418C99.5279 39.256 98.5876 39.5295 97.7698 39.8433C96.952 40.1571 96.2693 40.4923 95.734 40.8301C95.1987 41.168 94.7546 41.5525 94.3828 41.9712C94.011 42.39 93.7333 42.7896 93.5496 43.17C93.3691 43.566 93.2545 43.965 93.1777 44.3889C93.1041 44.8285 93.0836 45.2083 93.1005 45.5314C93.1207 45.8702 93.1753 46.2183 93.2457 46.5632L93.3416 47.0335C93.4152 47.3941 93.5012 47.7358 93.6122 48.0397C93.7264 48.3594 93.894 48.7007 94.134 49.0764C94.3739 49.452 94.6356 49.7742 94.9567 50.0679C95.2779 50.3616 95.69 50.6205 96.1961 50.8602C96.7054 51.1155 97.2647 51.2954 97.8895 51.3965C98.5175 51.5134 99.277 51.5544 100.152 51.5228C101.028 51.4912 101.997 51.3588 103.047 51.1445L103.753 51.0006C104.787 50.7895 105.731 50.5317 106.549 50.2179C107.366 49.9041 108.049 49.5689 108.581 49.2154C109.101 48.8808 109.561 48.4931 109.929 48.0586C110.301 47.6399 110.563 47.2435 110.744 46.8474C110.924 46.4514 111.039 46.0524 111.112 45.6128C111.186 45.1732 111.206 44.7935 111.186 44.4547C111.169 44.1315 111.13 43.7802 111.057 43.4197L110.961 42.9493C110.89 42.6045 110.789 42.266 110.675 41.9463C110.564 41.6424 110.396 41.301 110.156 40.9254C109.919 40.5654 109.658 40.2432 109.336 39.9495C109.018 39.6714 108.606 39.4126 108.1 39.1729C107.594 38.9332 107.035 38.7534 106.41 38.6522C105.785 38.5511 105.026 38.5101 104.15 38.5417C103.275 38.5733 102.318 38.6868 101.284 38.8979L100.578 39.0418ZM106.419 44.2188C106.489 44.5637 106.494 44.9057 106.432 45.2448C106.371 45.584 106.212 45.9266 105.987 46.2664C105.75 46.625 105.359 46.9497 104.799 47.2437C104.238 47.5377 103.564 47.7568 102.749 47.9231C101.934 48.0894 101.213 48.1549 100.579 48.0883C99.9476 48.0374 99.4607 47.8918 99.1177 47.6515C98.7591 47.4144 98.4945 47.1581 98.3051 46.8701C98.1158 46.5821 97.9859 46.2657 97.9155 45.9208L97.8772 45.7327C97.8068 45.3878 97.7899 45.0647 97.8545 44.7412C97.9192 44.4178 98.0622 44.0783 98.3025 43.7354C98.5271 43.3956 98.9213 43.0866 99.4819 42.7926C100.03 42.5175 100.716 42.2795 101.563 42.1068C102.378 41.9405 103.087 41.8939 103.715 41.9291C104.33 41.9832 104.814 42.1132 105.169 42.3346C105.525 42.556 105.805 42.8091 105.991 43.0814C106.177 43.3537 106.304 43.6544 106.374 43.9993L106.419 44.2188ZM115.529 36.2206L111.092 37.1256L113.471 48.7894L117.908 47.8843L115.529 36.2206ZM122.155 38.9348L117.734 39.8366L118.358 42.8937L122.779 41.9918L122.155 38.9348ZM123.115 43.6379L118.694 44.5398L119.317 47.5968L123.738 46.695L123.115 43.6379ZM136.622 40.0985C137.453 39.929 138.02 39.5848 138.319 39.0503C138.622 38.5313 138.713 37.9411 138.586 37.314L138.035 34.6175L135.01 35.2347L135.291 36.6143C135.358 36.9436 135.265 37.1259 135.045 37.1707C134.889 37.2027 134.427 37.1009 133.626 36.8561C133.073 36.7076 132.69 36.5898 132.482 36.5341C132.275 36.4784 131.974 36.4419 131.575 36.409C131.18 36.3916 130.791 36.4057 130.399 36.4856C129.521 36.6647 128.932 37.0624 128.662 37.6565C128.391 38.2506 128.328 38.9004 128.475 39.6215L128.948 41.9417L131.974 41.3245L131.695 39.9606C131.632 39.647 131.709 39.4679 131.96 39.4167C132.117 39.3847 132.579 39.4865 133.345 39.722C134.08 39.964 134.683 40.1185 135.12 40.1765C135.559 40.2501 136.058 40.2137 136.622 40.0985ZM149.79 33.2157C149.95 33.9996 148.995 34.6026 146.941 35.0216C144.903 35.4373 143.82 35.2501 143.66 34.4662L143.654 34.4348C143.494 33.651 144.417 33.0544 146.455 32.6386C148.509 32.2197 149.624 32.4005 149.783 33.1844L149.79 33.2157ZM148.913 41.8044C150.136 41.5549 151.176 41.212 152.047 40.7568C152.92 40.3173 153.574 39.841 154.028 39.3403C154.465 38.8428 154.792 38.2862 155.006 37.6546C155.208 37.042 155.322 36.4799 155.314 35.959C155.309 35.4538 155.266 34.9237 155.151 34.3593L155.074 33.9831C154.284 30.1108 151.316 28.6913 146.174 29.7403L145.469 29.8842C144.246 30.1337 143.199 30.4452 142.322 30.7875C141.448 31.1454 140.784 31.4931 140.333 31.8463C139.883 32.1995 139.536 32.5805 139.315 33.0175C139.078 33.4577 138.96 33.841 138.937 34.2051C138.913 34.5692 138.939 34.9393 139.023 35.3469L139.051 35.488C139.275 36.5854 139.943 37.3799 141.053 37.8557C142.162 38.3316 143.86 38.3282 146.118 37.8676L146.321 37.8261C148.422 37.3975 149.885 36.7235 150.735 35.7664L150.748 35.8291C150.799 36.0799 150.803 36.3403 150.776 36.6072C150.733 36.8772 150.649 37.1881 150.487 37.5151C150.325 37.8421 150.013 38.1508 149.565 38.438C149.118 38.7253 148.553 38.922 147.864 39.0627C146.296 39.3826 145.307 39.2577 144.928 38.6818L140.429 39.5996L140.445 39.678C140.512 40.0072 140.623 40.3112 140.812 40.5991C141.002 40.8871 141.288 41.1716 141.688 41.4493C142.072 41.7302 142.553 41.9261 143.106 42.0746C143.658 42.2231 144.393 42.3018 145.272 42.2859C146.153 42.2856 147.141 42.1657 148.239 41.9419L148.913 41.8044ZM165.135 38.4787C169.713 37.5448 171.717 35.6826 171.142 32.8608L171.122 32.7667C171.007 32.2023 170.814 31.7355 170.568 31.3285C170.306 30.9248 169.94 30.5747 169.456 30.2816C168.972 29.9885 168.334 29.8247 167.509 29.7808C166.686 29.7525 165.708 29.8379 164.579 30.0682L164.438 30.0969C162.525 30.4871 161.232 31.1102 160.526 31.9727L160.139 30.0758L169.341 28.1985L168.763 25.361L155.155 28.1369L156.623 35.3327L160.997 34.4404C160.99 34.4091 161.012 34.3557 161.031 34.2865C161.052 34.2331 161.099 34.1419 161.205 34.0223C161.312 33.9026 161.433 33.7798 161.606 33.663C161.781 33.562 162.035 33.4449 162.382 33.3086C162.73 33.1723 163.131 33.0578 163.602 32.9619C165.358 32.6037 166.325 32.8636 166.504 33.7415L166.517 33.8042C166.6 34.2118 166.476 34.5637 166.166 34.8881C165.841 35.2157 165.174 35.4662 164.155 35.674C162.493 36.013 161.514 35.8536 161.182 35.1865L156.557 36.13L156.579 36.2397C156.64 36.5376 156.729 36.8134 156.846 37.0671C156.966 37.3365 157.19 37.6337 157.549 37.9524C157.911 38.2868 158.355 38.5392 158.879 38.7098C159.407 38.8961 160.145 38.9905 161.093 38.9931C162.043 39.0114 163.144 38.8848 164.383 38.6322L165.135 38.4787ZM173.64 29.3301L175.047 36.228L179.468 35.3261L177.089 23.6624L173.546 24.3851C173.245 25.949 172.182 26.9823 170.323 27.4758L170.818 29.9057L173.64 29.3301ZM184.764 29.0042C185.516 28.8506 186.174 28.6347 186.722 28.3596C187.27 28.0845 187.687 27.8037 187.971 27.517C188.24 27.2336 188.449 26.897 188.589 26.5419C188.713 26.19 188.796 25.879 188.805 25.5997C188.816 25.3361 188.79 25.0475 188.732 24.7653L188.681 24.5145C188.627 24.248 188.541 23.9879 188.424 23.7341C188.31 23.4961 188.112 23.2427 187.86 22.9675C187.595 22.7112 187.274 22.4991 186.916 22.3436C186.542 22.1913 186.052 22.1116 185.44 22.0731C184.828 22.0347 184.138 22.0938 183.385 22.2473L183.04 22.3177C182.1 22.5096 181.323 22.7824 180.709 23.1362C180.095 23.49 179.667 23.8713 179.439 24.277C179.196 24.6859 179.063 25.0723 179.004 25.4271C178.946 25.7819 178.97 26.1364 179.04 26.4813L179.091 26.7322C179.149 27.0143 179.238 27.2901 179.351 27.5282C179.469 27.7819 179.651 28.0385 179.919 28.3105C180.171 28.5856 180.495 28.8135 180.869 28.9658C181.243 29.1181 181.736 29.2135 182.348 29.2519C182.96 29.2904 183.651 29.2312 184.419 29.0745L184.764 29.0042ZM194.118 20.1884L183.705 34.4619L187.076 33.7743L197.489 19.5008L194.118 20.1884ZM184.153 26.9732C183.542 27.0979 183.062 27.0652 182.728 26.8719C182.379 26.6819 182.178 26.4128 182.101 26.0365L182.085 25.9581C182.008 25.5819 182.088 25.2552 182.323 24.9625C182.557 24.6698 182.986 24.4516 183.613 24.3237C184.804 24.0807 185.502 24.3792 185.675 25.2258L185.694 25.3198C185.768 25.6804 185.672 26.0103 185.441 26.3187C185.194 26.6303 184.765 26.8484 184.153 26.9732ZM198.201 31.6354C198.953 31.4819 199.611 31.266 200.159 30.9909C200.708 30.7158 201.124 30.4349 201.408 30.1483C201.677 29.8649 201.886 29.5283 202.026 29.1732C202.15 28.8213 202.233 28.5103 202.242 28.231C202.253 27.9674 202.227 27.6788 202.17 27.3966L202.118 27.1458C202.061 26.8636 201.975 26.6035 201.858 26.3497C201.744 26.1117 201.546 25.8583 201.278 25.5863C201.013 25.33 200.692 25.1179 200.334 24.9624C199.96 24.8101 199.47 24.7304 198.858 24.6919C198.246 24.6535 197.556 24.7126 196.804 24.8661L196.459 24.9365C195.69 25.0932 195.032 25.3091 194.484 25.5842C193.936 25.8593 193.517 26.1245 193.248 26.4079C192.963 26.6946 192.751 27.0154 192.608 27.3549C192.468 27.71 192.401 28.0178 192.389 28.2814C192.381 28.5607 192.404 28.8336 192.461 29.1158L192.512 29.3666C192.57 29.6488 192.659 29.9246 192.773 30.1627C192.89 30.4164 193.073 30.673 193.341 30.9449C193.608 31.2169 193.933 31.4447 194.307 31.597C194.665 31.7526 195.158 31.8479 195.77 31.8864C196.366 31.928 197.056 31.8689 197.825 31.7122L198.201 31.6354ZM197.59 29.6044C196.963 29.7324 196.483 29.6997 196.15 29.5064C195.801 29.3163 195.596 29.0316 195.519 28.6553L195.503 28.5769C195.333 27.7461 195.843 27.2013 197.05 26.955C197.677 26.8271 198.157 26.8597 198.487 27.0373C198.818 27.2149 199.035 27.4808 199.109 27.8414L199.131 27.9511C199.205 28.3117 199.109 28.6415 198.878 28.9499C198.631 29.2615 198.202 29.4797 197.59 29.6044Z" fill="white"/>
<rect x="0.998047" y="44.6875" width="219" height="40" rx="20" transform="rotate(-11.53 0.998047 44.6875)" stroke="#3463F8" stroke-width="2"/>
</svg>
