<svg width="266" height="89" viewBox="0 0 266 89" fill="none" xmlns="http://www.w3.org/2000/svg">
<rect x="0.240234" y="48.7266" width="262" height="40" rx="20" transform="rotate(-10.53 0.240234 48.7266)" fill="#3463F8"/>
<path d="M32.3152 64.7389L28.4297 65.4611L29.6003 61.0774L32.3152 64.7389ZM35.5538 69.1168L40.446 68.2074L32.1513 57.6413L26.1423 58.7583L22.5289 71.5378L27.0593 70.6957L27.6051 68.6414L34.2905 67.3987L35.5538 69.1168ZM43.3738 67.6632L47.8413 66.8327L46.2594 58.3225L51.3089 57.3839L50.7154 54.1906L36.1489 56.8982L36.7424 60.0915L41.792 59.1529L43.3738 67.6632ZM54.2053 65.6498L58.6728 64.8194L57.8453 60.3676L65.16 59.008L65.9875 63.4597L70.4392 62.6322L68.2638 50.9287L63.812 51.7562L64.581 55.8933L57.2663 57.253L56.4973 53.1159L52.0298 53.9463L54.2053 65.6498ZM79.8617 51.7185L84.9898 50.7653C85.8865 50.5986 86.4041 50.8441 86.5269 51.5048L86.5298 51.5205C86.6555 52.197 86.2607 52.6121 85.3641 52.7788L80.2359 53.732L79.8617 51.7185ZM80.7623 56.5635L85.041 55.7682C85.8904 55.6103 86.5361 55.6693 86.9593 55.9324C87.3825 56.1954 87.6648 56.6637 87.7935 57.3559L88.0479 58.7244C88.1064 59.039 88.1916 59.2348 88.3035 59.3116L92.8653 58.4636L92.8507 58.385C92.6437 58.1468 92.4989 57.7181 92.3849 57.1046L92.0632 55.3742C91.9287 54.6506 91.5945 54.078 91.082 53.6851C90.5539 53.295 89.9104 53.0729 89.1389 53.0373C89.3789 52.9276 89.6002 52.8051 89.8285 52.6324C90.0598 52.4755 90.2822 52.2714 90.4959 52.0202C90.7125 51.7846 90.883 51.4762 90.9789 51.1167C91.0777 50.7728 91.0891 50.3964 91.0131 49.9874L90.981 49.8144C90.6096 47.8166 88.7708 47.1168 85.4988 47.725L74.865 49.7017L77.0404 61.4052L81.5079 60.5748L80.7623 56.5635ZM99.9049 44.8194C98.851 45.0153 97.906 45.2723 97.0829 45.5718C96.2597 45.8713 95.5712 46.1945 95.0301 46.5229C94.489 46.8514 94.0383 47.2281 93.6592 47.6403C93.2802 48.0525 92.9955 48.4472 92.8052 48.8243C92.6179 49.2172 92.4964 49.614 92.4122 50.0366C92.3309 50.4748 92.3037 50.8541 92.315 51.1775C92.3292 51.5166 92.3778 51.8656 92.4422 52.2117L92.5299 52.6836C92.5971 53.0454 92.6772 53.3886 92.7829 53.6944C92.8915 54.016 93.0531 54.3602 93.2864 54.74C93.5198 55.1197 93.7758 55.4465 94.0918 55.7457C94.4078 56.045 94.8153 56.311 95.3172 56.5595C95.8219 56.8237 96.3779 57.0133 97.0009 57.1253C97.6268 57.2531 98.3855 57.3074 99.2613 57.291C100.137 57.2747 101.108 57.1593 102.162 56.9634L102.87 56.8318C103.908 56.6388 104.856 56.3975 105.679 56.0981C106.502 55.7986 107.191 55.4753 107.729 55.1312C108.255 54.8057 108.721 54.426 109.097 53.9981C109.476 53.5859 109.745 53.1941 109.932 52.8013C110.12 52.4084 110.241 52.0115 110.323 51.5733C110.404 51.1351 110.431 50.7557 110.417 50.4166C110.406 50.0932 110.373 49.7413 110.305 49.3795L110.218 48.9076C110.153 48.5615 110.058 48.2213 109.949 47.8997C109.843 47.5939 109.682 47.2496 109.448 46.8699C109.218 46.5058 108.962 46.1791 108.646 45.8798C108.333 45.5963 107.925 45.3303 107.423 45.0818C106.922 44.8333 106.366 44.6437 105.743 44.5317C105.12 44.4197 104.361 44.3654 103.485 44.3817C102.609 44.398 101.651 44.4948 100.613 44.6878L99.9049 44.8194ZM105.654 50.0976C105.719 50.4436 105.717 50.7857 105.65 51.1237C105.582 51.4617 105.418 51.8015 105.187 52.1373C104.944 52.4917 104.547 52.8096 103.982 53.0937C103.416 53.3778 102.739 53.5852 101.921 53.7372C101.103 53.8893 100.38 53.9422 99.7473 53.8645C99.1173 53.8026 98.633 53.6485 98.2943 53.4023C97.9399 53.1589 97.6798 52.8981 97.4955 52.6069C97.3112 52.3156 97.1868 51.997 97.1225 51.6509L97.0874 51.4622C97.0231 51.1161 97.0118 50.7927 97.0821 50.4704C97.1524 50.1482 97.3013 49.8113 97.5476 49.4726C97.7781 49.1368 98.1776 48.8347 98.7432 48.5505C99.296 48.285 99.9863 48.0591 100.836 47.9012C101.654 47.7491 102.363 47.7148 102.99 47.761C103.605 47.8259 104.086 47.9642 104.438 48.1918C104.789 48.4194 105.065 48.6774 105.246 48.9529C105.428 49.2284 105.549 49.5313 105.613 49.8773L105.654 50.0976ZM114.902 42.2595L110.45 43.087L112.626 54.7905L117.078 53.9631L114.902 42.2595ZM121.481 45.089L117.045 45.9135L117.615 48.981L122.051 48.1564L121.481 45.089ZM122.358 49.8081L117.922 50.6327L118.492 53.7002L122.928 52.8756L122.358 49.8081ZM135.925 46.5051C136.759 46.3501 137.331 46.0158 137.64 45.4865C137.951 44.973 138.053 44.3844 137.937 43.7552L137.434 41.0495L134.398 41.6139L134.655 42.9981C134.716 43.3285 134.62 43.5092 134.399 43.5501C134.242 43.5794 133.782 43.4695 132.986 43.2108C132.435 43.0527 132.054 42.9282 131.848 42.8689C131.642 42.8096 131.341 42.7679 130.943 42.7279C130.548 42.7037 130.159 42.711 129.765 42.7841C128.885 42.9478 128.289 43.3351 128.008 43.9244C127.727 44.5137 127.652 45.1623 127.787 45.8859L128.22 48.214L131.256 47.6497L131.001 46.2811C130.943 45.9665 131.024 45.7887 131.275 45.742C131.433 45.7127 131.893 45.8225 132.655 46.0714C133.386 46.3261 133.986 46.4912 134.421 46.5568C134.86 46.638 135.359 46.6103 135.925 46.5051ZM141.426 42.2765L142.713 49.1979L147.149 48.3734L144.974 36.6698L141.418 37.3307C141.09 38.889 140.009 39.9036 138.142 40.3646L138.595 42.8028L141.426 42.2765ZM164.486 38.8364C164.422 38.4903 164.329 38.1658 164.22 37.8443C164.115 37.5384 163.953 37.1942 163.72 36.8144C163.489 36.4504 163.233 36.1237 162.933 35.8215C162.617 35.5222 162.225 35.2532 161.739 35.0018C161.253 34.7504 160.713 34.5579 160.118 34.4243C159.511 34.3094 158.799 34.2463 157.955 34.2568C157.111 34.2673 156.184 34.3582 155.193 34.5424L154.485 34.674C153.478 34.8611 152.596 35.1065 151.805 35.4001C151.013 35.6937 150.356 36.0111 149.83 36.3366C149.308 36.6778 148.873 37.0516 148.51 37.4609C148.146 37.8702 147.877 38.262 147.706 38.6519C147.518 39.0448 147.397 39.4416 147.313 39.8641C147.231 40.3024 147.204 40.6817 147.216 41.0051C147.23 41.3442 147.275 41.6775 147.34 42.0236L147.428 42.4955C147.521 42.9989 147.656 43.462 147.835 43.9006C148.017 44.355 148.347 44.8145 148.798 45.3165C149.249 45.8185 149.809 46.2027 150.451 46.5064C151.094 46.8101 151.957 46.9913 153.048 47.0815C154.139 47.1717 155.358 47.0753 156.742 46.818L157.45 46.6864C158.819 46.432 159.991 46.084 160.976 45.6078C161.962 45.1317 162.703 44.6522 163.193 44.138C163.683 43.6237 164.052 43.067 164.293 42.4364C164.534 41.8057 164.676 41.2585 164.683 40.769C164.692 40.2953 164.667 39.8117 164.574 39.3083L164.486 38.8364ZM159.901 39.9979C159.965 40.3439 159.961 40.6702 159.894 41.0082C159.826 41.3462 159.693 41.6802 159.463 42.016C159.235 42.3675 158.87 42.6795 158.367 42.9519C157.867 43.2401 157.237 43.4387 156.498 43.5761C155.743 43.7164 155.083 43.7577 154.513 43.6683C153.93 43.5976 153.478 43.4377 153.139 43.1914C152.8 42.9452 152.556 42.6814 152.372 42.3902C152.187 42.099 152.082 41.7931 152.017 41.4471L151.982 41.2583C151.921 40.9279 151.909 40.6046 151.98 40.2823C152.034 39.9629 152.167 39.629 152.398 39.2932C152.613 38.9603 152.978 38.6484 153.496 38.373C154.002 38.1163 154.645 37.8991 155.416 37.7558C156.155 37.6184 156.818 37.5929 157.382 37.6507C157.949 37.7244 158.402 37.8843 158.737 38.1148C159.073 38.3453 159.318 38.6091 159.499 38.8846C159.68 39.1601 159.802 39.463 159.863 39.7934L159.901 39.9979ZM169.89 40.9728L165.454 41.7974L166.024 44.8648L170.46 44.0403L169.89 40.9728ZM184.918 32.2719C184.883 32.0831 184.832 31.8973 184.769 31.7301C184.708 31.5786 184.591 31.3887 184.44 31.189C184.273 30.9922 184.078 30.8169 183.854 30.6632C183.633 30.5253 183.318 30.4049 182.937 30.2804C182.543 30.1746 182.092 30.112 181.581 30.0768C181.07 30.0416 180.439 30.0613 179.7 30.1171C178.947 30.1759 178.12 30.2808 177.207 30.4503L176.515 30.579C175.446 30.7778 174.526 30.9975 173.726 31.244C172.925 31.4904 172.291 31.7548 171.82 32.0214C171.351 32.3037 170.962 32.5714 170.667 32.8216C170.374 33.0875 170.182 33.3673 170.072 33.6483C169.964 33.9449 169.914 34.1984 169.901 34.396C169.874 34.5964 169.899 34.8196 169.943 35.0555L169.969 35.1971C170.095 35.8735 170.449 36.3773 171.047 36.7055C171.629 37.0367 172.308 37.1872 173.052 37.1628C172.276 37.4535 171.655 37.8781 171.177 38.4553C170.698 39.0324 170.523 39.6671 170.652 40.3592L170.684 40.5323C170.748 40.8784 170.838 41.1871 170.967 41.4399C171.082 41.7114 171.329 41.9909 171.693 42.2814C172.04 42.5748 172.505 42.7977 173.052 42.9401C173.599 43.0825 174.377 43.1496 175.35 43.1314C176.323 43.1133 177.47 42.9814 178.776 42.7387L179.452 42.613C180.726 42.3761 181.828 42.0899 182.743 41.7571C183.658 41.4244 184.343 41.0854 184.803 40.7559C185.262 40.4263 185.616 40.0514 185.866 39.6469C186.1 39.2453 186.231 38.8956 186.257 38.5978C186.283 38.3 186.274 37.9924 186.21 37.6463L186.178 37.4733C186.046 36.7654 185.655 36.236 185.001 35.8693C184.35 35.5184 183.618 35.3453 182.789 35.3528C183.464 35.1298 184.015 34.767 184.468 34.2271C184.905 33.6901 185.07 33.0899 184.944 32.4135L184.918 32.2719ZM180.357 33.5592C180.383 33.7008 180.375 33.8325 180.329 33.9385C180.284 34.0446 180.194 34.1752 180.023 34.3047C179.852 34.4341 179.583 34.5654 179.186 34.7044C178.789 34.8433 178.288 34.9526 177.691 35.0637C177.077 35.1778 176.571 35.2556 176.15 35.2687C175.729 35.2818 175.432 35.2558 175.225 35.1965C175.019 35.1372 174.888 35.0475 174.808 34.9649C174.728 34.8822 174.688 34.7593 174.662 34.6177L174.653 34.5705C174.621 34.3974 174.642 34.2471 174.713 34.1037C174.787 33.9761 175.034 33.8162 175.454 33.6242C175.874 33.4323 176.507 33.2495 177.325 33.0974C177.939 32.9834 178.448 32.9213 178.866 32.8924C179.286 32.8793 179.584 32.9054 179.79 32.9646C179.984 33.0426 180.112 33.1165 180.192 33.1992C180.272 33.2819 180.324 33.3862 180.348 33.512L180.357 33.5592ZM181.548 38.2199C181.683 38.9435 180.696 39.5012 178.588 39.893C176.48 40.2848 175.375 40.116 175.24 39.3924L175.232 39.3452C175.194 39.1407 175.209 38.9589 175.311 38.8097C175.414 38.6604 175.689 38.479 176.156 38.2783C176.623 38.0775 177.304 37.8859 178.185 37.7222C179.066 37.5584 179.754 37.4956 180.262 37.5151C180.77 37.5346 181.108 37.6019 181.257 37.7044C181.407 37.8068 181.502 37.9682 181.54 38.1727L181.548 38.2199ZM195.675 39.5812C200.724 38.6426 203.005 36.819 202.503 34.1133L202.482 34.0032C202.327 33.1695 201.956 32.5713 201.38 32.1901C200.808 31.8245 200.17 31.6338 199.464 31.6023C199.982 31.4085 200.429 31.0976 200.773 30.6755C201.118 30.2534 201.253 29.7563 201.154 29.2214L201.136 29.127C201.081 28.8282 200.984 28.5695 200.858 28.3324C200.736 28.1111 200.497 27.8788 200.162 27.6483C199.81 27.4207 199.354 27.245 198.816 27.1498C198.277 27.0546 197.522 27.0161 196.554 27.0657C195.587 27.1153 194.456 27.2442 193.166 27.484L192.489 27.6097C191.577 27.7793 190.755 27.9972 190.033 28.229C189.314 28.4766 188.727 28.7322 188.269 28.9801C187.813 29.2438 187.427 29.5272 187.109 29.8305C186.794 30.1494 186.554 30.438 186.406 30.6933C186.246 30.9673 186.135 31.2482 186.075 31.5361C186.002 31.8426 185.983 32.0903 185.986 32.2849C185.99 32.4795 186.012 32.6869 186.047 32.8757L186.077 33.033L190.654 32.1821C190.637 32.0877 190.641 32.0219 190.645 31.956C190.652 31.9059 190.697 31.7999 190.778 31.6221C190.862 31.46 190.983 31.3236 191.154 31.1941C191.325 31.0647 191.594 30.9334 191.988 30.7787C192.37 30.6427 192.833 30.5078 193.383 30.4054C194.28 30.2388 194.984 30.173 195.489 30.1768C195.978 30.1834 196.298 30.238 196.413 30.3306C196.53 30.4389 196.62 30.5687 196.649 30.726L196.652 30.7418C196.737 31.198 196.337 31.5001 195.456 31.6638L191.649 32.3714L192.17 35.1714L196.087 34.4434C197.046 34.265 197.587 34.4575 197.686 34.9924C197.709 35.1182 197.711 35.2155 197.694 35.3C197.681 35.4002 197.619 35.5092 197.514 35.6427C197.409 35.7762 197.253 35.9028 197.045 36.0067C196.839 36.1262 196.552 36.2447 196.152 36.3679C195.754 36.5069 195.27 36.6133 194.703 36.7185C194.137 36.8238 193.656 36.8643 193.23 36.846C192.803 36.8276 192.468 36.776 192.256 36.6852C192.031 36.6131 191.829 36.488 191.668 36.3226C191.507 36.1572 191.402 36.0303 191.375 35.9703C191.347 35.9103 191.314 35.8188 191.275 35.6959L186.666 36.5526L186.692 36.6942C186.733 36.9144 186.79 37.1317 186.862 37.3461C186.934 37.5605 187.078 37.8104 187.26 38.0858C187.444 38.3771 187.654 38.631 187.921 38.8417C188.175 39.0711 188.524 39.283 188.948 39.4645C189.375 39.6618 189.857 39.8001 190.395 39.8953C190.934 39.9905 191.592 40.0309 192.371 40.0163C193.149 40.0018 193.992 39.8941 194.92 39.7215L195.675 39.5812ZM219.988 28.5197C219.924 28.1736 219.831 27.8491 219.722 27.5275C219.616 27.2217 219.455 26.8774 219.221 26.4977C218.991 26.1337 218.735 25.807 218.435 25.5047C218.119 25.2055 217.727 24.9365 217.241 24.6851C216.755 24.4337 216.214 24.2412 215.62 24.1076C215.013 23.9926 214.301 23.9296 213.457 23.9401C212.613 23.9506 211.686 24.0415 210.695 24.2257L209.987 24.3573C208.98 24.5444 208.098 24.7897 207.306 25.0834C206.515 25.377 205.858 25.6944 205.332 26.0199C204.81 26.3611 204.375 26.7349 204.011 27.1442C203.648 27.5535 203.379 27.9453 203.208 28.3352C203.02 28.728 202.899 29.1249 202.815 29.5474C202.733 29.9857 202.706 30.365 202.717 30.6884C202.732 31.0275 202.777 31.3608 202.842 31.7068L202.929 32.1788C203.023 32.6821 203.158 33.1453 203.337 33.5839C203.519 34.0383 203.849 34.4978 204.3 34.9998C204.751 35.5018 205.311 35.886 205.953 36.1897C206.596 36.4934 207.459 36.6746 208.55 36.7648C209.641 36.855 210.86 36.7586 212.244 36.5013L212.952 36.3697C214.321 36.1153 215.493 35.7672 216.478 35.2911C217.464 34.815 218.205 34.3355 218.695 33.8212C219.185 33.307 219.554 32.7503 219.795 32.1196C220.035 31.489 220.178 30.9418 220.184 30.4523C220.194 29.9786 220.169 29.495 220.076 28.9916L219.988 28.5197ZM215.403 29.6811C215.467 30.0272 215.463 30.3535 215.395 30.6915C215.328 31.0295 215.195 31.3635 214.964 31.6993C214.737 32.0508 214.372 32.3628 213.869 32.6352C213.369 32.9234 212.739 33.1219 212 33.2594C211.244 33.3997 210.585 33.441 210.015 33.3516C209.432 33.2809 208.979 33.121 208.641 32.8747C208.302 32.6285 208.058 32.3647 207.873 32.0735C207.689 31.7823 207.583 31.4764 207.519 31.1303L207.484 30.9416C207.423 30.6112 207.411 30.2879 207.482 29.9656C207.536 29.6462 207.669 29.3123 207.9 28.9765C208.115 28.6436 208.48 28.3316 208.998 28.0563C209.504 27.7995 210.147 27.5823 210.918 27.4391C211.657 27.3016 212.319 27.2761 212.884 27.334C213.451 27.4077 213.903 27.5676 214.239 27.7981C214.575 28.0286 214.819 28.2924 215.001 28.5679C215.182 28.8434 215.304 29.1463 215.365 29.4766L215.403 29.6811ZM226.048 28.4836C226.803 28.3432 227.465 28.1389 228.018 27.8734C228.57 27.6079 228.992 27.3343 229.281 27.0527C229.555 26.774 229.769 26.4411 229.915 26.0885C230.046 25.7388 230.135 25.4293 230.148 25.1502C230.164 24.8868 230.143 24.5978 230.09 24.3147L230.043 24.063C229.994 23.7956 229.913 23.534 229.8 23.2783C229.69 23.0383 229.496 22.7814 229.249 22.5019C228.989 22.2411 228.672 22.0233 228.316 21.8616C227.945 21.7028 227.456 21.6145 226.845 21.5654C226.234 21.5163 225.543 21.5634 224.788 21.7037L224.442 21.7681C223.498 21.9435 222.716 22.2027 222.096 22.5458C221.477 22.8888 221.042 23.2626 220.807 23.6642C220.557 24.0688 220.417 24.4529 220.352 24.8066C220.288 25.1603 220.305 25.5152 220.369 25.8612L220.416 26.1129C220.469 26.3961 220.553 26.6734 220.662 26.9134C220.775 27.1691 220.953 27.4289 221.216 27.7055C221.464 27.985 221.784 28.2184 222.155 28.3772C222.526 28.5361 223.018 28.64 223.629 28.6892C224.24 28.7383 224.931 28.6912 225.702 28.5479L226.048 28.4836ZM235.555 19.8325L224.894 33.922L228.276 33.2933L238.937 19.2038L235.555 19.8325ZM225.473 26.4422C224.86 26.5563 224.38 26.5152 224.05 26.3162C223.705 26.12 223.507 25.8475 223.437 25.4699L223.423 25.3913C223.352 25.0138 223.438 24.6886 223.678 24.4C223.917 24.1114 224.35 23.9007 224.979 23.7838C226.175 23.5616 226.867 23.8722 227.025 24.7217L227.042 24.8161C227.11 25.1779 227.008 25.506 226.772 25.8103C226.52 26.1176 226.087 26.3282 225.473 26.4422ZM239.437 31.349C240.192 31.2086 240.854 31.0042 241.407 30.7387C241.96 30.4733 242.381 30.1997 242.67 29.9181C242.944 29.6394 243.159 29.3065 243.305 28.9539C243.435 28.6042 243.524 28.2947 243.537 28.0156C243.553 27.7522 243.532 27.4632 243.479 27.1801L243.433 26.9284C243.38 26.6452 243.299 26.3836 243.186 26.1279C243.076 25.8879 242.882 25.6311 242.619 25.3545C242.359 25.0936 242.042 24.8759 241.686 24.7142C241.315 24.5553 240.827 24.4671 240.216 24.418C239.604 24.3689 238.913 24.416 238.158 24.5563L237.812 24.6206C237.041 24.7639 236.38 24.9683 235.827 25.2338C235.274 25.4993 234.85 25.7571 234.576 26.0358C234.287 26.3175 234.069 26.6346 233.92 26.9715C233.774 27.3241 233.701 27.6306 233.685 27.894C233.672 28.1731 233.69 28.4464 233.743 28.7296L233.789 28.9812C233.842 29.2644 233.926 29.5417 234.036 29.7817C234.148 30.0374 234.327 30.2972 234.59 30.5738C234.853 30.8504 235.173 31.0838 235.544 31.2426C235.9 31.4044 236.391 31.5084 237.002 31.5575C237.598 31.6095 238.289 31.5624 239.06 31.4192L239.437 31.349ZM238.862 29.3076C238.233 29.4246 237.754 29.3835 237.424 29.1845C237.078 28.9884 236.878 28.7001 236.808 28.3225L236.793 28.2439C236.638 27.4102 237.157 26.8743 238.368 26.6492C238.997 26.5322 239.477 26.5733 239.804 26.7566C240.131 26.9399 240.344 27.2096 240.411 27.5714L240.432 27.6815C240.499 28.0433 240.397 28.3714 240.161 28.6757C239.909 28.983 239.476 29.1936 238.862 29.3076Z" fill="white"/>
<rect x="0.240234" y="48.7266" width="262" height="40" rx="20" transform="rotate(-10.53 0.240234 48.7266)" stroke="#3463F8" stroke-width="2"/>
</svg>
