<svg width="24" height="24" viewBox="0 0 24 24" fill="none" xmlns="http://www.w3.org/2000/svg">
<g clip-path="url(#clip0_2951_6278)">
<path d="M18.2919 13.8281C19.1189 12.5535 19.5937 11.0651 19.5937 9.47513C19.5937 4.75992 15.4175 0.937501 10.2656 0.937501C5.11383 0.937501 0.9375 4.75992 0.9375 9.47513C0.9375 11.4534 1.67297 13.2744 2.90691 14.722L0.9375 19.5938L6.32944 17.2169C7.52541 17.7272 8.85905 18.0127 10.2656 18.0127C11.9054 18.0127 13.4462 17.6255 14.7851 16.9455" stroke="white" stroke-width="2" stroke-miterlimit="10" stroke-linecap="round" stroke-linejoin="round"/>
<path d="M19.7344 9.29541C21.7406 10.5178 23.0625 12.6065 23.0625 14.9778C23.0625 16.5585 22.4749 18.0134 21.489 19.17L23.0625 23.0625L18.7544 21.1635C17.7988 21.5712 16.7333 21.7993 15.6094 21.7993" stroke="white" stroke-width="2" stroke-miterlimit="10" stroke-linecap="round" stroke-linejoin="round"/>
<path d="M15.6091 21.7969C12.6591 21.7969 10.1093 20.2284 8.90137 17.9531" stroke="white" stroke-width="2" stroke-miterlimit="10" stroke-linecap="round" stroke-linejoin="round"/>
<path d="M10.2188 13.3594C9.70097 13.3594 9.28125 13.7791 9.28125 14.2969C9.28125 14.8147 9.70097 15.2344 10.2188 15.2344C10.7365 15.2344 11.1562 14.8147 11.1562 14.2969C11.1562 13.7791 10.7365 13.3594 10.2188 13.3594Z" fill="white"/>
<path d="M7.6875 7.31217C7.6875 5.88848 8.84161 4.73438 10.2653 4.73438C11.689 4.73438 12.8431 5.88848 12.8431 7.31217H12.8437C12.844 8.37745 12.1983 9.29184 11.2769 9.68522C10.659 9.94903 10.2653 10.5647 10.2653 11.2365V11.2969" stroke="white" stroke-width="2" stroke-miterlimit="10" stroke-linecap="round" stroke-linejoin="round"/>
</g>
<defs>
<clipPath id="clip0_2951_6278">
<rect width="24" height="24" fill="white"/>
</clipPath>
</defs>
</svg>
