<svg width="32" height="32" viewBox="0 0 32 32" fill="none" xmlns="http://www.w3.org/2000/svg">
<g clip-path="url(#clip0_2946_6222)">
<rect width="32" height="32" rx="7" fill="black"/>
<path d="M28.5422 0H3.45782C1.54819 0 0 1.54819 0 3.45782V28.5422C0 30.4518 1.54819 32 3.45782 32H28.5422C30.4518 32 32 30.4518 32 28.5422V3.45782C32 1.54819 30.4518 0 28.5422 0ZM15.9925 28.0709C9.3041 28.0709 3.8817 22.6485 3.8817 15.96C3.8817 9.27101 9.3041 3.84924 15.9925 3.84924C22.6809 3.84924 28.1033 9.27101 28.1033 15.96C28.1033 22.6485 22.6809 28.0709 15.9925 28.0709Z" fill="white"/>
<path fill-rule="evenodd" clip-rule="evenodd" d="M21.6055 12.0859C21.4232 14.0011 20.6348 18.6482 20.2334 20.7932C20.0636 21.7008 19.7296 22.0049 19.4056 22.0348C18.7027 22.0991 18.1683 21.5697 17.4872 21.1234C16.4216 20.4248 15.8192 19.9897 14.7848 19.308C13.5887 18.5202 14.364 18.087 15.0457 17.379C15.2236 17.1936 18.3225 14.3751 18.3824 14.1197C18.3899 14.0879 18.3968 13.9687 18.3262 13.9056C18.2557 13.8426 18.1508 13.8638 18.0753 13.8813C17.9685 13.9056 16.2655 15.0312 12.9669 17.2579C12.4837 17.5894 12.0461 17.7511 11.6534 17.743C11.2214 17.7336 10.3893 17.4983 9.77125 17.2973C9.01277 17.0507 8.40972 16.9202 8.46216 16.5019C8.48963 16.2834 8.7899 16.0606 9.36361 15.8327C12.8938 14.2945 15.248 13.2801 16.426 12.7907C19.7895 11.3917 20.4881 11.1482 20.9438 11.1407C21.0437 11.1388 21.2678 11.1632 21.4132 11.2812C21.5356 11.3804 21.5693 11.5147 21.5855 11.6089C21.6018 11.7032 21.6217 11.9179 21.6055 12.0859Z" fill="white"/>
</g>
<defs>
<clipPath id="clip0_2946_6222">
<rect width="32" height="32" fill="white"/>
</clipPath>
</defs>
</svg>
