<svg width="98" height="30" viewBox="0 0 98 30" fill="none" xmlns="http://www.w3.org/2000/svg">
<path d="M39.443 12.0039H37.8066V22.6884H39.443V12.0039Z" fill="#989998"/>
<path d="M46.7697 7.48047H33.4316V9.11686H46.7697V7.48047Z" fill="#989998"/>
<path d="M42.3962 12.0039H40.7598V22.6884H42.3962V12.0039Z" fill="#989998"/>
<path d="M87.6035 22.7118H89.2547V16.2768L87.6035 14.4414V22.7118Z" fill="#989998"/>
<path d="M96.2987 7.48789V19.4181L84.6191 6.4375V22.7093H86.2666V10.7754L97.9535 23.7597V7.48789H96.2987Z" fill="#989998"/>
<path d="M73.9252 7.48047C69.7273 7.48047 66.3145 10.8933 66.3145 15.0912C66.3145 19.289 69.7273 22.7019 73.9252 22.7019C78.123 22.7019 81.5359 19.289 81.5359 15.0912C81.5359 10.897 78.123 7.48047 73.9252 7.48047ZM73.9252 21.0618C70.6339 21.0618 67.9545 18.3861 67.9545 15.0912C67.9545 11.7963 70.6303 9.12055 73.9252 9.12055C77.2164 9.12055 79.8958 11.7963 79.8958 15.0912C79.8958 18.3824 77.2164 21.0618 73.9252 21.0618Z" fill="#989998"/>
<path d="M73.9247 13.9961C73.3203 13.9961 72.8301 14.4863 72.8301 15.0907C72.8301 15.6951 73.3203 16.1853 73.9247 16.1853C74.5291 16.1853 75.0193 15.6951 75.0193 15.0907C75.0193 14.4863 74.5291 13.9961 73.9247 13.9961Z" fill="#989998"/>
<path d="M63.4475 12.1659C63.4475 9.5934 61.3688 7.5 58.8147 7.5H50.1094V22.7214H51.7347V9.15114H58.8147C60.4548 9.15114 61.789 10.5037 61.789 12.1659C61.789 13.8208 60.4732 15.166 58.8479 15.1844L53.0726 15.1807V22.7214H54.6979V16.8319H58.5051L61.6157 22.7177H63.5064L60.2594 16.5997C62.1354 15.9768 63.4475 14.1635 63.4475 12.1659Z" fill="#989998"/>
<path d="M22.1798 4.48618L0 0.40625L11.6722 29.7729L27.9329 9.95925L22.1798 4.48618ZM21.826 6.28474L25.2204 9.50961L15.9401 11.1902L21.826 6.28474ZM13.9241 10.8548L4.14258 2.7429L20.1269 5.68399L13.9241 10.8548ZM13.2238 12.2922L11.6317 25.4755L3.03323 3.83383L13.2238 12.2922ZM14.6981 12.9888L24.9734 11.1276L13.1907 25.4866L14.6981 12.9888Z" fill="#989998"/>
</svg>
