<svg width="32" height="32" viewBox="0 0 32 32" fill="none" xmlns="http://www.w3.org/2000/svg">
<path d="M28.5422 0H3.45782C1.54819 0 0 1.54819 0 3.45782V28.5422C0 30.4518 1.54819 32 3.45782 32H28.5422C30.4518 32 32 30.4518 32 28.5422V3.45782C32 1.54819 30.4518 0 28.5422 0ZM24.2297 11.715C24.2422 11.8973 24.2422 12.0808 24.2422 12.265C24.2422 17.889 19.961 24.3746 12.1327 24.3746V24.3708C9.82037 24.3739 7.55552 23.7116 5.60968 22.4624C5.94553 22.503 6.28389 22.5236 6.62286 22.5242C8.53937 22.5261 10.4009 21.8831 11.9079 20.6989C10.0876 20.6645 8.48943 19.4766 7.93195 17.743C8.5696 17.866 9.22698 17.841 9.85345 17.6699C7.86765 17.2691 6.43995 15.5237 6.43933 13.4979V13.4442C7.03116 13.774 7.69361 13.9567 8.37082 13.9767C6.50051 12.7282 5.92368 10.2405 7.05298 8.29528C9.2142 10.954 12.4023 12.5709 15.8246 12.7419C15.4812 11.2643 15.9507 9.71549 17.0556 8.67608C18.7693 7.06422 21.4655 7.14663 23.0773 8.86087C24.0306 8.67296 24.9445 8.32337 25.7798 7.8277C25.4621 8.81327 24.7973 9.64987 23.9089 10.1818C24.7524 10.0818 25.5762 9.85604 26.3529 9.51198C25.7816 10.3666 25.0626 11.1126 24.2297 11.715Z" fill="white"/>
</svg>
