<svg width="164" height="37" viewBox="0 0 164 37" fill="none" xmlns="http://www.w3.org/2000/svg">
<path d="M69.0657 21.2056C70.1017 21.2056 71.0326 21.4249 71.8586 21.8635C72.6846 22.3022 73.3332 22.9088 73.8045 23.6834C74.2758 24.4581 74.5115 25.3307 74.5115 26.3013C74.5115 27.2719 74.2758 28.1445 73.8045 28.9192C73.3332 29.6938 72.6846 30.3004 71.8586 30.7391C71.0326 31.1777 70.1017 31.397 69.0657 31.397C68.0298 31.397 67.0988 31.1777 66.2729 30.7391C65.4469 30.3004 64.7983 29.6938 64.327 28.9192C63.8557 28.1445 63.62 27.2719 63.62 26.3013C63.62 25.3307 63.8557 24.4581 64.327 23.6834C64.7983 22.9088 65.4469 22.3022 66.2729 21.8635C67.0988 21.4249 68.0298 21.2056 69.0657 21.2056ZM120.177 21.2056C120.821 21.2056 121.456 21.2779 122.081 21.4225C122.706 21.5672 123.257 21.7795 123.733 22.0595L122.879 24.1174C121.946 23.6134 121.04 23.3615 120.163 23.3615C119.613 23.3615 119.211 23.4431 118.959 23.6064C118.707 23.7698 118.581 23.9821 118.581 24.2434C118.581 24.5047 118.731 24.7007 119.029 24.8314C119.328 24.962 119.809 25.0974 120.471 25.2374C121.218 25.396 121.836 25.5663 122.326 25.7483C122.816 25.9303 123.241 26.2196 123.6 26.6163C123.959 27.0129 124.139 27.5519 124.139 28.2332C124.139 28.8212 123.976 29.3531 123.649 29.8291C123.322 30.3051 122.832 30.6854 122.179 30.9701C121.526 31.2547 120.732 31.397 119.799 31.397C119.006 31.397 118.236 31.2991 117.489 31.1031C116.743 30.9071 116.136 30.6458 115.669 30.3191L116.579 28.2752C117.018 28.5645 117.527 28.7978 118.105 28.9752C118.684 29.1525 119.253 29.2412 119.813 29.2412C120.877 29.2412 121.409 28.9752 121.409 28.4432C121.409 28.1632 121.257 27.9556 120.954 27.8202C120.651 27.6849 120.163 27.5426 119.491 27.3932C118.754 27.2346 118.138 27.0643 117.643 26.8823C117.149 26.7003 116.724 26.4086 116.369 26.0073C116.015 25.606 115.837 25.0647 115.837 24.3834C115.837 23.7861 116.001 23.2471 116.327 22.7665C116.654 22.2858 117.142 21.9055 117.79 21.6255C118.439 21.3455 119.235 21.2056 120.177 21.2056ZM57.1943 21.4015C58.2676 21.4015 59.2196 21.6022 60.0502 22.0035C60.8808 22.4048 61.5248 22.9741 61.9821 23.7114C62.4394 24.4487 62.6681 25.312 62.6681 26.3013C62.6681 27.2906 62.4394 28.1539 61.9821 28.8912C61.5248 29.6285 60.8808 30.1978 60.0502 30.5991C59.2196 31.0004 58.2676 31.2011 57.1943 31.2011H52.5606V21.4015H57.1943ZM78.2493 21.4015L81.6931 27.0573L85.0529 21.4015H87.3348L87.3628 31.2011H84.8149L84.7869 26.0073L82.2671 30.2351H81.0351L78.5293 26.1473V31.2011H75.9674V21.4015H78.2493ZM95.2024 21.4015L99.5422 31.2011H96.6583L95.8884 29.2972H91.7446L90.9746 31.2011H88.1468L92.4726 21.4015H95.2024ZM103.098 21.4015V31.2011H100.326V21.4015H103.098ZM107.354 21.4015L111.68 26.6233V21.4015H114.395V31.2011H112.114L107.788 25.9793V31.2011H105.072V21.4015H107.354ZM69.0657 23.5014C68.5711 23.5014 68.1231 23.6181 67.7218 23.8514C67.3205 24.0847 67.0032 24.4137 66.7698 24.8384C66.5365 25.263 66.4199 25.7507 66.4199 26.3013C66.4199 26.8519 66.5365 27.3396 66.7698 27.7642C67.0032 28.1889 67.3205 28.5179 67.7218 28.7512C68.1231 28.9845 68.5711 29.1012 69.0657 29.1012C69.5604 29.1012 70.0083 28.9845 70.4097 28.7512C70.811 28.5179 71.1283 28.1889 71.3616 27.7642C71.5949 27.3396 71.7116 26.8519 71.7116 26.3013C71.7116 25.7507 71.5949 25.263 71.3616 24.8384C71.1283 24.4137 70.811 24.0847 70.4097 23.8514C70.0083 23.6181 69.5604 23.5014 69.0657 23.5014ZM57.0823 23.6134H55.3324V28.9892H57.0823C57.9223 28.9892 58.5966 28.7512 59.1052 28.2752C59.6139 27.7992 59.8682 27.1413 59.8682 26.3013C59.8682 25.4613 59.6139 24.8034 59.1052 24.3274C58.5966 23.8514 57.9223 23.6134 57.0823 23.6134ZM93.8165 24.1174L92.5566 27.2533H95.0764L93.8165 24.1174ZM55.2484 6.12958V11.4773C55.2484 13.0452 55.8691 13.8292 57.1103 13.8292C58.3423 13.8292 58.9582 13.0452 58.9582 11.4773V6.12958H61.6881V11.5613C61.6881 13.0172 61.2845 14.1418 60.4772 14.9351C59.6699 15.7284 58.5383 16.1251 57.0823 16.1251C55.6264 16.1251 54.4948 15.7284 53.6875 14.9351C52.8802 14.1418 52.4766 13.0172 52.4766 11.5613V6.12958H55.2484ZM97.7363 5.93359C98.7722 5.93359 99.7032 6.15291 100.529 6.59156C101.355 7.03021 102.004 7.63684 102.475 8.41147C102.946 9.1861 103.182 10.0587 103.182 11.0293C103.182 12 102.946 12.8726 102.475 13.6472C102.004 14.4218 101.355 15.0285 100.529 15.4671C99.7032 15.9058 98.7722 16.1251 97.7363 16.1251C96.7003 16.1251 95.7694 15.9058 94.9434 15.4671C94.1175 15.0285 93.4688 14.4218 92.9975 13.6472C92.5262 12.8726 92.2906 12 92.2906 11.0293C92.2906 10.0587 92.5262 9.1861 92.9975 8.41147C93.4688 7.63684 94.1175 7.03021 94.9434 6.59156C95.7694 6.15291 96.7003 5.93359 97.7363 5.93359ZM78.6693 5.93359C79.3132 5.93359 79.9478 6.00592 80.5732 6.15058C81.1985 6.29524 81.7491 6.50756 82.2251 6.78755L81.3711 8.84545C80.4378 8.34147 79.5325 8.08949 78.6553 8.08949C78.1046 8.08949 77.7033 8.17115 77.4513 8.33447C77.1993 8.4978 77.0733 8.71012 77.0733 8.97144C77.0733 9.23276 77.2227 9.42875 77.5213 9.55941C77.82 9.69007 78.3006 9.8254 78.9632 9.96539C79.7099 10.1241 80.3282 10.2944 80.8181 10.4764C81.3081 10.6584 81.7328 10.9477 82.0921 11.3443C82.4514 11.741 82.6311 12.2799 82.6311 12.9612C82.6311 13.5492 82.4677 14.0812 82.1411 14.5572C81.8144 15.0331 81.3245 15.4135 80.6712 15.6981C80.0178 15.9828 79.2246 16.1251 78.2913 16.1251C77.498 16.1251 76.728 16.0271 75.9814 15.8311C75.2348 15.6351 74.6281 15.3738 74.1615 15.0471L75.0714 13.0032C75.5101 13.2926 76.0187 13.5259 76.5974 13.7032C77.176 13.8805 77.7453 13.9692 78.3053 13.9692C79.3692 13.9692 79.9012 13.7032 79.9012 13.1712C79.9012 12.8912 79.7495 12.6836 79.4462 12.5483C79.1429 12.4129 78.6553 12.2706 77.9833 12.1213C77.246 11.9626 76.63 11.7923 76.1354 11.6103C75.6407 11.4283 75.2161 11.1367 74.8614 10.7354C74.5068 10.334 74.3295 9.79274 74.3295 9.11143C74.3295 8.51413 74.4928 7.97516 74.8194 7.49452C75.1461 7.01387 75.6337 6.63356 76.2824 6.35357C76.931 6.07359 77.7266 5.93359 78.6693 5.93359ZM91.7586 6.12958V8.32747H88.7627V15.9291H85.9909V8.32747H82.981V6.12958H91.7586ZM65.8459 6.12958L70.1717 11.3513V6.12958H72.8875V15.9291H70.6057L66.2799 10.7074V15.9291H63.564V6.12958H65.8459ZM109.118 6.12958C110.004 6.12958 110.774 6.27658 111.428 6.57056C112.081 6.86455 112.585 7.28452 112.94 7.8305C113.294 8.37647 113.472 9.0181 113.472 9.7554C113.472 10.4927 113.294 11.132 112.94 11.6733C112.585 12.2146 112.081 12.6323 111.428 12.9262C110.774 13.2202 110.004 13.3672 109.118 13.3672H107.41V15.9291H104.638V6.12958H109.118ZM131.153 6.12958L135.492 15.9291H132.609L131.839 14.0252H127.695L126.925 15.9291H124.097L128.423 6.12958H131.153ZM141.288 6.12958C142.539 6.12958 143.491 6.36057 144.144 6.82255C144.797 7.28453 145.124 7.90749 145.124 8.69146C145.124 9.1581 145.01 9.57574 144.781 9.94439C144.552 10.313 144.228 10.6047 143.808 10.8193C144.368 11.0153 144.807 11.321 145.124 11.7363C145.441 12.1516 145.6 12.6533 145.6 13.2412C145.6 14.0999 145.255 14.7625 144.564 15.2291C143.873 15.6958 142.875 15.9291 141.568 15.9291H136.276V6.12958H141.288ZM149.814 6.12958V13.7312H154.489V15.9291H147.042V6.12958H149.814ZM163.267 6.12958V8.27148H158.325V9.92339H162.679V11.9953H158.325V13.7872H163.449V15.9291H155.581V6.12958H163.267ZM119.435 6.12958C120.322 6.12958 121.092 6.27658 121.745 6.57056C122.398 6.86455 122.902 7.28452 123.257 7.8305C123.612 8.37647 123.789 9.0181 123.789 9.7554C123.789 10.4927 123.612 11.132 123.257 11.6733C122.902 12.2146 122.398 12.6323 121.745 12.9262C121.092 13.2202 120.322 13.3672 119.435 13.3672H117.727V15.9291H114.955V6.12958H119.435ZM141.344 11.9393H139.02V13.9272H141.344C142.315 13.9272 142.8 13.5959 142.8 12.9332C142.8 12.2706 142.315 11.9393 141.344 11.9393ZM97.7363 8.22948C97.2416 8.22948 96.7937 8.34614 96.3924 8.57946C95.991 8.81278 95.6737 9.14176 95.4404 9.56641C95.2071 9.99106 95.0904 10.4787 95.0904 11.0293C95.0904 11.58 95.2071 12.0676 95.4404 12.4923C95.6737 12.9169 95.991 13.2459 96.3924 13.4792C96.7937 13.7125 97.2416 13.8292 97.7363 13.8292C98.2309 13.8292 98.6789 13.7125 99.0802 13.4792C99.4815 13.2459 99.7989 12.9169 100.032 12.4923C100.266 12.0676 100.382 11.58 100.382 11.0293C100.382 10.4787 100.266 9.99106 100.032 9.56641C99.7989 9.14176 99.4815 8.81278 99.0802 8.57946C98.6789 8.34614 98.2309 8.22948 97.7363 8.22948ZM129.767 8.84545L128.507 11.9813H131.027L129.767 8.84545ZM108.95 8.31347H107.41V11.1833H108.95C109.519 11.1833 109.948 11.0597 110.238 10.8123C110.527 10.565 110.672 10.2127 110.672 9.7554C110.672 9.29809 110.527 8.94344 110.238 8.69146C109.948 8.43947 109.519 8.31347 108.95 8.31347ZM119.267 8.31347H117.727V11.1833H119.267C119.837 11.1833 120.266 11.0597 120.555 10.8123C120.844 10.565 120.989 10.2127 120.989 9.7554C120.989 9.29809 120.844 8.94344 120.555 8.69146C120.266 8.43947 119.837 8.31347 119.267 8.31347ZM140.924 8.13148H139.02V10.0214H140.924C141.857 10.0214 142.324 9.70408 142.324 9.06944C142.324 8.44413 141.857 8.13148 140.924 8.13148Z" fill="#989998"/>
<path fill-rule="evenodd" clip-rule="evenodd" d="M41.403 0.660156V14.6595L0.677734 31.2041L41.403 0.660156Z" fill="#CACACA"/>
<path fill-rule="evenodd" clip-rule="evenodd" d="M33.7677 0.0234375V24.204C33.7677 31.2328 28.0698 36.9307 21.0411 36.9307C14.0124 36.9307 8.31445 31.2328 8.31445 24.204V14.0227L15.9504 9.82295V24.204C15.9504 26.6641 17.9447 28.6584 20.4048 28.6584C22.8648 28.6584 24.8591 26.6641 24.8591 24.204V4.92319L33.7677 0.0234375Z" fill="#989998"/>
</svg>
