<svg width="111" height="59" viewBox="0 0 111 59" fill="none" xmlns="http://www.w3.org/2000/svg">
<g clip-path="url(#clip0_3291_3697)">
<path d="M57.8965 27.0664C51.262 -11.3656 1.06899 -3.92858 0.17311 27.0664C3.07035 28.5694 4.88968 29.4826 4.88968 29.4826C4.88968 29.4826 3.35426 30.4016 0.152344 32.447C5.93676 70.1245 55.2647 64.6527 57.8871 32.4035C54.7508 30.4814 53.0408 29.4667 53.0408 29.4667C53.0408 29.4667 54.5074 28.7683 57.8965 27.0664ZM33.2004 40.4855L28.4923 32.3932L23.6998 40.4855L20.0848 40.2376L26.8943 28.7601L20.7575 18.8518L24.4565 18.5213L28.8281 25.8703L33.2004 18.8518L36.6473 18.9342L30.9304 28.6777L37.2356 40.4027L33.2004 40.4855Z" fill="#EDEDED"/>
<path d="M55.5627 25.5671C46.5679 -8.58305 5.345 0.6557 2.52142 25.5671C8.24126 28.7846 9.53916 29.5411 9.53916 29.5411C9.53916 29.5411 7.32852 30.9539 2.50195 34.0189C8.6381 66.8497 53.1161 60.54 55.5536 33.979C51.0648 31.166 48.4171 29.5268 48.4171 29.5268C48.4171 29.5268 54.4692 26.1446 55.5627 25.5671ZM33.2073 40.5161L28.4998 32.4257L23.7083 40.5161L20.0937 40.2682L26.9021 28.793L20.7663 18.887L24.4647 18.5564L28.8357 25.9039L33.2073 18.887L36.6536 18.9694L30.9373 28.7106L37.2418 40.433L33.2073 40.5161Z" fill="#989998"/>
</g>
<path d="M105.711 39.0065C104.381 39.0065 103.21 38.7833 102.231 38.3421C101.249 37.8993 100.424 37.2631 99.78 36.4511C99.1399 35.6434 98.6585 34.6604 98.35 33.5302C98.0441 32.4107 97.8887 31.1533 97.8887 29.794C97.8887 28.4575 98.0668 27.2156 98.4181 26.102C98.7714 24.9815 99.2998 24.0043 99.9882 23.1988C100.679 22.3898 101.547 21.7523 102.567 21.3033C103.585 20.856 104.767 20.6289 106.081 20.6289C106.952 20.6289 107.795 20.7188 108.588 20.8969C109.383 21.0756 110.112 21.3394 110.755 21.681L110.849 21.9739L109.918 23.8344L109.622 23.932C109.134 23.6851 108.595 23.4691 108.021 23.2903C107.455 23.1148 106.803 23.0259 106.081 23.0259C105.266 23.0259 104.519 23.1813 103.858 23.4882C103.2 23.7948 102.63 24.2415 102.164 24.8167C101.695 25.3964 101.326 26.1136 101.07 26.9487C100.811 27.7898 100.68 28.7546 100.68 29.8177C100.68 30.9139 100.795 31.8997 101.024 32.7471C101.25 33.585 101.592 34.2984 102.041 34.868C102.485 35.4332 103.048 35.8688 103.711 36.1627C104.38 36.4586 105.177 36.6088 106.081 36.6088C106.77 36.6088 107.433 36.54 108.051 36.4051C108.679 36.2678 109.309 36.1066 109.921 35.9259L110.203 36.1371V38.0771L110.063 38.2821C109.749 38.4037 109.43 38.5127 109.115 38.6062C108.8 38.6999 108.464 38.7768 108.116 38.8345C107.77 38.8913 107.398 38.9348 107.01 38.963C106.617 38.9922 106.18 39.0065 105.711 39.0065Z" fill="#989998"/>
<path d="M82.2727 38.7673L82.0527 38.547V21.0992L82.2727 20.8789H87.13C88.3679 20.8789 89.506 21.0687 90.5126 21.4421C91.5257 21.8181 92.4006 22.3845 93.1127 23.1261C93.8231 23.8654 94.3798 24.7945 94.7668 25.8861C95.1516 26.9722 95.3462 28.2423 95.3462 29.6615C95.3462 31.1502 95.1496 32.4764 94.7613 33.6034C94.3704 34.7382 93.7952 35.7007 93.0517 36.464C92.3078 37.228 91.382 37.8096 90.3007 38.1934C89.2273 38.5736 87.9958 38.767 86.6408 38.767H82.2727V38.7673ZM86.4257 36.4293C88.452 36.4293 89.9958 35.8668 91.0138 34.7567C92.0366 33.6413 92.555 31.9515 92.555 29.7336C92.555 28.5981 92.4259 27.6051 92.1706 26.7821C91.9195 25.9695 91.55 25.2921 91.0728 24.7695C90.5979 24.2492 90.0052 23.8566 89.31 23.6033C88.6051 23.3467 87.7911 23.2166 86.8909 23.2166H84.7122V36.4293H86.4257Z" fill="#989998"/>
<path d="M77.3794 38.7673L77.187 38.6541L73.1511 31.414L68.9653 38.657L68.7745 38.7673H66.5309L66.3418 38.4348L71.6809 29.4299L66.7126 21.2127L66.9011 20.8789H69.264L69.4532 20.9866L73.2267 27.3404L77.0235 20.9863L77.2123 20.8789H79.4799L79.6677 21.213L74.7121 29.3589L80.0869 38.4348L79.8974 38.7673H77.3794Z" fill="#989998"/>
<defs>
<clipPath id="clip0_3291_3697">
<rect width="57.7442" height="57.7442" fill="white" transform="translate(0.162109 0.945312)"/>
</clipPath>
</defs>
</svg>
